<svg xmlns="http://www.w3.org/2000/svg" xmlns:xlink="http://www.w3.org/1999/xlink" width="1000" height="384" viewBox="0 0 1000 384">
  <defs>
    <linearGradient id="linear-gradient" y1="0.5" x2="1" y2="0.5" gradientUnits="objectBoundingBox">
      <stop offset="0" stop-color="#ff7bac"/>
      <stop offset="0.216" stop-color="#ff7bac" stop-opacity="0.761"/>
      <stop offset="0.604" stop-color="#ff7bac" stop-opacity="0.357"/>
      <stop offset="0.874" stop-color="#ff7bac" stop-opacity="0.098"/>
      <stop offset="1" stop-color="#ff7bac" stop-opacity="0"/>
    </linearGradient>
    <clipPath id="clip-pecuaria_img_1">
      <rect width="1000" height="384"/>
    </clipPath>
  </defs>
  <g id="pecuaria_img_1" data-name="pecuaria img – 1" clip-path="url(#clip-pecuaria_img_1)">
    <g id="Grupo_1050" data-name="Grupo 1050" transform="translate(-183 -120)">
      <g id="Grupo_971" data-name="Grupo 971">
        <g id="Grupo_917" data-name="Grupo 917">
          <g id="Grupo_72" data-name="Grupo 72" transform="translate(192.079 39)">
            <path id="Subtração_1" data-name="Subtração 1" d="M182,187a185.27,185.27,0,0,1-18.608-.938,182.79,182.79,0,0,1-18.071-2.753,181.334,181.334,0,0,1-34.163-10.585,182.124,182.124,0,0,1-30.915-16.749,183.23,183.23,0,0,1-26.935-22.182,183.036,183.036,0,0,1-22.224-26.885A181.561,181.561,0,0,1,14.3,76.052a180.492,180.492,0,0,1-10.6-34.1A181.815,181.815,0,0,1,.94,23.916,184.226,184.226,0,0,1,0,5.343C0,3.567.026,1.77.077,0a180.482,180.482,0,0,0,55,124.852A181.205,181.205,0,0,0,182,176.314,181.206,181.206,0,0,0,308.92,124.852,180.482,180.482,0,0,0,363.923,0c.052,1.781.077,3.579.077,5.343a184.235,184.235,0,0,1-.94,18.573A181.811,181.811,0,0,1,360.3,41.953a180.488,180.488,0,0,1-10.6,34.1,181.563,181.563,0,0,1-16.78,30.857,183.03,183.03,0,0,1-22.224,26.885,183.23,183.23,0,0,1-26.936,22.182,182.121,182.121,0,0,1-30.915,16.749,181.335,181.335,0,0,1-34.163,10.585c-5.941,1.213-12.021,2.139-18.071,2.753A185.27,185.27,0,0,1,182,187Z" transform="translate(308.921 245)" fill="#fff" opacity="0.5"/>
            <path id="Subtração_2" data-name="Subtração 2" d="M182,187a183.681,183.681,0,0,1-36.679-3.691,181.335,181.335,0,0,1-34.163-10.585,182.129,182.129,0,0,1-30.915-16.749,183.237,183.237,0,0,1-26.935-22.182,183.04,183.04,0,0,1-22.224-26.885A181.561,181.561,0,0,1,14.3,76.052a180.488,180.488,0,0,1-10.6-34.1A182.664,182.664,0,0,1,0,5.343C0,3.569.026,1.771.077,0,2.94,98.868,82.849,176.314,182,176.314S361.06,98.868,363.922,0c.052,1.8.077,3.593.077,5.343a182.663,182.663,0,0,1-3.7,36.61,180.494,180.494,0,0,1-10.6,34.1,181.57,181.57,0,0,1-16.78,30.857,183.038,183.038,0,0,1-22.224,26.885,183.239,183.239,0,0,1-26.936,22.182,182.126,182.126,0,0,1-30.915,16.749,181.336,181.336,0,0,1-34.163,10.585A183.681,183.681,0,0,1,182,187Z" transform="translate(308.921 255)" fill="#cbdfb3" style="mix-blend-mode: multiply;isolation: isolate"/>
          </g>
          <g id="Grupo_104" data-name="Grupo 104" transform="translate(463 277)">
            <path id="Caminho_34" data-name="Caminho 34" d="M1600.228,288.577a9.362,9.362,0,0,1,2.033,2.807,10.248,10.248,0,0,1,.318,3.95c-.147,5.7,1.488,11.272,2.469,16.889s1.244,11.688-1.422,16.728c-2.255,4.26-6.564,7.818-6.562,12.639a122.45,122.45,0,0,0,15.015-1.663,29.974,29.974,0,0,1,2.416-15.012c1.225-2.763,2.917-5.686,2.148-8.61a22.5,22.5,0,0,0-1.609-3.492c-1.968-4.293-.924-9.374.9-13.729s4.406-8.424,5.584-13a10.666,10.666,0,0,0,.147-5.754,12.906,12.906,0,0,0-2.085-3.711c-6.4-8.766-14.613-16.839-17.059-27.413-.373-1.612-.669-3.382-1.887-4.5a4.919,4.919,0,0,0-5.088-.6,14.459,14.459,0,0,0-4.331,3.178c-2.769,2.619-5.984,6.019-6.048,10.108-.049,3.077,2.076,6.131,2.983,9.02C1590.741,274.655,1594.352,282.143,1600.228,288.577Z" transform="translate(-1359.651 -177.855)" fill="#a8a29a"/>
            <g id="Grupo_103" data-name="Grupo 103" transform="translate(0 0)">
              <path id="Caminho_35" data-name="Caminho 35" d="M1412.434,294.395l5.707,16.33c2.229,6.38,4.487,12.915,4.445,19.673a30.05,30.05,0,0,1-11.1,22.92c-.242.03.808,1.37.565,1.4-.326,1.218-2.047,1.929-2.374,3.147a1.073,1.073,0,0,0,1.166,1.58,54.82,54.82,0,0,0,14.631-.522,12.523,12.523,0,0,0,.683-6.365,13.351,13.351,0,0,1-.264-3.807,8.525,8.525,0,0,1,.778-2.1l2.929-6.177c1.946-4.1,3.065-8.878,2.2-13.337s-2.577-8.787-2.714-13.327c-.1-3.4.685-6.758.8-10.153.207-6.224-1.845-12.277-3.87-18.166l-13.749,8.338C1412.689,293.254,1412.013,294.969,1412.434,294.395Z" transform="translate(-1325.181 -186.062)" fill="#a8a29a"/>
              <path id="Caminho_36" data-name="Caminho 36" d="M1548.029,224.335a74.771,74.771,0,0,0,.96-28.882c-.83-5.086-2.451-10.486-6.6-13.54-4.543-3.342-10.736-2.926-16.348-2.362l-26.756,2.688c-10.412,1.046-20.858,2.094-31.318,1.795-19.5-.556-38.559-5.767-57.954-7.876a78.448,78.448,0,0,0-34.741,3.8c-.016-3.475-.547-7.252-4.307-8.781a7.253,7.253,0,0,0-9.034,3.675c-3.7-1.252-6.562-4.13-9.495-6.705s-6.357-5.034-10.259-5.115-8.034,3.338-7.256,7.163a14.1,14.1,0,0,1-14.243,6.18c-4.2-.812-8.679-3.52-12.393-1.4-3.084,1.762-3.646,6.381-1.709,9.359s5.663,4.393,9.214,4.452,7.009-1.032,10.393-2.112l-1.821-.971c2.335,6.324,3.811,12.51,2.726,19.163-.735,4.51-2.254,9.147-.986,13.537,1.877,6.5,10.546,9.918,16.354,6.452,5.795-3.906,13.881-1.161,19.209,3.361,7.679,6.519,12.076,15.978,16.924,24.807s10.9,17.771,20.154,21.742a13.147,13.147,0,0,0,8.172.306c4.709-1.148,8.464-4.591,12-7.91a11.566,11.566,0,0,1,3.621,7.194c.37,2.815.2,5.672.4,8.506a33.929,33.929,0,0,0,8.6,20.252c3.883,4.3,1.958,11.078,1.122,16.81s-2.135,11.536-1.237,17.259c5.573,2.2,12.944-1.571,15.355-7.055l-.121.932c-1.706-.381-3.738-2.8-4.256-4.471a5.1,5.1,0,0,1,1.115-4.882c2.411-2.59.017-7.241-3.149-8.823-3.277-1.636-1.09-5.927-1.238-9.587q-.593-14.714-1.188-29.427c-.2-4.875-1.64-8.288-.45-13.021a18.863,18.863,0,0,0,12.888,7.106l-1.336,1.079a68.768,68.768,0,0,0,51.429-11.756l-.092,1.33c2.738.994,5.734,1.555,8.472,2.549a16.691,16.691,0,0,1,4.273,2.029,5.63,5.63,0,0,1,2.434,3.906c1.1-.2,1.619-1.508,1.627-2.626a11.77,11.77,0,0,1,.034-3.338c.324-1.071,1.693-1.933,2.562-1.227,1.278,1.038-.3,3.658,1.07,4.577.826.555,2.013-.236,2.227-1.209a4.656,4.656,0,0,0-.633-2.862c.2-.751,1.443-.365,1.712.364s.108,1.6.516,2.257a1.488,1.488,0,1,0,1.752-2.188l8.04,5.149c6.184,3.96,7.364,12.9,8.731,20.115,1.668,8.8,1.206,18.182-2.492,26.344-2.819,6.224-7.364,11.478-11.846,16.635-.748.861-.522,3.677.467,4.245a2.391,2.391,0,0,0,3.042-.675c3.06-.268,6.425-.272,9.484-.54a19.81,19.81,0,0,1,10.98-16.084c-2.917-8.718-2.138-18.211-.727-27.3,1.133-7.3,3.667-14.405,3.933-21.791.26-7.185-4.18-9.807-6.065-16.744C1548.009,243.01,1546.341,231.595,1548.029,224.335Z" transform="translate(-1304.742 -162.023)" fill="#c1bab0"/>
              <path id="Caminho_37" data-name="Caminho 37" d="M1533.976,258.587c-.032,4.608.383,7.506,3.109,11.3,2.376,3.306,4.747,4.9,7.914,6.921,2.667,1.7,5.485,2.864,8.144,4.549,2.139,1.355,4.063,6.306,6.381,6.394,2.477.095,2.672-3.129,2.945-5.02.632-4.391,1.28-2.248,4.272-1.381-.1,1.476,1.094,4.526,2.72,4.792,1.522.249,3.583-4.158,3.21-5.3,1.384,1.219,3.1,4.224,5.137,3.864,1.709-.3,1.288-1.6.545-3.424-1.735-4.266-4.824-8.068-6.872-12.2-2.012-4.06-3.326-8.907-6.663-11.923-4.978-4.5-10.738-3.466-16.424-1.384-3.069,1.124-6.088,1-9.333,1.136a10,10,0,0,0-3.144.26C1535.01,257.533,1534.057,259.267,1533.976,258.587Z" transform="translate(-1349.602 -179.881)" fill="#c1bab0"/>
              <path id="Caminho_38" data-name="Caminho 38" d="M1533.976,258.587c-.032,4.608.383,7.506,3.109,11.3,2.376,3.306,4.747,4.9,7.914,6.921,2.667,1.7,5.485,2.864,8.144,4.549,2.139,1.355,4.063,6.306,6.381,6.394,2.477.095,2.672-3.129,2.945-5.02.632-4.391,1.28-2.248,4.272-1.381-.1,1.476,1.094,4.526,2.72,4.792,1.522.249,3.583-4.158,3.21-5.3,1.384,1.219,3.1,4.224,5.137,3.864,1.709-.3,1.288-1.6.545-3.424-1.735-4.266-4.824-8.068-6.872-12.2-2.012-4.06-3.326-8.907-6.663-11.923-4.978-4.5-10.738-3.466-16.424-1.384-3.069,1.124-6.088,1-9.333,1.136a10,10,0,0,0-3.144.26C1535.01,257.533,1534.057,259.267,1533.976,258.587Z" transform="translate(-1349.602 -179.881)" fill="url(#linear-gradient)"/>
              <path id="Caminho_39" data-name="Caminho 39" d="M1580.887,271.383a93.311,93.311,0,0,1-8.756-13.64,83.1,83.1,0,0,0-5.283-9.49,17.514,17.514,0,0,0-8.281-6.762c-3.428-1.175-7.578-.649-10.128,1.926-5.488-.3-9.587-4.772-12.333-9.534a43.949,43.949,0,0,1-4.661-31.634c1.158-4.938,3.4-9.927,7.595-12.771,2.613-1.768,5.746-2.549,8.743-3.535,5.469-1.8,10.668-4.364,16.185-6.008s11.572-2.317,16.96-.291c8.235,3.1,13.14,11.924,14.344,20.639s-.574,17.525-1.885,26.225-2.117,17.831.9,26.094c2.288,6.259,6.752,12.057,6.465,18.715-.161,3.745-1.837,7.228-3.032,10.782a43.435,43.435,0,0,0-1.161,23.406c.98,4.272,2.517,9.115.049,12.737-1.339,1.965-3.584,3.067-5.481,4.5a17.6,17.6,0,0,0-6.054,8.457,5.763,5.763,0,0,0-5.628-3.707C1589.653,309.6,1593.476,287.681,1580.887,271.383Z" transform="translate(-1348.885 -165.038)" fill="#ddd5ca"/>
              <path id="Caminho_40" data-name="Caminho 40" d="M1324.847,212.611a37.26,37.26,0,0,0-1.368-24.452,11.092,11.092,0,0,1-18.829-6.323c-.307-2.216.227-4.765,2.083-6.013a6.632,6.632,0,0,1,3-.939,16.55,16.55,0,0,1,6.987.725c3.085,1.015,5.459,2.251,8.688,1.086,2.272-.819,4.591-4.244,7.122-4.218,4.092.043,2.717,4.439,2.311,7.539C1333.268,191.979,1334.479,203.505,1324.847,212.611Z" transform="translate(-1304.569 -163.878)" fill="#25242c"/>
              <path id="Caminho_41" data-name="Caminho 41" d="M1451.638,268.488c.089.04.175.084.264.127a2.221,2.221,0,0,0,.109-1.534A1.134,1.134,0,0,0,1451.638,268.488Z" transform="translate(-1333.415 -182.449)" fill="#25242c"/>
              <path id="Caminho_42" data-name="Caminho 42" d="M1448.442,276.121c-.043,2.166.9,4.563,2.912,5.366,3.042,1.214,6.344-2.341,5.921-5.589-.411-3.151-3.1-5.521-5.976-6.909a12.157,12.157,0,0,1-1.269,2.085A9.454,9.454,0,0,0,1448.442,276.121Z" transform="translate(-1332.811 -182.823)" fill="#25242c"/>
              <path id="Caminho_43" data-name="Caminho 43" d="M1367.909,196.46a23.267,23.267,0,0,0-.7-5.733.82.82,0,0,1,1.091-.958.725.725,0,0,1,.863.169,1.788,1.788,0,0,0,.908.52,3.66,3.66,0,0,0,1.173.09,9.649,9.649,0,0,0,2.761-.649,22.8,22.8,0,0,0,4.747-2.508,16.343,16.343,0,0,0,4.329-4.044,11.4,11.4,0,0,0,1.189-2.18q-.164-1.322-.327-2.646a7.97,7.97,0,0,0-5.533-7,7.575,7.575,0,0,0-8.571,3.513c-.177.325-.367.7-.721.8a1.282,1.282,0,0,1-.929-.2c-2.172-1.129-4.334-1.782-5.991-3.584-4.17,4.384-8.457,8.956-10.434,14.675-1.566,4.53-1.566,9.48-3.093,14.023-.489,1.454-1.142,2.937-.944,4.458.483,3.713,5.226,4.907,7.834,7.593a8.088,8.088,0,0,1-.817,11.532,12.915,12.915,0,0,0,6.84-3.306.787.787,0,0,1,.212-.595,8.837,8.837,0,0,0,2.059-5.628,42.842,42.842,0,0,1,.572-6.548,30.539,30.539,0,0,1,2.532-6.206A12.612,12.612,0,0,0,1367.909,196.46Z" transform="translate(-1313.035 -163.633)" fill="#25242c"/>
              <path id="Caminho_44" data-name="Caminho 44" d="M1445.164,246.684c-1.615-2.43-4.01-4.265-5.607-6.706-.8-1.225-1.39-2.584-2.249-3.769-1.25-1.726-3.015-3.009-4.4-4.629s-2.4-3.842-1.721-5.861c.636-1.881,2.63-3.244,2.7-5.228.128-3.576-5.526-4.4-6.88-7.715-.76-1.858.061-3.977-.161-5.971a5.886,5.886,0,0,0-5.181-5.049c-1.557-.133-3.53.19-4.32-1.158-.539-.92-.133-2.117-.442-3.137a6.5,6.5,0,0,0-1.681-2.233,8.261,8.261,0,0,1-.528-10.053c-2.383-.406-3.921-2.669-5.89-4.071-4.969-3.536-11.814-1.226-17.416,1.185a7.153,7.153,0,0,0-1.417.817,13.476,13.476,0,0,1-1.958,3.413,19.608,19.608,0,0,1-5.134,4.371,21.506,21.506,0,0,1-5.321,2.476,6.742,6.742,0,0,1-4.329.049,27.455,27.455,0,0,1,.411,5.263,20,20,0,0,1-.241,3,11.776,11.776,0,0,1-1.11,3.167c-.483,1-1.027,1.975-1.436,3.012a15.784,15.784,0,0,0-.923,3.359c-.329,2.107-.184,4.246-.442,6.357a10.872,10.872,0,0,1-.868,3.186c.178,3.151,2.024,6.27,4.117,8.78,2.736,3.28,6.069,6.3,7.371,10.364.184.576.407,1.257.986,1.435.368.113.725-.26.785-.585l8.83,15.113c.7,1.2,1.534,2.5,2.879,2.836s3-1.158,2.247-2.323a32.305,32.305,0,0,0,7.162-.625l.432-2.446a12.547,12.547,0,0,0,7.016-2.55c-2.209-.416-2.564-4.176-.472-5,2.658-1.045,6.3,2.283,8.153.108.492-.579.625-1.391,1.087-1.993a2.321,2.321,0,0,1,3.774.478c.7,1.635-.713,3.439-.58,5.211a3.184,3.184,0,0,0,4.62,2.337c1.661-1.916-.017-5.512-2.553-5.47a5.073,5.073,0,0,1,5.287-1.079,14.912,14.912,0,0,1,4.786,3.043,3.545,3.545,0,0,1,1.166,1.373c.01.028.017.055.026.084a1.522,1.522,0,0,1,.861-.379,3.9,3.9,0,0,1,2.365.929l6.419,4.374C1447.406,252.67,1446.78,249.113,1445.164,246.684Z" transform="translate(-1317.142 -165.215)" fill="#25242c"/>
              <path id="Caminho_45" data-name="Caminho 45" d="M1445.12,192.1c-2.654.2-6.113.956-6.337,3.608a5.48,5.48,0,0,0,.463,2.266l7.009,19.56c5.218-.764,10.268,4.838,8.97,9.95a5.946,5.946,0,0,0-.377,2.224c.161,1.177,1.238,2.029,1.58,3.166.417,1.393-.341,2.917,0,4.33.371,1.547,1.89,2.474,3.106,3.5s2.269,2.781,1.418,4.125c2.14.045,3.556-2.423,3.447-4.561s-1.2-4.087-1.8-6.142a13.831,13.831,0,0,1,2.021-11.773c3.118,1.841,4.786,5.429,5.6,8.957s.972,7.2,2,10.671a6.754,6.754,0,0,0,2.326,3.8c2.892,1.99,7.142-1.01,7.478-4.5a8.911,8.911,0,0,1,6.262,4.616,6.941,6.941,0,0,0,1.506,2.4,5,5,0,0,0,2.805.8l12.339.986c2.928.234,6.823-.215,7.384-3.1.68-3.5-4.583-5.55-4.929-9.1-.1-1.021.237-2.036.238-3.061a4.889,4.889,0,0,0-5.161-4.669c-.857-3.779-1.584-8.17.865-11.172.707-.865,1.634-1.541,2.265-2.462,2.152-3.142-1.152-8.207-4.895-7.5a5.783,5.783,0,0,0-2.427-8.174c-2.08-.884-4.447-.426-6.7-.295s-4.868-.276-6.066-2.192c-1.26-2.015-.559-5.127-2.479-6.528-1.022-.746-2.4-.669-3.664-.732-6.274-.314-11.671-4.783-17.9-5.606-3.048-.4-7.1-.036-9.587,1.963C1449.306,189.523,1449.253,191.791,1445.12,192.1Z" transform="translate(-1330.913 -166.404)" fill="#25242c"/>
              <path id="Caminho_46" data-name="Caminho 46" d="M1520.6,197.366a9.541,9.541,0,0,1,2.243.669c1.21.759,1.328,2.5.946,3.879s-1.125,2.679-1.164,4.107c-.1,3.839,4.812,6.737,4.026,10.5a16.19,16.19,0,0,1-1.61,3.344c-1.236,2.647-.722,5.741-.182,8.612a4.382,4.382,0,0,0,1.067,2.527c.6.544,1.452.722,2.071,1.24,1.038.868,1.135,2.4,1.666,3.642a6,6,0,0,0,6.645,3.221,7.815,7.815,0,0,0,5.547-5.255,5.948,5.948,0,0,1,1.026-2.32c1.43-1.525,4.277-.524,5.832-1.922,1.906-1.713.338-5.533,2.405-7.048,2.122-1.554,4.677,1.255,7.2,2.009,3.3.987,6.9-2.842,5.718-6.073a5.947,5.947,0,0,0,6.571-4.476c1.723.15,2.391,2.316,2.438,4.045s.085,3.815,1.574,4.693a4.009,4.009,0,0,0,1.963.431c3.329.077,7.257-.786,9.527,1.651a8.422,8.422,0,0,0-.032-9.785,6.3,6.3,0,0,1-1.236-1.938,5.663,5.663,0,0,1,.319-2.839,11.955,11.955,0,0,0-2.384-10.352c-1.671-2-4.261-3.472-6.833-3.026s-4.661,3.369-3.614,5.759c-3.627.825-6.283-3.741-6.039-7.453a5.323,5.323,0,0,0-.188-2.659,3.443,3.443,0,0,0-1.47-1.415c-2.266-1.293-5.006-1.329-7.546-1.925s-5.245-2.187-5.587-4.773c-4.179,1.9-9.007-1.178-13.566-.632a17.19,17.19,0,0,0-4.969,1.669c-3.9,1.773-8.811,3.178-12.334,5.6C1518.443,192.575,1516.286,195.979,1520.6,197.366Z" transform="translate(-1346.487 -166.088)" fill="#25242c"/>
              <path id="Caminho_47" data-name="Caminho 47" d="M1365.058,185.224a3.09,3.09,0,0,1-.862.758,7.813,7.813,0,0,0-2.7,3.444c-.4,1-.468,2.366.452,2.921a2.726,2.726,0,0,0,2.046.037,1.751,1.751,0,0,1-.432-3.474,2.247,2.247,0,0,0,.455,2.275,1.27,1.27,0,0,0,2.008-.4c.219-.762-.5-1.451-1.16-1.886a3.01,3.01,0,0,1,2.726,2.049,1.744,1.744,0,0,0-.857-2.323,5.056,5.056,0,0,0-2.736-.3,1.7,1.7,0,0,1,1.679-.948,3.256,3.256,0,0,1,1.844.835,6.645,6.645,0,0,1-1.222-2.868c-.031-.368,0-.741-.065-1.1a4.277,4.277,0,0,0-1.99-2.569C1364.739,182.661,1365.774,184.061,1365.058,185.224Z" transform="translate(-1315.69 -165.683)" fill="#ddd5ca"/>
              <path id="Caminho_48" data-name="Caminho 48" d="M1337.028,220.175c-2.646.223-5.677.673-7.084,2.924a8.622,8.622,0,0,0-.982,3.507l-.739,5.627a1.786,1.786,0,0,0,.035.9c.5,1.234,2.55.125,3.671.841a.808.808,0,0,0-.742,1.206,1.526,1.526,0,0,0,.406.345,8.078,8.078,0,0,0,4.15,1.752,25.891,25.891,0,0,0,2.828-.39,21.946,21.946,0,0,1,4.01.345,4.9,4.9,0,0,0,3.8-.926c.87-.8,1.243-2.083,2.243-2.712.97-.611,2.521-.652,2.8-1.764a38.092,38.092,0,0,1-17.354,1.811c5.317-1.386,11.445.428,16.144-2.419a.926.926,0,0,0,.519-.606c.053-.472-.526-.712-.893-1.013-1.167-.96-.53-3.187-.963-4.5a8.835,8.835,0,0,0-2.423-3.673C1344.071,219.458,1339.85,219.935,1337.028,220.175Z" transform="translate(-1309.204 -173.196)" fill="#f9d4d4"/>
              <path id="Caminho_49" data-name="Caminho 49" d="M1333.308,225.613c1.131.941,1.3,2.585,1.384,4.053a1.26,1.26,0,0,1-.042.522,1.222,1.222,0,0,1-.81.605,3.41,3.41,0,0,1-1.9.229,1.436,1.436,0,0,1-1.159-1.358c.067-1.061,1.576-1.553,1.7-2.609a5.824,5.824,0,0,0-.264-1.417.853.853,0,0,1,.724-1.031c-.131.043-.274-.035-.411.039C1332.632,225.111,1332.936,225.3,1333.308,225.613Z" transform="translate(-1309.714 -174.111)" fill="#685a5a"/>
              <path id="Caminho_50" data-name="Caminho 50" d="M1345.662,224.268c-.056.918-.841,1.589-1.451,2.278s-1.083,1.765-.5,2.479a1.849,1.849,0,0,0,.861.53,4.92,4.92,0,0,0,2.319.215,2.214,2.214,0,0,0,1.383-.649,1.078,1.078,0,0,0,.038-1.418c-.285-.281-.745-.329-1.025-.616a.819.819,0,0,1-.2-.764c.123-.465.641-.759.726-1.233.1-.578-.541-1.067-1.127-1.034a2.8,2.8,0,0,0-1.538.788" transform="translate(-1312.2 -174.002)" fill="#685a5a"/>
              <path id="Caminho_51" data-name="Caminho 51" d="M1359.038,168.381c-2.317-2.25-4.709-4.553-7.694-5.791s-6.737-1.18-9.122,1a12.879,12.879,0,0,0-2.587,3.9l-2.411,4.818a1.584,1.584,0,0,0-.235.8,1.848,1.848,0,0,0,.624,1.017,5.911,5.911,0,0,1,1.521,3.949c-.006,2.372-1.423,4.487-2.039,6.778a26.306,26.306,0,0,0-.588,4.2c-.7,6.925-2.967,13.6-5.641,20.025a36.752,36.752,0,0,0,6.586-7.4l.385,1.939a3.48,3.48,0,0,0,1.392-2.428,8.769,8.769,0,0,0,1.336,3.868l.718-3.22a4.213,4.213,0,0,0,1.859,3.894,37.008,37.008,0,0,0,3.955,2.227,12.6,12.6,0,0,1,6.06,9.844c1.308-1.533,1.066-3.924.051-5.665a20.662,20.662,0,0,0-4.119-4.39,9.443,9.443,0,0,1-3.241-4.974c-.521-2.938,1.384-5.682,2.341-8.508,1.289-3.8.891-8.068,2.5-11.743.989-2.254,2.676-4.137,3.741-6.356.643-1.338,1.218-2.953,2.62-3.442,2.332-.813,4,1.987,6.184,1.744,2.257-.25.616-1.393-.423-2.4Z" transform="translate(-1309.731 -161.777)" fill="#ddd5ca"/>
              <path id="Caminho_52" data-name="Caminho 52" d="M1329.781,188.118a2.234,2.234,0,0,0,1.535-1.821,12.826,12.826,0,0,1,.554-2.455c.7-1.515,2.646-2.332,2.923-3.977-.692,1.51-2.574,2.11-3.493,3.494-.791,1.193-.77,2.827-1.7,3.912-.377.439-.937.955-.686,1.476a1.745,1.745,0,0,0,.455.473,2.012,2.012,0,0,1,.273.313,1.375,1.375,0,0,1,1.111.313,1.63,1.63,0,0,0-.4,1.251.869.869,0,0,0,.961.735c.49-.113.69-.71.688-1.213a.879.879,0,0,1,.213,1.03,2.086,2.086,0,0,1-.749.831,7.369,7.369,0,0,1-.626.4,2.074,2.074,0,0,0,.37.458c-.223-.206,2.36-2.1,2.319-2.718C1333.432,189.3,1330.822,188.326,1329.781,188.118Z" transform="translate(-1309.335 -165.328)" fill="#ddd5ca"/>
            </g>
          </g>
          <g id="Grupo_129" data-name="Grupo 129" transform="translate(799.012 331.938)">
            <path id="Caminho_92" data-name="Caminho 92" d="M574.081,104.236l.782.142a13.4,13.4,0,0,0-4.266,1.371l.767.006A8.94,8.94,0,0,0,566.9,110.3a6.593,6.593,0,0,1-1.568,2.4,2.9,2.9,0,0,1,1.926-1.228,13.863,13.863,0,0,0,2.28-.559c-1.727.523-3.56,1.115-4.7,2.517a10.666,10.666,0,0,0-1.284,2.364,62.067,62.067,0,0,1-3.428,6.218l-1.992,3.31q2.863,1.348,5.778,2.582a27.928,27.928,0,0,0,5.663,1.893,10.61,10.61,0,0,0,5.889-.4,1.456,1.456,0,0,0,.7-.48,1.714,1.714,0,0,0,.025-1.357,14.731,14.731,0,0,1-.151-6.342,25.188,25.188,0,0,0,.629-3.3c.082-1.364-.242-2.78.2-4.074a6.429,6.429,0,0,1,2.314-2.79A4.405,4.405,0,0,0,580.27,110a3.544,3.544,0,0,0,.395-1.03,3.2,3.2,0,0,0-1.323-3.84A8.572,8.572,0,0,0,574.081,104.236Z" transform="translate(-518.854 -99.646)" fill="#ad4602"/>
            <path id="Caminho_93" data-name="Caminho 93" d="M585.372,100.2a2.139,2.139,0,0,1,2.116-3.48l-.321,2.277a.547.547,0,0,0,0,.244c.089.281.538.222.719-.01s.219-.549.382-.795.581-.372.729-.118l-.407,1.492a.588.588,0,0,0-.019.37c.159.4.755.045.961-.329s.716-.8.963-.452c.45.517-.725,1.374-.274,1.89.259.3.748.076,1.037-.192s.645-.6,1.016-.468c.082.363-.206.69-.4,1s-.263.829.081.974c.23.1.494-.053.742-.016.595.09.491,1.055,0,1.406s-1.157.422-1.58.85c-.595.6-.659,1.587-1.2,2.251,5.137,1.673-1.5,5.09-1.587,1.047-.037-1.779,2.84-2.578,1.974-4.946C589.5,101,586.714,101.744,585.372,100.2Z" transform="translate(-529.518 -96.661)" fill="#f43e3b"/>
            <path id="Caminho_94" data-name="Caminho 94" d="M598.064,109.834a2.56,2.56,0,0,1,.786.594,1.188,1.188,0,0,1,.291.918,3.1,3.1,0,0,0-1.853-.626,9.241,9.241,0,0,0-1.975.209c-.069.013-.147.032-.176.095l2.3.125a2.409,2.409,0,0,1,1.462.405c-1.43.229-2.96-.1-4.3.453a.27.27,0,0,1-.215.026.257.257,0,0,1-.106-.136l-.162-.347a.728.728,0,0,1-.093-.557c.071-.178.266-.267.412-.391.31-.262.413-.7.68-1C595.847,108.76,597.285,109.418,598.064,109.834Z" transform="translate(-533.164 -101.662)" fill="#f4bc9d"/>
            <path id="Caminho_95" data-name="Caminho 95" d="M589.517,108.177a2.8,2.8,0,0,0-1.875-1.065,2.387,2.387,0,0,0-2,.743,3.134,3.134,0,0,1-.441.473c-.35.256-.915.309-1.032.727a3.256,3.256,0,0,1,3.176,1.142.588.588,0,0,1,.14.273c.042.309-.343.489-.654.513a2.813,2.813,0,0,1-2.491-1.2c-.044-.065-.115-.142-.186-.11a.164.164,0,0,0-.07.085,2.91,2.91,0,0,0-.093,2.389,2.216,2.216,0,0,0,1.914,1.338.513.513,0,0,0,.232-.037.462.462,0,0,0,.2-.471c-.017-.181-.086-.356-.091-.537a1.122,1.122,0,0,1,.517-.883,8.58,8.58,0,0,1,.934-.507.773.773,0,0,0,.34-.3c.045-.091.057-.2.107-.285a.728.728,0,0,1,.231-.219c.332-.233,2.569-1.578,2.174-1.911C590.284,108.924,589.782,108.515,589.517,108.177Z" transform="translate(-529.085 -100.827)" fill="#f43e3b"/>
            <path id="Caminho_96" data-name="Caminho 96" d="M590.24,108.718a.586.586,0,0,1,.628.392.709.709,0,0,1-.215.731.9.9,0,0,1-.756.188.694.694,0,0,1-.57-.5.656.656,0,0,1,.364-.657,1.4,1.4,0,0,1,.784-.116" transform="translate(-531.296 -101.47)" fill="#f2e03d"/>
            <path id="Caminho_97" data-name="Caminho 97" d="M590.7,109.43a.192.192,0,0,1,.1.3.258.258,0,0,1-.354.007.267.267,0,0,1-.036-.359.207.207,0,0,1,.332.044" transform="translate(-531.71 -101.713)" fill="#f43e3b"/>
            <path id="Caminho_98" data-name="Caminho 98" d="M550.855,147.4a33.236,33.236,0,0,1-4.971,12.484,23.416,23.416,0,0,1-7.617,7.989,32.378,32.378,0,0,0-4.043,2.356,22.3,22.3,0,0,0-2.205,2.214,27.506,27.506,0,0,1-8.227,5.987c-1.295.614-2.847,1.119-4.116.452a8.7,8.7,0,0,1-1.647-1.42c-2.943-2.663-7.97-2.1-10.621-5.052-1.485-1.655-1.948-4.169-3.775-5.435-.913-.633-2.24-1.1-2.311-2.207a3.7,3.7,0,0,0-.019-1.137,1.513,1.513,0,0,0-.815-.692,19.82,19.82,0,0,1-4.329-2.63,6.637,6.637,0,0,1-2.417-4.323,7.252,7.252,0,0,0,3.831,3.705A12.977,12.977,0,0,1,493.2,151.7a7.423,7.423,0,0,0,4.492,3.874,9.721,9.721,0,0,1-4.7-9.209,6.162,6.162,0,0,0,5.3,4.005,9.961,9.961,0,0,1-5.26-9.453,8.026,8.026,0,0,0,3.167,2.9,14.143,14.143,0,0,1-2.734-3.218,4.779,4.779,0,0,1-.424-4.074L496,139.308a8.535,8.535,0,0,1-2.959-6.615l2.345,2.074a11.709,11.709,0,0,1-2.251-4.82l2.426,1.371a6.451,6.451,0,0,1-1.507-3.375,1.566,1.566,0,0,1,1.412.495,9.1,9.1,0,0,1-1.543-3.169,1.5,1.5,0,0,1,.048-1.186c.347-.539,1.15-.475,1.759-.278,3.763,1.219,6.133,4.805,8.672,7.839,2.907,3.474,6.5,6.541,10.817,7.919s9.429.806,12.779-2.243c2.7-2.456,4.09-6.267,7.218-8.148a3.7,3.7,0,0,0-.577,3.61,11.274,11.274,0,0,1,2.177-2.84,4.538,4.538,0,0,0-.139,4.134,14.316,14.316,0,0,1,4.977-5.016,6.177,6.177,0,0,0-.52,5.845,14.77,14.77,0,0,1,.94-2.91,4.375,4.375,0,0,0,.608,3.348,12.262,12.262,0,0,0,1-3.411l.588,3.687a32.427,32.427,0,0,1,2.874-8.929c-.821,2.972-1.553,6.453.325,8.9-.56-.729.2-2.387.73-2.874a5.209,5.209,0,0,0,1.136,2.558,13.936,13.936,0,0,1,1.308,3.848A22.515,22.515,0,0,1,550.855,147.4Z" transform="translate(-492.76 -107.436)" fill="#e76100"/>
            <path id="Caminho_99" data-name="Caminho 99" d="M555.648,158.724a12.022,12.022,0,0,1-2.742,8.9,19.417,19.417,0,0,1-7.7,5.512c-1.4.593-2.851,1.071-4.24,1.7-2.148.966-4.155,2.283-6.424,2.911a22.548,22.548,0,0,1-6.871.445c-.7-.026-1.547-.139-1.85-.775a10.074,10.074,0,0,0,4.459-1.139,24.948,24.948,0,0,1-5.716.606,8.379,8.379,0,0,1-5.29-1.972,22.191,22.191,0,0,0,6.532-.461c-.608-.83-1.8-.895-2.825-.921-3.3-.082-7.049-.852-8.683-3.715a11.442,11.442,0,0,0,5.311-.7,16.021,16.021,0,0,1-5.456-1.071,5.439,5.439,0,0,1-3.347-4.155,20.836,20.836,0,0,1,6.135-.181,11.607,11.607,0,0,1-4.381-1.09,3.953,3.953,0,0,1-2.21-3.67l5.932.736a5.734,5.734,0,0,1-4.107-3.495,8.688,8.688,0,0,1,4.767,1.5,9.767,9.767,0,0,1-3.81-2.179c-.6-.559-1.074-1.681-.349-2.073a1.274,1.274,0,0,1,.722-.091c1.573.137,3.073.808,4.651.856,3.03.091,5.609-2.069,8.47-3.069,5.046-1.764,10.567.169,15.913.149a30.1,30.1,0,0,1,4.551.053c.767.114,1.43.487,2.157.647.567.125,1.082-.045,1.57.048C553.524,152.538,555.326,156.26,555.648,158.724Z" transform="translate(-499.773 -118.1)" fill="#ad4602"/>
            <path id="Caminho_100" data-name="Caminho 100" d="M506.937,140.427c-1.049-1.058-2.461-2.113-3.9-1.7a4.618,4.618,0,0,0,2.212,3.69,6.985,6.985,0,0,0-5.794-1.682,3.2,3.2,0,0,0,2.04,2.968l-2.116-1.091a5.509,5.509,0,0,0,2.1,3.976c-.686-.554-1.815-1.062-2.315-.335-.386.561.05,1.306.478,1.835q1.319,1.631,2.712,3.2a2.289,2.289,0,0,0-2.214-.553,4.481,4.481,0,0,0,2.577,3.462c-.752-.436-1.65.62-1.428,1.46a3.375,3.375,0,0,0,1.789,1.8l-.943-.032a3.452,3.452,0,0,0,1.6,2.6.636.636,0,0,0-.947.236,1.428,1.428,0,0,0,.01,1.1,4.154,4.154,0,0,0,1.653,2.138c-.98-.254-1.808.988-1.578,1.973a4.49,4.49,0,0,0,1.883,2.3c-.618-.142-1,.811-.633,1.331a2.411,2.411,0,0,0,1.685.761,2.471,2.471,0,0,0,2.485,4.152c.152-.053.332-.118.462-.023s-.013.375-.129.264a4.683,4.683,0,0,0,2.711-2.4,1.908,1.908,0,0,1-2.1.112c-.583-.469-.235-1.714.5-1.549a1.153,1.153,0,0,1-.909-1.752,1.239,1.239,0,0,1-.984-1.562,1.641,1.641,0,0,1-1.071-2.47,1.463,1.463,0,0,1-.972-2.178,2.7,2.7,0,0,1-.9-1.4c-.083-.559.365-1.22.921-1.119a1.406,1.406,0,0,1-.679-2.389,3.021,3.021,0,0,1-1.071-1.759c-.052-.7.686-1.454,1.31-1.132a2.81,2.81,0,0,1-.907-1.728c0-.666.768-1.32,1.323-.952a2.394,2.394,0,0,1-.678-2.073c.2-.729,1.261-1.17,1.752-.594-.609-.74.215-1.938,1.169-2.034a4.048,4.048,0,0,1,2.609,1.043l-.256-.978a3.345,3.345,0,0,1,2.724.867A78.26,78.26,0,0,0,506.937,140.427Z" transform="translate(-495.26 -113.411)" fill="#f48d47"/>
            <path id="Caminho_101" data-name="Caminho 101" d="M544.063,219.339a.694.694,0,0,0,.359.264.722.722,0,0,0,.462-.113,15.259,15.259,0,0,1,2.622-1.229,3.113,3.113,0,0,1,2.77.365,2.019,2.019,0,0,0-1.487.285l-3,1.442a10.927,10.927,0,0,0,2.566-.253,4.736,4.736,0,0,1,1.842-.21,1.267,1.267,0,0,1,1.118,1.266,1.369,1.369,0,0,0-1.2-.477,4.963,4.963,0,0,0-1.3.347,14.344,14.344,0,0,1-3.638.758,3.568,3.568,0,0,1-2.845-.717c-.733-.737-.909-2.041-1.877-2.417a1.774,1.774,0,0,0-1.781.458,5.228,5.228,0,0,0-1.048,1.617,4.33,4.33,0,0,1,2.847-3.448,1.727,1.727,0,0,0,.764-.376,2.345,2.345,0,0,0,.273-.452,1.1,1.1,0,0,1,.878-.607C542.978,215.834,543.466,218.633,544.063,219.339Z" transform="translate(-510.664 -144.225)" fill="#f4bc9d"/>
            <path id="Caminho_102" data-name="Caminho 102" d="M545.445,220.531a4.828,4.828,0,0,0,.7,1.241,4.553,4.553,0,0,0,2.763,1.294,16.914,16.914,0,0,0,5.9.01,4.563,4.563,0,0,1,1.7-.111,1.323,1.323,0,0,1,1.118,1.129c-1.034-.5-2.228.066-3.306.455a10.968,10.968,0,0,1-6.289.336,10.521,10.521,0,0,0,3.186,1.275c1.035.228,2.279.422,2.725,1.383a8.492,8.492,0,0,0-3.336-.555,30.172,30.172,0,0,1-5.213-.981c-1.017-.254-2.275-.822-2.188-1.866-.075.756-1.078.969-1.835.907s-1.708-.1-2.065.566a3.55,3.55,0,0,1,2.583-2.318,1.532,1.532,0,0,0,.714-.252c.532-.46.014-1.291-.4-1.86a3.752,3.752,0,0,1-.512-3.785c.455-.9,1.556-1.788,2.273-1.106C544.643,216.943,545.045,219.6,545.445,220.531Z" transform="translate(-511.335 -144.309)" fill="#f4bc9d"/>
            <path id="Caminho_103" data-name="Caminho 103" d="M543.069,203.591a5.082,5.082,0,0,1-1.6,3.893c-.363.337-.82.728-.731,1.216.136.748.422,1.378.549,2.127a5.7,5.7,0,0,1,.109,1.833,1.93,1.93,0,0,1-.985,1.473,2.864,2.864,0,0,1-1.71.051,1.872,1.872,0,0,1-.754-.248c-.434-.3-.534-.881-.7-1.38-.6-1.794-2.339-2.9-3.914-3.947s-3.231-2.383-3.462-4.259a6.936,6.936,0,0,0,4.125,1.61,3.111,3.111,0,0,1-1.507-3.536,4.221,4.221,0,0,0,2.225,2.064,4.665,4.665,0,0,1-.373-2.357l2.149,2.89c.082.111.187.233.324.225s.223-.127.291-.239a5.729,5.729,0,0,0,.847-2.9,4.382,4.382,0,0,1,1.028,3.14,5.291,5.291,0,0,0,1.978-4.019,5.147,5.147,0,0,1-.174,3.362,4.646,4.646,0,0,0,2.328-2.715C543.186,202.6,543.036,202.867,543.069,203.591Z" transform="translate(-507.572 -138.393)" fill="#ad4602"/>
            <path id="Caminho_104" data-name="Caminho 104" d="M554.665,159.969a3.688,3.688,0,0,1-2.822,3.148,10.807,10.807,0,0,1-4.488,0,9.925,9.925,0,0,0,3.057,1.732,6.569,6.569,0,0,1-4.465.323,11.858,11.858,0,0,0,3.251,2.431,11.044,11.044,0,0,1-3.331,1.226,3.74,3.74,0,0,1-3.279-.994,4.318,4.318,0,0,0,3.131,2.191,28.546,28.546,0,0,1-6.486.252,9.583,9.583,0,0,1-5.83-2.587,9.424,9.424,0,0,0,3.747,3.27,9.974,9.974,0,0,1-7.515-2.461l2.124,2.552a6.963,6.963,0,0,1-5.713-3.105c1.154,2.6,3.732,4.287,6.379,5.319,6.944,2.706,15.055,1.695,21.542-1.973a15.233,15.233,0,0,0,5.86-5.313,7.882,7.882,0,0,0,.4-7.639,6.364,6.364,0,0,0-6.231-3.13c-.848.112-2.03.826-1.628,1.8C553.548,156.569,554.694,158.962,554.665,159.969Z" transform="translate(-506.044 -120.01)" fill="#f48d47"/>
          </g>
          <g id="Grupo_128" data-name="Grupo 128" transform="translate(705.849 381)">
            <path id="Caminho_79" data-name="Caminho 79" d="M749.357,344.643c-.459,5.164-2.1,9.251-4.532,13.864-2.285,4.34-5,9.681-5.065,14.53-.037,2.746,2.1,4.588,2.092,7.026a2.724,2.724,0,0,1-2.839-.2,7.458,7.458,0,0,0-.1,1c-4.37-2.382-5.267-8.323-4.729-13.139.3-2.718,1.73-5.037,1.576-8.021-.151-2.951.509-6.915-.053-9.725-1.738-8.693-16.351-2.684-21.017-6.385.484-.289.991-.755,1.49-.992-2.063.134-4.236,3.257-5.683,4.771a81.9,81.9,0,0,1-8.6,7.936c-1.787,1.389-6.333,2.539-7.407,4.588-1.3,2.476,1.654,6.7,1.812,9.27.23,3.755,2.181,5.906,2.9,9.24-1.124-.711-3.905-1.06-4.83-1.241-3.108-.609-3.282-2.308-4.473-5.739-2-5.758-3.6-8.162.059-13.2,1.431-1.967,2.878-3.378,3.68-5.8.729-2.2.52-4.576,1.055-6.784,2.8-11.557,21.125-6.471,28.635-5.185,7.133,1.221,14.423,2.257,21.5,3.32C746.181,343.986,749.281,343.887,749.357,344.643Z" transform="translate(-676.272 -297.518)" fill="#e69494"/>
            <path id="Caminho_80" data-name="Caminho 80" d="M727.731,299.9c-1.455-1.785-6.559-1.539-8.8-1.873a34.628,34.628,0,0,0-9.6.066,54.2,54.2,0,0,0-17.726,5.665c-6.247,3.3-10.516,9.617-12.534,16.225a25.569,25.569,0,0,0-.94,12.449c.82,3.943,2.1,6.475.807,10.54-.708,2.225-2.723,4.461-2.665,6.783.047,1.886,1.364,3.439,1.332,5.463-.071,4.37-4.677,7.147-3.959,11.579a9.348,9.348,0,0,1,1.239-.484c.1,1.9,1.61,2.983,2.927,1.318a5.927,5.927,0,0,0,1.119,2.435c4.2-5.1,3.616-13.3,5.853-19.259,1.356-3.615,4-6.725,5.877-10.037.894-1.575,1.945-3.858,3.474-4.678,5.227-2.8,13.593,1.408,19.394,1.132,2.661-.126,2.672-.8,3.792,1.669,1.191,2.625.612,5.068,2.135,7.6a43.877,43.877,0,0,1,5.346,13.288c.626,3.133-.448,6.034-.233,9.16a23.01,23.01,0,0,0,1.851-1.414c.78,1.265,1.044,2.925,1.841,4.314a4.314,4.314,0,0,0,2.891-1.579,9.129,9.129,0,0,0,1.939,1.553c2.032-1.686-1.667-8.151-1.911-10.836-.2-2.181.321-4.307.359-6.432.047-2.635-1.181-4.178-1.964-6.672-.942-3-.409-6.615,2.438-7.911,1.755-.8,4.771-.462,6.668-.621a23.441,23.441,0,0,0,7.174-1.644c5.073-2.02,12.229-7.3,15.071-12.095,2.489-4.2-1.514-11.419,1.781-14.441,1.241-1.138,3.295-1.033,4.549-2.513,1.7-2.006,1.21-4.458,1.32-6.909.2-4.374.622-7.969,3.208-11.69-5.01-4.364-13.351,6.283-15.44,10.321-3.818-3.479-10.735.224-13.835-2.771-2.261-2.184-3.4-4.222-6.516-5.775-2.663-1.329-6.026-1.84-8.29-3.858C727.834,291.96,727.712,295.958,727.731,299.9Z" transform="translate(-673.575 -287.971)" fill="#fda4a5"/>
            <path id="Caminho_81" data-name="Caminho 81" d="M782.857,308.4c.039-.5,0-1.018,0-1.519-.081,1.081-.293.762-.761,1.512.422-2.911-1.2-3.581-1.977-6.066-.58-1.862.367-4.028,1.269-5.66,1.879-3.4,5.437-6.316,9.432-6.082-3.95,5.368.885,16.548-7.435,18.856-.158-.333-.731-1.277-.729-1.272C782.846,308.4,783.091,308.569,782.857,308.4Z" transform="translate(-693.776 -288.464)" fill="#f4d4d6"/>
            <path id="Caminho_82" data-name="Caminho 82" d="M751.589,304.522c-.348-1.191.479-3.083.135-4.668a9.69,9.69,0,0,0-2.6-4.063,18.123,18.123,0,0,0-6.825-4.563c-.245,3.646-1.494,9.843.257,13.405,1.832,3.729,8.2,5.074,7.741-.6C751.1,304.115,751.181,303.61,751.589,304.522Z" transform="translate(-686.501 -288.589)" fill="#f4d4d6"/>
            <path id="Caminho_83" data-name="Caminho 83" d="M772.891,316.556a5.6,5.6,0,0,1,2.133-3.225,5.455,5.455,0,0,1,2.4,4.691c-.122,3.32-1,1.359-2.6,1.66-5.142.97,1.153,4.934,1.492,7.231-1.9-.079-3.38-1.237-5.431-.495-1.816.656-2.879,3.082-4.893,2.9-.345-1.846.093-5.765-1.237-7.167-1.525-1.608-4.485-.181-6.265-1.454-2.213-1.585-1.817-4.332-.327-6.289,2.529-3.321,4.213-1.736,7.123.144C768.966,316.927,770.411,315.659,772.891,316.556Z" transform="translate(-689.409 -292.625)" fill="#ffadb0"/>
            <path id="Caminho_84" data-name="Caminho 84" d="M698.784,333.967c1.482,4.6-.61,7.175-2.16,11.09,3.749-4.134,12.316-2.54,16.742-.459-2.35-1.863-5.048-3.144-7.385-5.025a48.476,48.476,0,0,0-6.584-4.819C699.726,334.766,700.055,334.753,698.784,333.967Z" transform="translate(-677.953 -296.706)" fill="#e69494"/>
            <path id="Caminho_85" data-name="Caminho 85" d="M766.831,331.78c-.223-2.033,2.2-3.8,3.9-4.255a7.584,7.584,0,0,1,6.441,1.026,3.769,3.769,0,0,1,1.477,2.365,3.553,3.553,0,0,1-1.367,2.887,5.343,5.343,0,0,1-3.951,1.586,36.883,36.883,0,0,0-3.816-.054,2.507,2.507,0,0,1-2.778-1.188C766.445,333.581,766.528,331.252,766.831,331.78Z" transform="translate(-691.234 -295.429)" fill="#f4d4d6"/>
            <path id="Caminho_86" data-name="Caminho 86" d="M778.234,331.692c1.563.6-1.778,3.57-1.751,1.2C776.492,332.066,778.391,330.808,778.234,331.692Z" transform="translate(-693.119 -296.217)" fill="#e69494"/>
            <path id="Caminho_87" data-name="Caminho 87" d="M771.391,330.989c1.727.014.251,3.154-.986,2.751-1.291-.421-1-2.161-.021-2.642a2.218,2.218,0,0,1,.788-.246C771.578,330.851,771.636,331.194,771.391,330.989Z" transform="translate(-691.801 -296.115)" fill="#e69494"/>
            <path id="Caminho_88" data-name="Caminho 88" d="M778.815,318.4c.236-.671,1.248-2.766,1.943-1.293.288.611.283,2.689-.886,2.35a2.5,2.5,0,0,1-.979-.962C778.907,318.532,778.923,318.57,778.815,318.4Z" transform="translate(-693.562 -293.406)" fill="#423f3c"/>
            <path id="Caminho_89" data-name="Caminho 89" d="M759.609,315.983c.7.159.736,1.07.632,1.625-.122.654-.526.808-1.149.868-1.353.13-1.7-1.384-.795-2.252A1.257,1.257,0,0,1,759.609,315.983Z" transform="translate(-689.57 -293.275)" fill="#423f3c"/>
            <path id="Caminho_90" data-name="Caminho 90" d="M702.164,307.9c1.394-3.628,8.8-4.492,11.982-4.652,4.709-.237,11.111-1.322,15.522.663,5.069,2.281-1.018,4.575-3.235,6.618-4.038,3.717-8.18,6.729-14.05,5-3.088-.907-4.771-3.338-7.388-4.857-.654-.381-2.024-.374-2.386-1.2C702.18,308.5,702.8,307.658,702.164,307.9Z" transform="translate(-679.005 -290.775)" fill="#ffadb0"/>
            <path id="Caminho_91" data-name="Caminho 91" d="M689.888,318.723a68.8,68.8,0,0,1,1.262,7.689,12.381,12.381,0,0,1-.7,6.012c-1.341,3.442-4.26,5.449-6.679,7.942-1.358,1.4-1.551,1.362-2.427-.661a17.18,17.18,0,0,1-1.171-5.428,19.691,19.691,0,0,1,3.142-12.016C684.385,320.587,688.811,316.819,689.888,318.723Z" transform="translate(-674.819 -293.711)" fill="#ffadb0"/>
          </g>
          <g id="Grupo_85" data-name="Grupo 85" transform="translate(158)">
            <rect id="Retângulo_134" data-name="Retângulo 134" width="144" height="36" rx="6" transform="translate(453 454)" fill="#fff"/>
            <path id="Caminho_1379" data-name="Caminho 1379" d="M17.8,13.441h1a3.317,3.317,0,0,0,2.09-.552,1.931,1.931,0,0,0,.693-1.606A1.98,1.98,0,0,0,21,9.711,2.723,2.723,0,0,0,19.18,9.2H17.8Zm6.836-2.266A4.364,4.364,0,0,1,23.2,14.7a6.161,6.161,0,0,1-4.1,1.221H17.8V21H14.775V6.723h4.561a6.066,6.066,0,0,1,3.95,1.118A4.077,4.077,0,0,1,24.639,11.176ZM35.557,21H27.334V6.723h8.223V9.2h-5.2v3.135H35.2v2.48H30.361V18.5h5.2ZM44.6,9.037a3.085,3.085,0,0,0-2.646,1.284,5.974,5.974,0,0,0-.937,3.579q0,4.775,3.584,4.775a11.329,11.329,0,0,0,3.643-.752v2.539a10.116,10.116,0,0,1-3.926.732,5.987,5.987,0,0,1-4.766-1.89,8,8,0,0,1-1.65-5.425,8.858,8.858,0,0,1,.811-3.9A5.858,5.858,0,0,1,41.04,7.411a6.89,6.89,0,0,1,3.56-.894,9.607,9.607,0,0,1,4.18,1.006L47.8,9.984a16.165,16.165,0,0,0-1.611-.664A4.807,4.807,0,0,0,44.6,9.037ZM62.9,6.723v9.238a5.326,5.326,0,0,1-.708,2.773,4.608,4.608,0,0,1-2.046,1.826,7.317,7.317,0,0,1-3.164.635,6.058,6.058,0,0,1-4.277-1.411,5.006,5.006,0,0,1-1.523-3.862v-9.2H54.2v8.74a3.661,3.661,0,0,0,.664,2.422,2.761,2.761,0,0,0,2.2.771,2.7,2.7,0,0,0,2.153-.776,3.68,3.68,0,0,0,.669-2.437V6.723ZM75.137,21,74.1,17.6H68.9L67.861,21H64.6L69.639,6.664h3.7L78.4,21Zm-1.758-5.937q-1.436-4.619-1.616-5.225T71.5,8.881q-.322,1.25-1.846,6.182Zm-3.5-9.482V5.316a27.494,27.494,0,0,0,2.295-2.939h3.34v.205q-.508.508-1.733,1.509T71.865,5.58Zm13.34,7.48H84.2a3.736,3.736,0,0,0,2.119-.479,1.708,1.708,0,0,0,.684-1.5,1.562,1.562,0,0,0-.7-1.445,4.237,4.237,0,0,0-2.163-.43h-.918Zm0,2.461V21H80.2V6.723h4.16a7.12,7.12,0,0,1,4.307,1.06A3.782,3.782,0,0,1,90.059,11a3.788,3.788,0,0,1-.693,2.241A4.588,4.588,0,0,1,87.4,14.779Q90.625,19.594,91.6,21H88.242l-3.408-5.479ZM93.4,21V6.723h3.027V21Zm15.361,0-1.035-3.4H102.52L101.484,21H98.223l5.039-14.336h3.7L112.021,21ZM107,15.063q-1.436-4.619-1.616-5.225t-.259-.957q-.322,1.25-1.846,6.182Z" transform="translate(463 459)" fill="#2a9881"/>
          </g>
        </g>
      </g>
      <path id="Caminho_1378" data-name="Caminho 1378" d="M32.124,15.768V20.3h7.2a.509.509,0,0,1,.576.576v4.176a.509.509,0,0,1-.576.576h-7.2v5.04h8.532a.509.509,0,0,1,.576.576v4.176a.509.509,0,0,1-.576.576H25.464a.509.509,0,0,1-.576-.576V11.016a.509.509,0,0,1,.576-.576H40.656a.509.509,0,0,1,.576.576v4.176a.509.509,0,0,1-.576.576ZM67.4,18.36A8.9,8.9,0,0,1,70,18.72a5.128,5.128,0,0,1,2.052,1.17,5.472,5.472,0,0,1,1.35,2.088,8.675,8.675,0,0,1,.486,3.078V35.424a.509.509,0,0,1-.576.576H67.3a.509.509,0,0,1-.576-.576l.036-10.116a2.136,2.136,0,0,0-.54-1.6,1.888,1.888,0,0,0-1.368-.522,1.908,1.908,0,0,0-1.458.594,2.3,2.3,0,0,0-.558,1.638V35.424a.509.509,0,0,1-.576.576H56.28a.509.509,0,0,1-.576-.576V25.308a2.136,2.136,0,0,0-.54-1.6,1.888,1.888,0,0,0-1.368-.522,1.851,1.851,0,0,0-1.44.594,2.345,2.345,0,0,0-.54,1.638V35.424A.509.509,0,0,1,51.24,36H45.228a.509.509,0,0,1-.576-.576V19.3a.509.509,0,0,1,.576-.576h5.4a.509.509,0,0,1,.576.576v2.088a5.219,5.219,0,0,1,2.214-2.3,6.576,6.576,0,0,1,3.078-.72,7.7,7.7,0,0,1,3.348.7,4.8,4.8,0,0,1,2.268,2.322A5.337,5.337,0,0,1,64.344,19.1,6.476,6.476,0,0,1,67.4,18.36Zm13.9-1.98a4.065,4.065,0,0,1-3.006-1.062,3.505,3.505,0,0,1-1.062-2.574,3.548,3.548,0,0,1,1.062-2.61,4.785,4.785,0,0,1,6.012,0,3.548,3.548,0,0,1,1.062,2.61,3.505,3.505,0,0,1-1.062,2.574A4.065,4.065,0,0,1,81.3,16.38ZM78.312,36a.509.509,0,0,1-.576-.576V19.3a.509.509,0,0,1,.576-.576h6.012a.509.509,0,0,1,.576.576V35.424a.509.509,0,0,1-.576.576Zm16.74.288A20.453,20.453,0,0,1,91.65,36a12.315,12.315,0,0,1-2.862-.792.675.675,0,0,1-.432-.684v-4.14q0-.4.216-.4a.615.615,0,0,1,.288.108,11.619,11.619,0,0,0,2.916,1.044,13.578,13.578,0,0,0,2.916.36,2.476,2.476,0,0,0,1.134-.216.7.7,0,0,0-.108-1.314q-.522-.2-2-.594a17.7,17.7,0,0,1-2.322-.738,6.351,6.351,0,0,1-1.764-1.044A4.351,4.351,0,0,1,88.5,26.118a4.767,4.767,0,0,1-.4-2.034,4.611,4.611,0,0,1,.666-2.5,5.675,5.675,0,0,1,1.8-1.782,8.6,8.6,0,0,1,2.682-1.08,14.764,14.764,0,0,1,3.348-.36,21.094,21.094,0,0,1,2.718.18,14.986,14.986,0,0,1,2.538.54.554.554,0,0,1,.432.612v3.852q0,.288-.252.288a.618.618,0,0,1-.252-.036,13.575,13.575,0,0,0-2.2-.612,11.828,11.828,0,0,0-2.3-.252q-1.872,0-1.872.9a.661.661,0,0,0,.522.648q.522.18,1.962.576a21.443,21.443,0,0,1,2.2.72,6.326,6.326,0,0,1,1.728.99,4.094,4.094,0,0,1,1.116,1.44,4.767,4.767,0,0,1,.4,2.034,5.258,5.258,0,0,1-.576,2.448,5.525,5.525,0,0,1-1.638,1.908,8.134,8.134,0,0,1-2.592,1.242A12.316,12.316,0,0,1,95.052,36.288Zm17.568,0a20.453,20.453,0,0,1-3.4-.288,12.315,12.315,0,0,1-2.862-.792.675.675,0,0,1-.432-.684v-4.14q0-.4.216-.4a.615.615,0,0,1,.288.108,11.619,11.619,0,0,0,2.916,1.044,13.578,13.578,0,0,0,2.916.36,2.476,2.476,0,0,0,1.134-.216.7.7,0,0,0-.108-1.314q-.522-.2-2-.594a17.7,17.7,0,0,1-2.322-.738,6.351,6.351,0,0,1-1.764-1.044,4.351,4.351,0,0,1-1.134-1.476,4.767,4.767,0,0,1-.4-2.034,4.611,4.611,0,0,1,.666-2.5,5.675,5.675,0,0,1,1.8-1.782,8.6,8.6,0,0,1,2.682-1.08,14.764,14.764,0,0,1,3.348-.36,21.094,21.094,0,0,1,2.718.18,14.986,14.986,0,0,1,2.538.54.554.554,0,0,1,.432.612v3.852q0,.288-.252.288a.618.618,0,0,1-.252-.036,13.575,13.575,0,0,0-2.2-.612,11.828,11.828,0,0,0-2.3-.252q-1.872,0-1.872.9a.661.661,0,0,0,.522.648q.522.18,1.962.576a21.443,21.443,0,0,1,2.2.72,6.326,6.326,0,0,1,1.728.99,4.094,4.094,0,0,1,1.116,1.44,4.767,4.767,0,0,1,.4,2.034,5.258,5.258,0,0,1-.576,2.448,5.525,5.525,0,0,1-1.638,1.908,8.134,8.134,0,0,1-2.592,1.242A12.316,12.316,0,0,1,112.62,36.288Zm20.088.072a10.128,10.128,0,0,1-3.78-.7,9.76,9.76,0,0,1-3.078-1.926,9.246,9.246,0,0,1-2.088-2.88,8.312,8.312,0,0,1-.774-3.564,8.194,8.194,0,0,1,.774-3.546,8.884,8.884,0,0,1,2.088-2.826,9.847,9.847,0,0,1,3.078-1.872,10.737,10.737,0,0,1,7.542,0,9.8,9.8,0,0,1,3.1,1.872,8.885,8.885,0,0,1,2.088,2.826,8.194,8.194,0,0,1,.774,3.546,8.655,8.655,0,0,1-.738,3.564,8.9,8.9,0,0,1-2.034,2.88,9.5,9.5,0,0,1-3.078,1.926A10.466,10.466,0,0,1,132.708,36.36Zm.036-5.616a3.191,3.191,0,0,0,2.322-.936,3.277,3.277,0,0,0,.954-2.448,3.231,3.231,0,0,0-.972-2.466,3.286,3.286,0,0,0-2.34-.918,3.252,3.252,0,0,0-2.34.936,3.2,3.2,0,0,0-.972,2.412,3.258,3.258,0,0,0,.99,2.484A3.314,3.314,0,0,0,132.744,30.744ZM135.3,16.236a3.355,3.355,0,0,1-1.584-.378q-.72-.378-1.332-.774-.5-.36-.954-.648a1.685,1.685,0,0,0-.918-.288q-1.08,0-1.3,1.548a.8.8,0,0,1-.108.288q-.072.108-.324.108h-2.592a.35.35,0,0,1-.4-.4,10.2,10.2,0,0,1,.324-2.286,6.581,6.581,0,0,1,.81-1.908,4.174,4.174,0,0,1,1.3-1.3,3.416,3.416,0,0,1,1.854-.486,3.568,3.568,0,0,1,1.818.468q.81.468,1.458.9.5.324.882.558a1.4,1.4,0,0,0,.738.234q.972,0,1.08-1.548a.8.8,0,0,1,.108-.288q.072-.108.324-.108h2.736a.35.35,0,0,1,.4.4,10.458,10.458,0,0,1-.378,2.286,6.392,6.392,0,0,1-.864,1.872,4.346,4.346,0,0,1-1.332,1.278A3.308,3.308,0,0,1,135.3,16.236Zm27.36,10.44a3.227,3.227,0,0,1-.288,1.728,1.491,1.491,0,0,1-1.188.36h-9.792a3.6,3.6,0,0,0,1.638,1.764,5.982,5.982,0,0,0,2.862.612,14.834,14.834,0,0,0,1.908-.126,13.156,13.156,0,0,0,1.764-.342,12.5,12.5,0,0,0,1.368-.468,2.178,2.178,0,0,1,.72-.216q.36,0,.36.5v3.492a1.116,1.116,0,0,1-.09.432.8.8,0,0,1-.306.36,10.913,10.913,0,0,1-3.024,1.08,17.88,17.88,0,0,1-3.96.432,12.244,12.244,0,0,1-4.032-.648,9.738,9.738,0,0,1-3.24-1.836,8.746,8.746,0,0,1-2.16-2.826,8.284,8.284,0,0,1-.792-3.654,8.485,8.485,0,0,1,.792-3.708,8.725,8.725,0,0,1,2.124-2.826,9.459,9.459,0,0,1,3.1-1.8,10.836,10.836,0,0,1,3.672-.63,10.516,10.516,0,0,1,3.168.486,7.969,7.969,0,0,1,2.754,1.494,7.229,7.229,0,0,1,1.926,2.574A8.954,8.954,0,0,1,162.66,26.676Zm-8.6-3.816a2.608,2.608,0,0,0-1.782.648,3.624,3.624,0,0,0-1.062,1.764h5.472a3.5,3.5,0,0,0-.828-1.674A2.27,2.27,0,0,0,154.056,22.86Zm17.856,13.428a20.453,20.453,0,0,1-3.4-.288,12.315,12.315,0,0,1-2.862-.792.675.675,0,0,1-.432-.684v-4.14q0-.4.216-.4a.616.616,0,0,1,.288.108,11.619,11.619,0,0,0,2.916,1.044,13.578,13.578,0,0,0,2.916.36,2.476,2.476,0,0,0,1.134-.216.7.7,0,0,0-.108-1.314q-.522-.2-2-.594a17.7,17.7,0,0,1-2.322-.738,6.351,6.351,0,0,1-1.764-1.044,4.351,4.351,0,0,1-1.134-1.476,4.767,4.767,0,0,1-.4-2.034,4.611,4.611,0,0,1,.666-2.5,5.675,5.675,0,0,1,1.8-1.782,8.6,8.6,0,0,1,2.682-1.08,14.764,14.764,0,0,1,3.348-.36,21.094,21.094,0,0,1,2.718.18,14.986,14.986,0,0,1,2.538.54.554.554,0,0,1,.432.612v3.852q0,.288-.252.288a.618.618,0,0,1-.252-.036,13.576,13.576,0,0,0-2.2-.612,11.828,11.828,0,0,0-2.3-.252q-1.872,0-1.872.9a.661.661,0,0,0,.522.648q.522.18,1.962.576a21.442,21.442,0,0,1,2.2.72,6.326,6.326,0,0,1,1.728.99,4.094,4.094,0,0,1,1.116,1.44,4.767,4.767,0,0,1,.4,2.034,5.258,5.258,0,0,1-.576,2.448,5.525,5.525,0,0,1-1.638,1.908,8.134,8.134,0,0,1-2.592,1.242A12.316,12.316,0,0,1,171.912,36.288Z" transform="translate(581 136)" fill="#fff"/>
      <path id="Caminho_1377" data-name="Caminho 1377" d="M250.48,60.54a19.937,19.937,0,0,1-6.57-1.05,14.188,14.188,0,0,1-5.25-3.18,14.381,14.381,0,0,1-3.45-5.37,21.438,21.438,0,0,1-1.23-7.62V18.12q0-.78.84-.78h7.08q.78,0,.78.84v25.8q0,4.68,2.28,6.93a8.887,8.887,0,0,0,11.82,0q2.28-2.25,2.28-6.93V18.12q0-.78.84-.78h7.02q.78,0,.78.84V43.32a20.537,20.537,0,0,1-1.29,7.62,14.434,14.434,0,0,1-3.6,5.37,14.888,14.888,0,0,1-5.46,3.18A21.607,21.607,0,0,1,250.48,60.54Zm34.38,0a28.113,28.113,0,0,1-5.22-.51,18.031,18.031,0,0,1-4.44-1.35.9.9,0,0,1-.54-.9V52.2q0-.6.3-.6a.921.921,0,0,1,.36.12,22.581,22.581,0,0,0,4.59,1.62,20.592,20.592,0,0,0,4.83.6,6.608,6.608,0,0,0,3.21-.63,1.951,1.951,0,0,0,1.11-1.77,1.7,1.7,0,0,0-.33-1.08,2.817,2.817,0,0,0-1.02-.75,12.6,12.6,0,0,0-1.8-.66q-1.11-.33-2.67-.75a26.14,26.14,0,0,1-3.54-1.26,11.587,11.587,0,0,1-2.82-1.74,7.2,7.2,0,0,1-1.86-2.4,8.347,8.347,0,0,1,.3-7.14,8.45,8.45,0,0,1,2.64-2.82,12.732,12.732,0,0,1,4.02-1.74,20.242,20.242,0,0,1,5.04-.6,26.966,26.966,0,0,1,4.44.36,20.508,20.508,0,0,1,3.9,1.02.786.786,0,0,1,.54.84V38.1q0,.54-.36.54a1.133,1.133,0,0,1-.36-.06,23.64,23.64,0,0,0-3.87-1.11,19.734,19.734,0,0,0-3.93-.45,6.86,6.86,0,0,0-3.24.6,1.811,1.811,0,0,0-1.08,1.62,1.714,1.714,0,0,0,1.29,1.68q1.29.48,3.81,1.32a35.738,35.738,0,0,1,3.66,1.2,11.043,11.043,0,0,1,2.91,1.65,6.99,6.99,0,0,1,1.92,2.4,7.8,7.8,0,0,1,.69,3.45,8.426,8.426,0,0,1-3.33,6.99Q290.68,60.54,284.86,60.54Zm32.58.06a15.314,15.314,0,0,1-6.06-1.2,15.945,15.945,0,0,1-4.92-3.24,14.9,14.9,0,0,1-3.3-4.8,14.587,14.587,0,0,1-1.2-5.88,14.376,14.376,0,0,1,1.2-5.85,14.647,14.647,0,0,1,3.3-4.74,15.362,15.362,0,0,1,4.92-3.15,16.677,16.677,0,0,1,12.12,0,15.362,15.362,0,0,1,4.92,3.15,14.647,14.647,0,0,1,3.3,4.74,14.376,14.376,0,0,1,1.2,5.85,15.405,15.405,0,0,1-1.14,5.94,14.356,14.356,0,0,1-3.21,4.8,15.082,15.082,0,0,1-4.92,3.21A16.2,16.2,0,0,1,317.44,60.6Zm0-7.44a7.762,7.762,0,0,0,2.91-.54,7.213,7.213,0,0,0,2.37-1.53,7.339,7.339,0,0,0,1.62-2.37,7.752,7.752,0,0,0,.6-3.12,7.209,7.209,0,0,0-2.16-5.55,7.542,7.542,0,0,0-5.34-2.01,8,8,0,0,0-2.94.54,7.39,7.39,0,0,0-2.4,1.5,6.931,6.931,0,0,0-1.62,2.37,7.811,7.811,0,0,0-.6,3.09,7.616,7.616,0,0,0,2.28,5.55,7.14,7.14,0,0,0,2.4,1.53A7.834,7.834,0,0,0,317.44,53.16Zm63.24-37.98q.78,0,.78.84v43.2q0,.78-.84.78h-6.6q-.78,0-.78-.84v-3.9a8.847,8.847,0,0,1-1.77,2.37,10.1,10.1,0,0,1-2.34,1.65,10.87,10.87,0,0,1-2.7.96,13.378,13.378,0,0,1-2.79.3,13.648,13.648,0,0,1-9.84-4.14,15.309,15.309,0,0,1-3.09-4.74,15.528,15.528,0,0,1-1.17-6.12,16.264,16.264,0,0,1,1.11-6.12A13.95,13.95,0,0,1,363.7,30.6a14.808,14.808,0,0,1,2.79.27,10.99,10.99,0,0,1,2.67.87,9.393,9.393,0,0,1,2.31,1.56,8.392,8.392,0,0,1,1.77,2.34V15.96q0-.78.84-.78ZM365.8,53.1a8,8,0,0,0,2.94-.54,7.14,7.14,0,0,0,2.4-1.53,7.339,7.339,0,0,0,1.62-2.37,8.412,8.412,0,0,0,0-6.24,7.339,7.339,0,0,0-1.62-2.37,6.774,6.774,0,0,0-2.4-1.5,8.413,8.413,0,0,0-2.94-.51,8.162,8.162,0,0,0-3,.54,7.39,7.39,0,0,0-2.4,1.5,6.931,6.931,0,0,0-1.62,2.37,8.334,8.334,0,0,0,0,6.21,7.115,7.115,0,0,0,1.65,2.37,7.476,7.476,0,0,0,2.43,1.53A8,8,0,0,0,365.8,53.1Zm52.74-21.9q.78,0,.78.84V59.22q0,.78-.84.78h-6.66q-.78,0-.78-.84v-3.9a8.357,8.357,0,0,1-3.99,4.05,12.725,12.725,0,0,1-5.49,1.23,13.7,13.7,0,0,1-5.34-1.08,14.075,14.075,0,0,1-4.56-3.06,14.772,14.772,0,0,1-3.15-4.74,16.591,16.591,0,0,1,0-12.24,14.67,14.67,0,0,1,3.12-4.71,14.061,14.061,0,0,1,9.93-4.11,13.5,13.5,0,0,1,5.52,1.14,7.982,7.982,0,0,1,3.96,3.9V31.98q0-.78.84-.78ZM403.6,53.1a8,8,0,0,0,2.94-.54,7.14,7.14,0,0,0,2.4-1.53,7.339,7.339,0,0,0,1.62-2.37,7.751,7.751,0,0,0,.6-3.12,8.108,8.108,0,0,0-.57-3.12A6.964,6.964,0,0,0,409,40.05a6.774,6.774,0,0,0-2.4-1.5,8.589,8.589,0,0,0-3-.51,8.233,8.233,0,0,0-2.97.54,7.32,7.32,0,0,0-2.43,1.5,6.931,6.931,0,0,0-1.62,2.37,7.811,7.811,0,0,0-.6,3.09,7.431,7.431,0,0,0,.63,3.12,7.746,7.746,0,0,0,1.65,2.37,7.14,7.14,0,0,0,2.4,1.53A8,8,0,0,0,403.6,53.1Zm52.44.36a3.282,3.282,0,0,1,.72-.12q1.02,0,1.02,1.44v3.84A1.025,1.025,0,0,1,457,59.7a16.315,16.315,0,0,1-3.03.69,23.172,23.172,0,0,1-3.03.21q-4.98,0-7.38-2.52t-2.4-7.92V37.08h-4.14q-.78,0-.78-.84V31.98q0-.78.84-.78h4.08V22.74q0-.78.84-.78h6.72q.78,0,.78.84v8.4h7.26q.78,0,.78.84V36.3q0,.78-.84.78h-7.2v12q0,4.62,4.14,4.62a11.783,11.783,0,0,0,1.23-.06Q455.44,53.58,456.04,53.46Zm32.64-9.42a13.426,13.426,0,0,1-.09,1.74,2.2,2.2,0,0,1-.33.99,1.06,1.06,0,0,1-.66.42,5.31,5.31,0,0,1-1.08.09H469a7.373,7.373,0,0,0,2.94,4.62,9.921,9.921,0,0,0,5.88,1.62,20.567,20.567,0,0,0,3-.24,25.327,25.327,0,0,0,3.12-.66,16.582,16.582,0,0,0,2.31-.93,3.3,3.3,0,0,1,1.23-.45q.48,0,.48.72V56.7a1.4,1.4,0,0,1-.66,1.26,16.376,16.376,0,0,1-4.8,1.83,26.172,26.172,0,0,1-6,.69,17.631,17.631,0,0,1-6.24-1.08,14.679,14.679,0,0,1-4.98-3.06,14.31,14.31,0,0,1-3.3-4.71,14.977,14.977,0,0,1-1.2-6.09,15.37,15.37,0,0,1,1.17-6.06,14.224,14.224,0,0,1,7.95-7.8,15.364,15.364,0,0,1,5.76-1.08,15.018,15.018,0,0,1,4.89.81,11.7,11.7,0,0,1,4.17,2.46,11.941,11.941,0,0,1,2.88,4.17A15.169,15.169,0,0,1,488.68,44.04ZM475.6,37.02a6.434,6.434,0,0,0-4.05,1.32,7.121,7.121,0,0,0-2.43,3.72h12.54a5.806,5.806,0,0,0-1.92-3.57A5.924,5.924,0,0,0,475.6,37.02Zm36.96-6.42q.78,0,.78.84v7.14q0,.72-.84.72a12.114,12.114,0,0,0-3.84.66,7.8,7.8,0,0,0-4.2,3.36,12.036,12.036,0,0,0-1.62,6.6v9.3q0,.78-.84.78h-6.78q-.78,0-.78-.84V31.98q0-.78.84-.78h6.48q.78,0,.78.84v7.44Q505,31.08,512.56,30.6Zm23.82,0q.78,0,.78.84v7.14q0,.72-.84.72a12.114,12.114,0,0,0-3.84.66,7.8,7.8,0,0,0-4.2,3.36,12.036,12.036,0,0,0-1.62,6.6v9.3q0,.78-.84.78h-6.78q-.78,0-.78-.84V31.98q0-.78.84-.78h6.48q.78,0,.78.84v7.44Q528.82,31.08,536.38,30.6Zm34.8.6q.78,0,.78.84V59.22q0,.78-.84.78h-6.66q-.78,0-.78-.84v-3.9a8.357,8.357,0,0,1-3.99,4.05,12.725,12.725,0,0,1-5.49,1.23,13.7,13.7,0,0,1-5.34-1.08,14.076,14.076,0,0,1-4.56-3.06,14.772,14.772,0,0,1-3.15-4.74,16.591,16.591,0,0,1,0-12.24,14.67,14.67,0,0,1,3.12-4.71,14.061,14.061,0,0,1,9.93-4.11,13.5,13.5,0,0,1,5.52,1.14,7.982,7.982,0,0,1,3.96,3.9V31.98q0-.78.84-.78ZM556.24,53.1a8,8,0,0,0,2.94-.54,7.14,7.14,0,0,0,2.4-1.53,7.34,7.34,0,0,0,1.62-2.37,7.752,7.752,0,0,0,.6-3.12,8.108,8.108,0,0,0-.57-3.12,6.963,6.963,0,0,0-1.59-2.37,6.774,6.774,0,0,0-2.4-1.5,8.589,8.589,0,0,0-3-.51,8.233,8.233,0,0,0-2.97.54,7.32,7.32,0,0,0-2.43,1.5,6.931,6.931,0,0,0-1.62,2.37,7.81,7.81,0,0,0-.6,3.09,7.432,7.432,0,0,0,.63,3.12,7.746,7.746,0,0,0,1.65,2.37,7.14,7.14,0,0,0,2.4,1.53A8,8,0,0,0,556.24,53.1Z" transform="translate(280 169)" fill="#fff"/>
      <path id="Caminho_1376" data-name="Caminho 1376" d="M81.748,17.974a16.646,16.646,0,0,1,.833-5.328,13.246,13.246,0,0,1,2.4-4.351h1.214a14.314,14.314,0,0,0-2.438,4.431,16.007,16.007,0,0,0-.849,5.226,15.5,15.5,0,0,0,3.266,9.528H84.981a12.659,12.659,0,0,1-2.406-4.265A16.215,16.215,0,0,1,81.748,17.974ZM93.8,24.215a4.266,4.266,0,0,1-3.932-2.02h-.075l.032.9q.043.795.043,1.74v4.447H88.805V12.323h.9l.2,1.665h.064A4.22,4.22,0,0,1,93.822,12.1a4.341,4.341,0,0,1,3.6,1.552,7.1,7.1,0,0,1,1.241,4.517,6.837,6.837,0,0,1-1.305,4.463A4.368,4.368,0,0,1,93.8,24.215Zm-.021-.945a3.249,3.249,0,0,0,2.777-1.332,6.176,6.176,0,0,0,.983-3.728q0-5.146-3.717-5.146a3.725,3.725,0,0,0-3,1.123,5.618,5.618,0,0,0-.956,3.658v.344a6.431,6.431,0,0,0,.918,3.91A3.573,3.573,0,0,0,93.779,23.27Zm12.837.945a5.088,5.088,0,0,1-3.969-1.568,6.3,6.3,0,0,1-1.423-4.394,6.85,6.85,0,0,1,1.375-4.474A4.538,4.538,0,0,1,106.3,12.1a4,4,0,0,1,3.255,1.439,5.944,5.944,0,0,1,1.192,3.91v.859H102.34a5.524,5.524,0,0,0,1.123,3.674,3.951,3.951,0,0,0,3.153,1.268,9.779,9.779,0,0,0,1.756-.14,10.673,10.673,0,0,0,1.917-.6v.967a8.552,8.552,0,0,1-1.826.585A10.136,10.136,0,0,1,106.616,24.215ZM106.3,13.043a3.5,3.5,0,0,0-2.707,1.112,5.244,5.244,0,0,0-1.192,3.207h7.219a5.092,5.092,0,0,0-.881-3.174A2.906,2.906,0,0,0,106.3,13.043Zm12.332,11.172a5,5,0,0,1-3.921-1.579,6.36,6.36,0,0,1-1.418-4.4,6.467,6.467,0,0,1,1.472-4.517A5.175,5.175,0,0,1,118.8,12.1a8.1,8.1,0,0,1,2.9.526l-.29.945a8.513,8.513,0,0,0-2.632-.5,4,4,0,0,0-3.255,1.327,5.816,5.816,0,0,0-1.106,3.819,5.64,5.64,0,0,0,1.106,3.7,3.793,3.793,0,0,0,3.094,1.337,7.593,7.593,0,0,0,2.954-.569v.988A6.7,6.7,0,0,1,118.636,24.215Zm6.714-11.892v7.563a3.693,3.693,0,0,0,.741,2.562,2.992,2.992,0,0,0,2.3.8,4.013,4.013,0,0,0,3.067-1.053,4.929,4.929,0,0,0,.983-3.427V12.323h1.053V24h-.9l-.193-1.611h-.064q-1.139,1.826-4.05,1.826-3.985,0-3.985-4.265V12.323ZM144.493,24l-.269-1.848h-.086a5.545,5.545,0,0,1-1.81,1.6,4.835,4.835,0,0,1-2.2.467,3.8,3.8,0,0,1-2.675-.881A3.151,3.151,0,0,1,136.5,20.9a3.009,3.009,0,0,1,1.423-2.653,7.739,7.739,0,0,1,4.12-1l2.224-.064v-.773a3.971,3.971,0,0,0-.677-2.514,2.624,2.624,0,0,0-2.181-.849,7.294,7.294,0,0,0-3.362.9l-.4-.924a8.9,8.9,0,0,1,3.8-.9,3.791,3.791,0,0,1,2.874,1,4.389,4.389,0,0,1,.951,3.115V24Zm-4.3-.752a4.007,4.007,0,0,0,2.949-1.069,3.992,3.992,0,0,0,1.08-2.97V18.06l-2.041.086a7.71,7.71,0,0,0-3.507.768,2.212,2.212,0,0,0-1.047,2.025,2.178,2.178,0,0,0,.671,1.7A2.729,2.729,0,0,0,140.2,23.248ZM139.981,10.5q.784-.849,1.552-1.842a12.661,12.661,0,0,0,1.047-1.509H144.1v.183a11.75,11.75,0,0,1-1.316,1.482q-.929.924-2.046,1.858h-.752Zm13.675,1.6a9.138,9.138,0,0,1,1.59.15l-.2,1.021a6.222,6.222,0,0,0-1.515-.183,2.941,2.941,0,0,0-2.449,1.268,5.167,5.167,0,0,0-.956,3.2V24h-1.063V12.323h.9l.107,2.105h.075a4.951,4.951,0,0,1,1.536-1.81A3.6,3.6,0,0,1,153.656,12.1ZM158.683,24H157.62V12.323h1.063ZM157.469,9.079q0-1.031.677-1.031a.6.6,0,0,1,.521.269,1.319,1.319,0,0,1,.188.763,1.35,1.35,0,0,1-.188.763.6.6,0,0,1-.521.279Q157.469,10.121,157.469,9.079ZM169.683,24l-.269-1.848h-.086a5.545,5.545,0,0,1-1.81,1.6,4.835,4.835,0,0,1-2.2.467,3.8,3.8,0,0,1-2.675-.881,3.151,3.151,0,0,1-.956-2.438,3.009,3.009,0,0,1,1.423-2.653,7.739,7.739,0,0,1,4.12-1l2.224-.064v-.773a3.971,3.971,0,0,0-.677-2.514,2.624,2.624,0,0,0-2.181-.849,7.294,7.294,0,0,0-3.362.9l-.4-.924a8.9,8.9,0,0,1,3.8-.9,3.791,3.791,0,0,1,2.874,1,4.389,4.389,0,0,1,.951,3.115V24Zm-4.3-.752a4.007,4.007,0,0,0,2.949-1.069,3.992,3.992,0,0,0,1.08-2.97V18.06l-2.041.086a7.71,7.71,0,0,0-3.507.768,2.212,2.212,0,0,0-1.047,2.025,2.178,2.178,0,0,0,.671,1.7A2.729,2.729,0,0,0,165.386,23.248Zm10.076-1.8.129.226a35.819,35.819,0,0,1-1.869,5.167h-.7a43.285,43.285,0,0,0,1.182-5.393ZM191.78,24l-.269-1.848h-.086a5.545,5.545,0,0,1-1.81,1.6,4.835,4.835,0,0,1-2.2.467,3.8,3.8,0,0,1-2.675-.881,3.151,3.151,0,0,1-.956-2.438,3.009,3.009,0,0,1,1.423-2.653,7.739,7.739,0,0,1,4.12-1l2.224-.064v-.773a3.971,3.971,0,0,0-.677-2.514,2.624,2.624,0,0,0-2.181-.849,7.294,7.294,0,0,0-3.362.9l-.4-.924a8.9,8.9,0,0,1,3.8-.9,3.791,3.791,0,0,1,2.874,1,4.389,4.389,0,0,1,.951,3.115V24Zm-4.3-.752a4.007,4.007,0,0,0,2.949-1.069,3.992,3.992,0,0,0,1.08-2.97V18.06l-2.041.086a7.71,7.71,0,0,0-3.507.768,2.212,2.212,0,0,0-1.047,2.025,2.178,2.178,0,0,0,.671,1.7A2.729,2.729,0,0,0,187.483,23.248Zm17.972-10.925v.741l-2.417.15A4.125,4.125,0,0,1,204,15.857a3.566,3.566,0,0,1-1.123,2.734,4.24,4.24,0,0,1-3.013,1.047,6.551,6.551,0,0,1-1.117-.064,2.779,2.779,0,0,0-.967.784,1.583,1.583,0,0,0-.333.956.885.885,0,0,0,.424.816,2.89,2.89,0,0,0,1.423.258h2.041a4.739,4.739,0,0,1,2.911.768,2.677,2.677,0,0,1,1.01,2.272,3.234,3.234,0,0,1-1.5,2.852,7.643,7.643,0,0,1-4.27,1,5.876,5.876,0,0,1-3.411-.849,2.726,2.726,0,0,1-1.208-2.363,2.8,2.8,0,0,1,.747-2,3.868,3.868,0,0,1,2.025-1.085,2.059,2.059,0,0,1-.843-.639,1.521,1.521,0,0,1-.317-.951,2.5,2.5,0,0,1,1.493-2.062,3.328,3.328,0,0,1-1.59-1.316,3.756,3.756,0,0,1-.569-2.057,3.7,3.7,0,0,1,1.112-2.809,4.175,4.175,0,0,1,3-1.058,5.535,5.535,0,0,1,1.783.226ZM196,25.977q0,2.406,3.577,2.406,4.6,0,4.6-2.933a1.69,1.69,0,0,0-.72-1.525,4.383,4.383,0,0,0-2.331-.473h-1.912Q196,23.452,196,25.977Zm.892-10.012a2.693,2.693,0,0,0,.822,2.1,3.679,3.679,0,0,0,4.437.005,2.827,2.827,0,0,0,.779-2.148,2.919,2.919,0,0,0-.8-2.24,3.158,3.158,0,0,0-2.24-.747,2.969,2.969,0,0,0-2.2.8A3.013,3.013,0,0,0,196.893,15.965ZM212.448,12.1a9.138,9.138,0,0,1,1.59.15l-.2,1.021a6.222,6.222,0,0,0-1.515-.183,2.941,2.941,0,0,0-2.449,1.268,5.167,5.167,0,0,0-.956,3.2V24H207.85V12.323h.9l.107,2.105h.075a4.951,4.951,0,0,1,1.536-1.81A3.6,3.6,0,0,1,212.448,12.1ZM217.475,24h-1.063V12.323h1.063ZM216.261,9.079q0-1.031.677-1.031a.6.6,0,0,1,.521.269,1.319,1.319,0,0,1,.188.763,1.35,1.35,0,0,1-.188.763.6.6,0,0,1-.521.279Q216.261,10.121,216.261,9.079Zm9.786,15.136a5,5,0,0,1-3.921-1.579,6.36,6.36,0,0,1-1.418-4.4,6.467,6.467,0,0,1,1.472-4.517,5.175,5.175,0,0,1,4.028-1.617,8.1,8.1,0,0,1,2.9.526l-.29.945a8.513,8.513,0,0,0-2.632-.5,4,4,0,0,0-3.255,1.327,5.816,5.816,0,0,0-1.106,3.819,5.64,5.64,0,0,0,1.106,3.7,3.793,3.793,0,0,0,3.094,1.337,7.593,7.593,0,0,0,2.954-.569v.988A6.7,6.7,0,0,1,226.047,24.215Zm6.714-11.892v7.563a3.693,3.693,0,0,0,.741,2.562,2.992,2.992,0,0,0,2.3.8,4.013,4.013,0,0,0,3.067-1.053,4.929,4.929,0,0,0,.983-3.427V12.323H240.9V24H240l-.193-1.611h-.064q-1.139,1.826-4.05,1.826-3.985,0-3.985-4.265V12.323ZM245.877,24h-1.063V7.285h1.063Zm6.993-.73a7.977,7.977,0,0,0,1.762-.172v.859a5.636,5.636,0,0,1-1.783.258,2.9,2.9,0,0,1-2.283-.827,3.84,3.84,0,0,1-.736-2.6V13.247H248.1v-.623l1.729-.483.537-2.643h.548v2.825h3.427v.924h-3.427v7.391a3.373,3.373,0,0,0,.473,1.987A1.716,1.716,0,0,0,252.871,23.27Zm5.21-10.946v7.563a3.693,3.693,0,0,0,.741,2.562,2.992,2.992,0,0,0,2.3.8,4.013,4.013,0,0,0,3.067-1.053,4.929,4.929,0,0,0,.983-3.427V12.323h1.053V24h-.9l-.193-1.611h-.064q-1.139,1.826-4.05,1.826-3.985,0-3.985-4.265V12.323Zm16.65-.226a9.138,9.138,0,0,1,1.59.15l-.2,1.021a6.222,6.222,0,0,0-1.515-.183,2.941,2.941,0,0,0-2.449,1.268,5.167,5.167,0,0,0-.956,3.2V24h-1.063V12.323h.9l.107,2.105h.075a4.951,4.951,0,0,1,1.536-1.81A3.6,3.6,0,0,1,274.731,12.1ZM285.785,24l-.269-1.848h-.086a5.545,5.545,0,0,1-1.81,1.6,4.835,4.835,0,0,1-2.2.467,3.8,3.8,0,0,1-2.675-.881,3.151,3.151,0,0,1-.956-2.438,3.009,3.009,0,0,1,1.423-2.653,7.739,7.739,0,0,1,4.12-1l2.224-.064v-.773a3.971,3.971,0,0,0-.677-2.514,2.624,2.624,0,0,0-2.181-.849,7.294,7.294,0,0,0-3.362.9l-.4-.924a8.9,8.9,0,0,1,3.8-.9,3.791,3.791,0,0,1,2.874,1,4.389,4.389,0,0,1,.951,3.115V24Zm-4.3-.752a4.007,4.007,0,0,0,2.949-1.069,3.992,3.992,0,0,0,1.08-2.97V18.06l-2.041.086a7.71,7.71,0,0,0-3.507.768,2.212,2.212,0,0,0-1.047,2.025,2.178,2.178,0,0,0,.671,1.7A2.729,2.729,0,0,0,281.488,23.248Zm19.293.967a5.088,5.088,0,0,1-3.969-1.568,6.3,6.3,0,0,1-1.423-4.394,6.85,6.85,0,0,1,1.375-4.474,4.538,4.538,0,0,1,3.706-1.681,4,4,0,0,1,3.255,1.439,5.944,5.944,0,0,1,1.192,3.91v.859h-8.411a5.524,5.524,0,0,0,1.123,3.674,3.951,3.951,0,0,0,3.153,1.268,9.779,9.779,0,0,0,1.756-.14,10.673,10.673,0,0,0,1.917-.6v.967a8.552,8.552,0,0,1-1.826.585A10.136,10.136,0,0,1,300.781,24.215Zm-.312-11.172a3.5,3.5,0,0,0-2.707,1.112,5.244,5.244,0,0,0-1.192,3.207h7.219a5.092,5.092,0,0,0-.881-3.174A2.906,2.906,0,0,0,300.469,13.043Zm17.66-.945a4.848,4.848,0,0,1,2.191.462,4.361,4.361,0,0,1,1.654,1.579h.064q-.064-1.354-.064-2.653v-4.2h1.053V24h-.7l-.269-1.783h-.086a4.321,4.321,0,0,1-3.824,2,4.581,4.581,0,0,1-3.7-1.5,6.6,6.6,0,0,1-1.278-4.383,7.321,7.321,0,0,1,1.268-4.63A4.42,4.42,0,0,1,318.129,12.1Zm0,.967a3.3,3.3,0,0,0-2.874,1.343,6.654,6.654,0,0,0-.961,3.9q0,4.963,3.856,4.963a3.5,3.5,0,0,0,2.9-1.149,6.1,6.1,0,0,0,.924-3.792v-.183a6.5,6.5,0,0,0-.908-3.894A3.465,3.465,0,0,0,318.129,13.064Zm13.535,11.15a5.088,5.088,0,0,1-3.969-1.568,6.3,6.3,0,0,1-1.423-4.394,6.85,6.85,0,0,1,1.375-4.474,4.538,4.538,0,0,1,3.706-1.681,4,4,0,0,1,3.255,1.439,5.944,5.944,0,0,1,1.192,3.91v.859h-8.411a5.524,5.524,0,0,0,1.123,3.674,3.951,3.951,0,0,0,3.153,1.268,9.779,9.779,0,0,0,1.756-.14,10.673,10.673,0,0,0,1.917-.6v.967a8.552,8.552,0,0,1-1.826.585A10.136,10.136,0,0,1,331.665,24.215Zm-.312-11.172a3.5,3.5,0,0,0-2.707,1.112,5.244,5.244,0,0,0-1.192,3.207h7.219a5.092,5.092,0,0,0-.881-3.174A2.906,2.906,0,0,0,331.353,13.043Zm14.91,7.917a2.776,2.776,0,0,1-1.192,2.412,5.8,5.8,0,0,1-3.384.843,8.07,8.07,0,0,1-3.717-.72V22.346a8.2,8.2,0,0,0,3.717.881,4.9,4.9,0,0,0,2.626-.575,1.747,1.747,0,0,0,.9-1.531,1.865,1.865,0,0,0-.714-1.482,7.856,7.856,0,0,0-2.347-1.182,13.444,13.444,0,0,1-2.46-1.09,3.4,3.4,0,0,1-1.069-1.031,2.591,2.591,0,0,1-.36-1.4,2.4,2.4,0,0,1,1.1-2.073,5.349,5.349,0,0,1,3.078-.763,9.215,9.215,0,0,1,3.588.709l-.4.967a8.414,8.414,0,0,0-3.19-.709,4.62,4.62,0,0,0-2.267.473,1.451,1.451,0,0,0-.838,1.311,1.814,1.814,0,0,0,.65,1.461,9.06,9.06,0,0,0,2.541,1.225,12.5,12.5,0,0,1,2.3,1.026A3.341,3.341,0,0,1,345.9,19.6,2.535,2.535,0,0,1,346.263,20.96Zm17.6,3.04V16.341a3.814,3.814,0,0,0-.666-2.492,2.53,2.53,0,0,0-2.041-.784,3.332,3.332,0,0,0-2.653.988,4.66,4.66,0,0,0-.859,3.1V24h-1.085V16.019q0-2.954-2.707-2.954a3.19,3.19,0,0,0-2.675,1.069,5.567,5.567,0,0,0-.838,3.421V24h-1.063V12.323h.881l.226,1.6h.064a3.348,3.348,0,0,1,1.375-1.348,4.094,4.094,0,0,1,1.966-.478q2.761,0,3.545,2.073h.043a3.969,3.969,0,0,1,1.531-1.536,4.405,4.405,0,0,1,2.186-.537,3.747,3.747,0,0,1,2.868,1.021,4.634,4.634,0,0,1,.956,3.244V24Zm11.924,0-.269-1.848h-.086a5.545,5.545,0,0,1-1.81,1.6,4.835,4.835,0,0,1-2.2.467,3.8,3.8,0,0,1-2.675-.881,3.151,3.151,0,0,1-.956-2.438,3.009,3.009,0,0,1,1.423-2.653,7.739,7.739,0,0,1,4.12-1l2.224-.064v-.773a3.971,3.971,0,0,0-.677-2.514,2.624,2.624,0,0,0-2.181-.849,7.294,7.294,0,0,0-3.362.9l-.4-.924a8.9,8.9,0,0,1,3.8-.9,3.791,3.791,0,0,1,2.874,1,4.389,4.389,0,0,1,.951,3.115V24Zm-4.3-.752a4.007,4.007,0,0,0,2.949-1.069,3.992,3.992,0,0,0,1.08-2.97V18.06l-2.041.086a7.71,7.71,0,0,0-3.507.768,2.212,2.212,0,0,0-1.047,2.025,2.178,2.178,0,0,0,.671,1.7A2.729,2.729,0,0,0,371.486,23.248Zm11.945.021a7.977,7.977,0,0,0,1.762-.172v.859a5.636,5.636,0,0,1-1.783.258,2.9,2.9,0,0,1-2.283-.827,3.84,3.84,0,0,1-.736-2.6V13.247h-1.729v-.623l1.729-.483.537-2.643h.548v2.825H384.9v.924h-3.427v7.391a3.373,3.373,0,0,0,.473,1.987A1.716,1.716,0,0,0,383.431,23.27Zm11.376.73-.269-1.848h-.086a5.545,5.545,0,0,1-1.81,1.6,4.835,4.835,0,0,1-2.2.467,3.8,3.8,0,0,1-2.675-.881,3.151,3.151,0,0,1-.956-2.438,3.009,3.009,0,0,1,1.423-2.653,7.739,7.739,0,0,1,4.12-1l2.224-.064v-.773a3.971,3.971,0,0,0-.677-2.514,2.624,2.624,0,0,0-2.181-.849,7.294,7.294,0,0,0-3.362.9l-.4-.924a8.9,8.9,0,0,1,3.8-.9,3.791,3.791,0,0,1,2.874,1,4.389,4.389,0,0,1,.951,3.115V24Zm-4.3-.752a4.007,4.007,0,0,0,2.949-1.069,3.992,3.992,0,0,0,1.08-2.97V18.06l-2.041.086a7.71,7.71,0,0,0-3.507.768,2.212,2.212,0,0,0-1.047,2.025,2.178,2.178,0,0,0,.671,1.7A2.729,2.729,0,0,0,390.51,23.248ZM413.96,24V16.341a3.814,3.814,0,0,0-.666-2.492,2.53,2.53,0,0,0-2.041-.784,3.332,3.332,0,0,0-2.653.988,4.66,4.66,0,0,0-.859,3.1V24h-1.085V16.019q0-2.954-2.707-2.954a3.19,3.19,0,0,0-2.675,1.069,5.567,5.567,0,0,0-.838,3.421V24h-1.063V12.323h.881l.226,1.6h.064a3.348,3.348,0,0,1,1.375-1.348,4.094,4.094,0,0,1,1.966-.478q2.761,0,3.545,2.073h.043A3.969,3.969,0,0,1,409,12.635a4.405,4.405,0,0,1,2.186-.537,3.747,3.747,0,0,1,2.868,1.021,4.634,4.634,0,0,1,.956,3.244V24Zm9.55.215a5.088,5.088,0,0,1-3.969-1.568,6.3,6.3,0,0,1-1.423-4.394,6.85,6.85,0,0,1,1.375-4.474A4.538,4.538,0,0,1,423.2,12.1a4,4,0,0,1,3.255,1.439,5.944,5.944,0,0,1,1.192,3.91v.859h-8.411a5.524,5.524,0,0,0,1.123,3.674,3.951,3.951,0,0,0,3.153,1.268,9.779,9.779,0,0,0,1.756-.14,10.673,10.673,0,0,0,1.917-.6v.967a8.552,8.552,0,0,1-1.826.585A10.136,10.136,0,0,1,423.51,24.215ZM423.2,13.043a3.5,3.5,0,0,0-2.707,1.112,5.244,5.244,0,0,0-1.192,3.207h7.219a5.092,5.092,0,0,0-.881-3.174A2.906,2.906,0,0,0,423.2,13.043ZM439.011,24V16.427a3.693,3.693,0,0,0-.741-2.562,2.992,2.992,0,0,0-2.3-.8,3.98,3.98,0,0,0-3.067,1.058,4.988,4.988,0,0,0-.972,3.432V24h-1.063V12.323h.9l.2,1.6h.064q1.139-1.826,4.05-1.826,3.975,0,3.975,4.265V24Zm7.917-.73a7.977,7.977,0,0,0,1.762-.172v.859a5.636,5.636,0,0,1-1.783.258,2.9,2.9,0,0,1-2.283-.827,3.84,3.84,0,0,1-.736-2.6V13.247h-1.729v-.623l1.729-.483.537-2.643h.548v2.825H448.4v.924h-3.427v7.391a3.373,3.373,0,0,0,.473,1.987A1.716,1.716,0,0,0,446.928,23.27Zm13.943-5.124a6.614,6.614,0,0,1-1.386,4.463,4.784,4.784,0,0,1-3.824,1.606,4.952,4.952,0,0,1-2.707-.741,4.741,4.741,0,0,1-1.794-2.127,7.737,7.737,0,0,1-.623-3.2,6.572,6.572,0,0,1,1.386-4.453,4.774,4.774,0,0,1,3.8-1.6,4.684,4.684,0,0,1,3.776,1.617A6.64,6.64,0,0,1,460.872,18.146Zm-9.217,0a5.942,5.942,0,0,0,1.058,3.754,3.994,3.994,0,0,0,5.983,0,5.942,5.942,0,0,0,1.058-3.754,5.849,5.849,0,0,0-1.069-3.749,3.631,3.631,0,0,0-3-1.332,3.577,3.577,0,0,0-2.981,1.327A5.93,5.93,0,0,0,451.655,18.146Zm15.6-.172a16.188,16.188,0,0,1-.833,5.264,12.591,12.591,0,0,1-2.4,4.243h-1.192a15.5,15.5,0,0,0,3.266-9.528,16.04,16.04,0,0,0-.849-5.237,14.179,14.179,0,0,0-2.438-4.42h1.214a13.178,13.178,0,0,1,2.406,4.367A16.725,16.725,0,0,1,467.252,17.974Z" transform="translate(409 237)" fill="#fff"/>
    </g>
  </g>
</svg>
