<svg xmlns="http://www.w3.org/2000/svg" xmlns:xlink="http://www.w3.org/1999/xlink" width="1000" height="442" viewBox="0 0 1000 442">
  <defs>
    <clipPath id="clip-transportes_img_1">
      <rect width="1000" height="442"/>
    </clipPath>
  </defs>
  <g id="transportes_img_1" data-name="transportes img – 1" clip-path="url(#clip-transportes_img_1)">
    <g id="Grupo_1053" data-name="Grupo 1053" transform="translate(-183.953 -120)">
      <path id="Caminho_1366" data-name="Caminho 1366" d="M30.016,8.867V19.953a6.391,6.391,0,0,1-.85,3.328,5.529,5.529,0,0,1-2.455,2.191,8.78,8.78,0,0,1-3.8.762,7.27,7.27,0,0,1-5.133-1.693,6.007,6.007,0,0,1-1.828-4.635V8.867h3.621V19.355a4.393,4.393,0,0,0,.8,2.906,3.313,3.313,0,0,0,2.637.926,3.239,3.239,0,0,0,2.584-.932,4.416,4.416,0,0,0,.8-2.924V8.867ZM43.07,22.109a3.607,3.607,0,0,1-1.4,3.07,6.919,6.919,0,0,1-4.189,1.055,13.159,13.159,0,0,1-2.437-.193,9.22,9.22,0,0,1-1.887-.568V22.52A12.46,12.46,0,0,0,35.4,23.3a9.087,9.087,0,0,0,2.2.316q1.945,0,1.945-1.125a.939.939,0,0,0-.258-.686,3.738,3.738,0,0,0-.891-.6q-.633-.334-1.687-.779a10.6,10.6,0,0,1-2.221-1.172,3.3,3.3,0,0,1-1.031-1.236,4.081,4.081,0,0,1-.322-1.717,3.112,3.112,0,0,1,1.354-2.7,6.593,6.593,0,0,1,3.838-.955,10.894,10.894,0,0,1,4.605,1.031l-1.078,2.578q-.984-.422-1.84-.691a5.777,5.777,0,0,0-1.746-.27q-1.582,0-1.582.855a1.006,1.006,0,0,0,.51.832,13.863,13.863,0,0,0,2.232,1.043,10.371,10.371,0,0,1,2.25,1.16,3.431,3.431,0,0,1,1.055,1.242A3.817,3.817,0,0,1,43.07,22.109Zm5.637-2.684a5.5,5.5,0,0,0,.639,2.941,2.284,2.284,0,0,0,2.08,1,2.248,2.248,0,0,0,2.057-.99,5.578,5.578,0,0,0,.627-2.947,5.412,5.412,0,0,0-.633-2.918A2.691,2.691,0,0,0,49.34,16.5,5.407,5.407,0,0,0,48.707,19.426Zm9.059,0a7.04,7.04,0,0,1-1.687,5,6.119,6.119,0,0,1-4.7,1.8,6.574,6.574,0,0,1-3.328-.826,5.5,5.5,0,0,1-2.215-2.373,7.974,7.974,0,0,1-.773-3.609,7,7,0,0,1,1.676-4.992,6.154,6.154,0,0,1,4.711-1.781,6.611,6.611,0,0,1,3.328.82,5.475,5.475,0,0,1,2.215,2.355A7.9,7.9,0,0,1,57.766,19.426ZM71.1,26.234a4.255,4.255,0,0,1-3.627-1.793,8.243,8.243,0,0,1-1.318-4.969A8.251,8.251,0,0,1,67.5,14.451a4.358,4.358,0,0,1,3.7-1.8,4.274,4.274,0,0,1,3.773,1.922h.117a14.612,14.612,0,0,1-.27-2.613v-4.2H78.4V26H75.66l-.691-1.7h-.152A4.09,4.09,0,0,1,71.1,26.234Zm1.254-2.848a2.422,2.422,0,0,0,2.01-.8,4.636,4.636,0,0,0,.7-2.707V19.5a5.357,5.357,0,0,0-.65-3.023,2.416,2.416,0,0,0-2.115-.914,2.1,2.1,0,0,0-1.857,1.014,5.408,5.408,0,0,0-.662,2.947,5.125,5.125,0,0,0,.668,2.9A2.182,2.182,0,0,0,72.355,23.387ZM87.566,15.2a2.267,2.267,0,0,0-1.781.721,3.336,3.336,0,0,0-.738,2.045h5.016a2.979,2.979,0,0,0-.691-2.045A2.341,2.341,0,0,0,87.566,15.2Zm.5,11.039a6.762,6.762,0,0,1-4.945-1.746,6.611,6.611,0,0,1-1.781-4.945,7.272,7.272,0,0,1,1.646-5.092,5.863,5.863,0,0,1,4.553-1.8,5.771,5.771,0,0,1,4.324,1.582,5.985,5.985,0,0,1,1.547,4.371V20.34H84.965a3.44,3.44,0,0,0,.9,2.379,3.175,3.175,0,0,0,2.367.855,9.827,9.827,0,0,0,2.238-.246,11.2,11.2,0,0,0,2.2-.785v2.766a8.393,8.393,0,0,1-2,.7A12.635,12.635,0,0,1,88.07,26.234Zm22.8-.234-.691-1.781h-.094a5.279,5.279,0,0,1-1.857,1.576,6,6,0,0,1-2.49.439,4.027,4.027,0,0,1-2.971-1.078,4.14,4.14,0,0,1-1.084-3.07,3.457,3.457,0,0,1,1.459-3.076,8.454,8.454,0,0,1,4.4-1.1l2.273-.07V17.27a1.782,1.782,0,0,0-2.039-1.992,9.292,9.292,0,0,0-3.691.949l-1.184-2.414a10.651,10.651,0,0,1,5.016-1.184,6.248,6.248,0,0,1,4.043,1.148,4.244,4.244,0,0,1,1.406,3.492V26Zm-1.055-6.07-1.383.047a4.428,4.428,0,0,0-2.32.563,1.767,1.767,0,0,0-.762,1.57q0,1.512,1.734,1.512a2.747,2.747,0,0,0,1.986-.715,2.511,2.511,0,0,0,.744-1.9ZM126.332,26l-.48-1.676h-.187a3.771,3.771,0,0,1-1.629,1.412,5.561,5.561,0,0,1-2.4.5A4.575,4.575,0,0,1,118.152,25a4.975,4.975,0,0,1-1.172-3.557V12.9h3.574v7.652a3.676,3.676,0,0,0,.5,2.127,1.833,1.833,0,0,0,1.605.709,2.414,2.414,0,0,0,2.168-1,6.214,6.214,0,0,0,.668-3.322V12.9h3.574V26Zm12.012-2.613a7.748,7.748,0,0,0,2.25-.41v2.66a8.022,8.022,0,0,1-3.281.6,4.016,4.016,0,0,1-3.123-1.084,4.718,4.718,0,0,1-.979-3.252V15.582H131.5V14.07l1.969-1.2,1.031-2.766h2.285V12.9h3.668v2.684h-3.668V21.9a1.4,1.4,0,0,0,.428,1.125A1.688,1.688,0,0,0,138.344,23.387Zm7.746-3.961a5.5,5.5,0,0,0,.639,2.941,2.284,2.284,0,0,0,2.08,1,2.248,2.248,0,0,0,2.057-.99,5.578,5.578,0,0,0,.627-2.947,5.412,5.412,0,0,0-.633-2.918,2.691,2.691,0,0,0-4.137-.006A5.407,5.407,0,0,0,146.09,19.426Zm9.059,0a7.04,7.04,0,0,1-1.687,5,6.119,6.119,0,0,1-4.7,1.8,6.574,6.574,0,0,1-3.328-.826,5.5,5.5,0,0,1-2.215-2.373,7.974,7.974,0,0,1-.773-3.609,7,7,0,0,1,1.676-4.992,6.154,6.154,0,0,1,4.711-1.781,6.611,6.611,0,0,1,3.328.82,5.475,5.475,0,0,1,2.215,2.355A7.9,7.9,0,0,1,155.148,19.426ZM169.832,26h-3.574V18.348a3.855,3.855,0,0,0-.475-2.127,1.669,1.669,0,0,0-1.494-.709A2.164,2.164,0,0,0,162.3,16.52a6.611,6.611,0,0,0-.621,3.316V26H158.1V12.9h2.73l.48,1.676h.2a3.631,3.631,0,0,1,1.523-1.412,4.946,4.946,0,0,1,2.285-.51q2.941,0,3.984,1.922h.316a3.54,3.54,0,0,1,1.553-1.418,5.178,5.178,0,0,1,2.314-.5,4.569,4.569,0,0,1,3.369,1.143A5.017,5.017,0,0,1,178,17.457V26h-3.586V18.348a3.855,3.855,0,0,0-.475-2.127,1.669,1.669,0,0,0-1.494-.709,2.229,2.229,0,0,0-1.963.938,5.319,5.319,0,0,0-.65,2.977Zm14.684-6.574a5.5,5.5,0,0,0,.639,2.941,2.284,2.284,0,0,0,2.08,1,2.248,2.248,0,0,0,2.057-.99,5.578,5.578,0,0,0,.627-2.947,5.412,5.412,0,0,0-.633-2.918,2.691,2.691,0,0,0-4.137-.006A5.407,5.407,0,0,0,184.516,19.426Zm9.059,0a7.04,7.04,0,0,1-1.687,5,6.119,6.119,0,0,1-4.7,1.8,6.574,6.574,0,0,1-3.328-.826,5.5,5.5,0,0,1-2.215-2.373,7.974,7.974,0,0,1-.773-3.609,7,7,0,0,1,1.676-4.992,6.154,6.154,0,0,1,4.711-1.781,6.611,6.611,0,0,1,3.328.82,5.475,5.475,0,0,1,2.215,2.355A7.9,7.9,0,0,1,193.574,19.426Zm-8.309-7.969v-.316a32.993,32.993,0,0,0,2.754-3.527h4.008v.246q-.609.609-2.08,1.811t-2.3,1.787ZM199.645,26l-4.992-13.1h3.738l2.531,7.465a13.32,13.32,0,0,1,.527,2.684h.07a11.67,11.67,0,0,1,.527-2.684l2.52-7.465H208.3L203.313,26Zm15.961-10.8a2.267,2.267,0,0,0-1.781.721,3.336,3.336,0,0,0-.738,2.045H218.1a2.979,2.979,0,0,0-.691-2.045A2.341,2.341,0,0,0,215.605,15.2Zm.5,11.039a6.762,6.762,0,0,1-4.945-1.746,6.611,6.611,0,0,1-1.781-4.945,7.272,7.272,0,0,1,1.646-5.092,5.863,5.863,0,0,1,4.553-1.8,5.771,5.771,0,0,1,4.324,1.582,5.985,5.985,0,0,1,1.547,4.371V20.34H213a3.44,3.44,0,0,0,.9,2.379,3.175,3.175,0,0,0,2.367.855,9.827,9.827,0,0,0,2.238-.246,11.2,11.2,0,0,0,2.2-.785v2.766a8.393,8.393,0,0,1-2,.7A12.635,12.635,0,0,1,216.109,26.234ZM227.934,26h-3.574V7.766h3.574Zm7.254-2.52a36.322,36.322,0,0,1-2.062,5.613h-2.578q.762-3.117,1.184-5.883h3.281ZM256.609,26h-3.574V18.348a3.855,3.855,0,0,0-.475-2.127,1.669,1.669,0,0,0-1.494-.709,2.164,2.164,0,0,0-1.992,1.008,6.611,6.611,0,0,0-.621,3.316V26h-3.574V12.9h2.73l.48,1.676h.2a3.631,3.631,0,0,1,1.523-1.412,4.946,4.946,0,0,1,2.285-.51q2.941,0,3.984,1.922h.316a3.54,3.54,0,0,1,1.553-1.418,5.178,5.178,0,0,1,2.314-.5,4.569,4.569,0,0,1,3.369,1.143,5.017,5.017,0,0,1,1.143,3.662V26h-3.586V18.348a3.855,3.855,0,0,0-.475-2.127,1.669,1.669,0,0,0-1.494-.709,2.229,2.229,0,0,0-1.963.938,5.319,5.319,0,0,0-.65,2.977Zm14.684-6.574a5.5,5.5,0,0,0,.639,2.941,2.284,2.284,0,0,0,2.08,1,2.248,2.248,0,0,0,2.057-.99,5.578,5.578,0,0,0,.627-2.947,5.412,5.412,0,0,0-.633-2.918,2.691,2.691,0,0,0-4.137-.006A5.407,5.407,0,0,0,271.293,19.426Zm9.059,0a7.04,7.04,0,0,1-1.687,5,6.119,6.119,0,0,1-4.7,1.8,6.574,6.574,0,0,1-3.328-.826,5.5,5.5,0,0,1-2.215-2.373,7.974,7.974,0,0,1-.773-3.609,7,7,0,0,1,1.676-4.992,6.154,6.154,0,0,1,4.711-1.781,6.611,6.611,0,0,1,3.328.82,5.475,5.475,0,0,1,2.215,2.355A7.9,7.9,0,0,1,280.352,19.426Zm8.473,3.961a7.748,7.748,0,0,0,2.25-.41v2.66a8.022,8.022,0,0,1-3.281.6,4.016,4.016,0,0,1-3.123-1.084,4.718,4.718,0,0,1-.979-3.252V15.582H281.98V14.07l1.969-1.2,1.031-2.766h2.285V12.9h3.668v2.684h-3.668V21.9a1.4,1.4,0,0,0,.428,1.125A1.688,1.688,0,0,0,288.824,23.387Zm7.746-3.961a5.5,5.5,0,0,0,.639,2.941,2.284,2.284,0,0,0,2.08,1,2.248,2.248,0,0,0,2.057-.99,5.578,5.578,0,0,0,.627-2.947,5.412,5.412,0,0,0-.633-2.918A2.691,2.691,0,0,0,297.2,16.5,5.407,5.407,0,0,0,296.57,19.426Zm9.059,0a7.04,7.04,0,0,1-1.687,5,6.119,6.119,0,0,1-4.7,1.8,6.574,6.574,0,0,1-3.328-.826,5.5,5.5,0,0,1-2.215-2.373,7.974,7.974,0,0,1-.773-3.609,7,7,0,0,1,1.676-4.992,6.154,6.154,0,0,1,4.711-1.781,6.611,6.611,0,0,1,3.328.82,5.475,5.475,0,0,1,2.215,2.355A7.9,7.9,0,0,1,305.629,19.426Zm8.273,6.809q-6.117,0-6.117-6.715a7.163,7.163,0,0,1,1.664-5.1,6.242,6.242,0,0,1,4.77-1.764,9.093,9.093,0,0,1,4.078.891l-1.055,2.766q-.844-.34-1.57-.557a5.06,5.06,0,0,0-1.453-.217q-2.789,0-2.789,3.961,0,3.844,2.789,3.844a6.359,6.359,0,0,0,1.91-.275,6.9,6.9,0,0,0,1.758-.861v3.059a5.761,5.761,0,0,1-1.752.762A9.852,9.852,0,0,1,313.9,26.234ZM320.77,9.512q0-1.746,1.945-1.746t1.945,1.746a1.7,1.7,0,0,1-.486,1.295,2.044,2.044,0,0,1-1.459.463Q320.77,11.27,320.77,9.512ZM324.5,26h-3.574V12.9H324.5Zm9.07.234q-6.117,0-6.117-6.715a7.163,7.163,0,0,1,1.664-5.1,6.242,6.242,0,0,1,4.77-1.764,9.093,9.093,0,0,1,4.078.891l-1.055,2.766q-.844-.34-1.57-.557a5.06,5.06,0,0,0-1.453-.217q-2.789,0-2.789,3.961,0,3.844,2.789,3.844a6.359,6.359,0,0,0,1.91-.275,6.9,6.9,0,0,0,1.758-.861v3.059a5.761,5.761,0,0,1-1.752.762A9.852,9.852,0,0,1,333.566,26.234ZM344.16,26h-3.574V7.766h3.574Zm9.176-10.8a2.267,2.267,0,0,0-1.781.721,3.336,3.336,0,0,0-.738,2.045h5.016a2.979,2.979,0,0,0-.691-2.045A2.341,2.341,0,0,0,353.336,15.2Zm.5,11.039a6.762,6.762,0,0,1-4.945-1.746,6.611,6.611,0,0,1-1.781-4.945,7.272,7.272,0,0,1,1.646-5.092,5.863,5.863,0,0,1,4.553-1.8,5.771,5.771,0,0,1,4.324,1.582,5.985,5.985,0,0,1,1.547,4.371V20.34h-8.449a3.44,3.44,0,0,0,.9,2.379,3.175,3.175,0,0,0,2.367.855,9.827,9.827,0,0,0,2.238-.246,11.2,11.2,0,0,0,2.2-.785v2.766a8.393,8.393,0,0,1-2,.7A12.635,12.635,0,0,1,353.84,26.234Zm13.77-2.848a7.748,7.748,0,0,0,2.25-.41v2.66a8.022,8.022,0,0,1-3.281.6,4.016,4.016,0,0,1-3.123-1.084,4.718,4.718,0,0,1-.979-3.252V15.582h-1.711V14.07l1.969-1.2,1.031-2.766h2.285V12.9h3.668v2.684h-3.668V21.9a1.4,1.4,0,0,0,.428,1.125A1.688,1.688,0,0,0,367.609,23.387ZM380.828,26l-.691-1.781h-.094a5.279,5.279,0,0,1-1.857,1.576,6,6,0,0,1-2.49.439,4.027,4.027,0,0,1-2.971-1.078,4.14,4.14,0,0,1-1.084-3.07A3.457,3.457,0,0,1,373.1,19.01a8.454,8.454,0,0,1,4.4-1.1l2.273-.07V17.27a1.782,1.782,0,0,0-2.039-1.992,9.292,9.292,0,0,0-3.691.949l-1.184-2.414a10.651,10.651,0,0,1,5.016-1.184,6.248,6.248,0,0,1,4.043,1.148,4.244,4.244,0,0,1,1.406,3.492V26Zm-1.055-6.07-1.383.047a4.428,4.428,0,0,0-2.32.563,1.767,1.767,0,0,0-.762,1.57q0,1.512,1.734,1.512a2.747,2.747,0,0,0,1.986-.715,2.511,2.511,0,0,0,.744-1.9Zm16.313-.5a5.5,5.5,0,0,0,.639,2.941,2.284,2.284,0,0,0,2.08,1,2.248,2.248,0,0,0,2.057-.99,5.578,5.578,0,0,0,.627-2.947,5.412,5.412,0,0,0-.633-2.918,2.691,2.691,0,0,0-4.137-.006A5.407,5.407,0,0,0,396.086,19.426Zm9.059,0a7.04,7.04,0,0,1-1.687,5,6.119,6.119,0,0,1-4.7,1.8,6.574,6.574,0,0,1-3.328-.826,5.5,5.5,0,0,1-2.215-2.373,7.974,7.974,0,0,1-.773-3.609,7,7,0,0,1,1.676-4.992,6.154,6.154,0,0,1,4.711-1.781,6.611,6.611,0,0,1,3.328.82,5.475,5.475,0,0,1,2.215,2.355A7.9,7.9,0,0,1,405.145,19.426ZM417.379,26l-.48-1.676h-.187a3.771,3.771,0,0,1-1.629,1.412,5.561,5.561,0,0,1-2.4.5A4.575,4.575,0,0,1,409.2,25a4.975,4.975,0,0,1-1.172-3.557V12.9H411.6v7.652a3.676,3.676,0,0,0,.5,2.127,1.833,1.833,0,0,0,1.605.709,2.414,2.414,0,0,0,2.168-1,6.214,6.214,0,0,0,.668-3.322V12.9h3.574V26Zm15.574-6.574a5.5,5.5,0,0,0,.639,2.941,2.284,2.284,0,0,0,2.08,1,2.248,2.248,0,0,0,2.057-.99,5.578,5.578,0,0,0,.627-2.947,5.412,5.412,0,0,0-.633-2.918,2.691,2.691,0,0,0-4.137-.006A5.407,5.407,0,0,0,432.953,19.426Zm9.059,0a7.04,7.04,0,0,1-1.687,5,6.119,6.119,0,0,1-4.7,1.8,6.574,6.574,0,0,1-3.328-.826,5.5,5.5,0,0,1-2.215-2.373,7.974,7.974,0,0,1-.773-3.609,7,7,0,0,1,1.676-4.992,6.154,6.154,0,0,1,4.711-1.781,6.611,6.611,0,0,1,3.328.82,5.475,5.475,0,0,1,2.215,2.355A7.9,7.9,0,0,1,442.012,19.426ZM454.246,26l-.48-1.676h-.187a3.771,3.771,0,0,1-1.629,1.412,5.561,5.561,0,0,1-2.4.5A4.575,4.575,0,0,1,446.066,25a4.975,4.975,0,0,1-1.172-3.557V12.9h3.574v7.652a3.676,3.676,0,0,0,.5,2.127,1.833,1.833,0,0,0,1.605.709,2.414,2.414,0,0,0,2.168-1,6.214,6.214,0,0,0,.668-3.322V12.9h3.574V26Zm12.012-2.613a7.748,7.748,0,0,0,2.25-.41v2.66a8.022,8.022,0,0,1-3.281.6A4.016,4.016,0,0,1,462.1,25.15a4.718,4.718,0,0,1-.979-3.252V15.582h-1.711V14.07l1.969-1.2,1.031-2.766H464.7V12.9h3.668v2.684H464.7V21.9a1.4,1.4,0,0,0,.428,1.125A1.688,1.688,0,0,0,466.258,23.387Zm12.211-10.734a5.764,5.764,0,0,1,1.207.105l-.27,3.352a4.1,4.1,0,0,0-1.055-.117,3.79,3.79,0,0,0-2.666.879,3.177,3.177,0,0,0-.955,2.461V26h-3.574V12.9h2.707l.527,2.2h.176a4.925,4.925,0,0,1,1.646-1.775A4.06,4.06,0,0,1,478.469,12.652Zm6.434,6.773a5.5,5.5,0,0,0,.639,2.941,2.284,2.284,0,0,0,2.08,1,2.248,2.248,0,0,0,2.057-.99,5.578,5.578,0,0,0,.627-2.947,5.412,5.412,0,0,0-.633-2.918,2.691,2.691,0,0,0-4.137-.006A5.407,5.407,0,0,0,484.9,19.426Zm9.059,0a7.04,7.04,0,0,1-1.687,5,6.119,6.119,0,0,1-4.7,1.8,6.574,6.574,0,0,1-3.328-.826,5.5,5.5,0,0,1-2.215-2.373,7.974,7.974,0,0,1-.773-3.609,7,7,0,0,1,1.676-4.992,6.154,6.154,0,0,1,4.711-1.781,6.611,6.611,0,0,1,3.328.82,5.475,5.475,0,0,1,2.215,2.355A7.9,7.9,0,0,1,493.961,19.426Zm12.094,2.684a3.607,3.607,0,0,1-1.4,3.07,6.919,6.919,0,0,1-4.189,1.055,13.159,13.159,0,0,1-2.437-.193,9.22,9.22,0,0,1-1.887-.568V22.52a12.46,12.46,0,0,0,2.244.785,9.087,9.087,0,0,0,2.2.316q1.945,0,1.945-1.125a.939.939,0,0,0-.258-.686,3.738,3.738,0,0,0-.891-.6q-.633-.334-1.687-.779a10.6,10.6,0,0,1-2.221-1.172,3.3,3.3,0,0,1-1.031-1.236,4.081,4.081,0,0,1-.322-1.717,3.112,3.112,0,0,1,1.354-2.7,6.593,6.593,0,0,1,3.838-.955,10.894,10.894,0,0,1,4.605,1.031l-1.078,2.578q-.984-.422-1.84-.691a5.777,5.777,0,0,0-1.746-.27q-1.582,0-1.582.855a1.006,1.006,0,0,0,.51.832,13.863,13.863,0,0,0,2.232,1.043,10.371,10.371,0,0,1,2.25,1.16,3.431,3.431,0,0,1,1.055,1.242A3.817,3.817,0,0,1,506.055,22.109ZM518.2,26,513.2,12.9h3.738l2.531,7.465A13.32,13.32,0,0,1,520,23.047h.07a11.67,11.67,0,0,1,.527-2.684l2.52-7.465h3.738L521.863,26Zm15.961-10.8a2.267,2.267,0,0,0-1.781.721,3.336,3.336,0,0,0-.738,2.045h5.016a2.979,2.979,0,0,0-.691-2.045A2.341,2.341,0,0,0,534.156,15.2Zm.5,11.039a6.762,6.762,0,0,1-4.945-1.746,6.611,6.611,0,0,1-1.781-4.945,7.272,7.272,0,0,1,1.646-5.092,5.863,5.863,0,0,1,4.553-1.8,5.771,5.771,0,0,1,4.324,1.582A5.985,5.985,0,0,1,540,18.605V20.34h-8.449a3.44,3.44,0,0,0,.9,2.379,3.175,3.175,0,0,0,2.367.855,9.827,9.827,0,0,0,2.238-.246,11.2,11.2,0,0,0,2.2-.785v2.766a8.393,8.393,0,0,1-2,.7A12.635,12.635,0,0,1,534.66,26.234ZM546.484,26H542.91V12.9h3.574Zm-3.75-14.543v-.316a32.993,32.993,0,0,0,2.754-3.527H549.5v.246q-.609.609-2.08,1.811t-2.3,1.787Zm12.82,14.777q-6.117,0-6.117-6.715a7.163,7.163,0,0,1,1.664-5.1,6.242,6.242,0,0,1,4.77-1.764,9.093,9.093,0,0,1,4.078.891l-1.055,2.766q-.844-.34-1.57-.557a5.06,5.06,0,0,0-1.453-.217q-2.789,0-2.789,3.961,0,3.844,2.789,3.844a6.359,6.359,0,0,0,1.91-.275,6.9,6.9,0,0,0,1.758-.861v3.059a5.761,5.761,0,0,1-1.752.762A9.852,9.852,0,0,1,555.555,26.234Zm16.3-.234-.48-1.676h-.187a3.771,3.771,0,0,1-1.629,1.412,5.561,5.561,0,0,1-2.4.5A4.575,4.575,0,0,1,563.676,25a4.975,4.975,0,0,1-1.172-3.557V12.9h3.574v7.652a3.676,3.676,0,0,0,.5,2.127,1.833,1.833,0,0,0,1.605.709,2.414,2.414,0,0,0,2.168-1,6.214,6.214,0,0,0,.668-3.322V12.9H574.6V26Zm10.066,0h-3.574V7.766h3.574Zm6.6-6.574a5.5,5.5,0,0,0,.639,2.941,2.284,2.284,0,0,0,2.08,1,2.248,2.248,0,0,0,2.057-.99,5.578,5.578,0,0,0,.627-2.947,5.412,5.412,0,0,0-.633-2.918,2.691,2.691,0,0,0-4.137-.006A5.407,5.407,0,0,0,588.52,19.426Zm9.059,0a7.04,7.04,0,0,1-1.687,5,6.119,6.119,0,0,1-4.7,1.8,6.574,6.574,0,0,1-3.328-.826,5.5,5.5,0,0,1-2.215-2.373,7.974,7.974,0,0,1-.773-3.609,7,7,0,0,1,1.676-4.992,6.154,6.154,0,0,1,4.711-1.781,6.611,6.611,0,0,1,3.328.82,5.475,5.475,0,0,1,2.215,2.355A7.9,7.9,0,0,1,597.578,19.426Zm12.094,2.684a3.607,3.607,0,0,1-1.4,3.07,6.919,6.919,0,0,1-4.189,1.055,13.159,13.159,0,0,1-2.437-.193,9.22,9.22,0,0,1-1.887-.568V22.52A12.46,12.46,0,0,0,602,23.3a9.087,9.087,0,0,0,2.2.316q1.945,0,1.945-1.125a.939.939,0,0,0-.258-.686,3.738,3.738,0,0,0-.891-.6q-.633-.334-1.687-.779a10.6,10.6,0,0,1-2.221-1.172,3.3,3.3,0,0,1-1.031-1.236,4.081,4.081,0,0,1-.322-1.717,3.112,3.112,0,0,1,1.354-2.7,6.593,6.593,0,0,1,3.838-.955,10.894,10.894,0,0,1,4.605,1.031l-1.078,2.578q-.984-.422-1.84-.691a5.777,5.777,0,0,0-1.746-.27q-1.582,0-1.582.855a1.006,1.006,0,0,0,.51.832,13.863,13.863,0,0,0,2.232,1.043,10.371,10.371,0,0,1,2.25,1.16,3.431,3.431,0,0,1,1.055,1.242A3.817,3.817,0,0,1,609.672,22.109Zm16.219,4.125a4.345,4.345,0,0,1-3.621-1.676h-.187q.188,1.641.188,1.9v5.309H618.7V12.9H621.6l.5,1.7h.164a4.135,4.135,0,0,1,3.715-1.945,4.252,4.252,0,0,1,3.633,1.793,8.293,8.293,0,0,1,1.313,4.98,9.834,9.834,0,0,1-.615,3.645,5.112,5.112,0,0,1-1.752,2.355A4.489,4.489,0,0,1,625.891,26.234Zm-1.055-10.723a2.257,2.257,0,0,0-1.934.814,4.676,4.676,0,0,0-.633,2.689V19.4a5.52,5.52,0,0,0,.627,3.023,2.238,2.238,0,0,0,1.986.914q2.4,0,2.4-3.961a5.656,5.656,0,0,0-.592-2.9A2.02,2.02,0,0,0,624.836,15.512ZM642.2,26l-.691-1.781h-.094a5.279,5.279,0,0,1-1.857,1.576,6,6,0,0,1-2.49.439,4.027,4.027,0,0,1-2.971-1.078,4.14,4.14,0,0,1-1.084-3.07,3.457,3.457,0,0,1,1.459-3.076,8.454,8.454,0,0,1,4.4-1.1l2.273-.07V17.27a1.782,1.782,0,0,0-2.039-1.992,9.292,9.292,0,0,0-3.691.949l-1.184-2.414a10.651,10.651,0,0,1,5.016-1.184,6.248,6.248,0,0,1,4.043,1.148A4.244,4.244,0,0,1,644.7,17.27V26Zm-1.055-6.07-1.383.047a4.428,4.428,0,0,0-2.32.563,1.767,1.767,0,0,0-.762,1.57q0,1.512,1.734,1.512a2.747,2.747,0,0,0,1.986-.715,2.511,2.511,0,0,0,.744-1.9Zm14.543-7.277a5.764,5.764,0,0,1,1.207.105l-.27,3.352a4.1,4.1,0,0,0-1.055-.117,3.79,3.79,0,0,0-2.666.879,3.177,3.177,0,0,0-.955,2.461V26h-3.574V12.9h2.707l.527,2.2h.176a4.925,4.925,0,0,1,1.646-1.775A4.06,4.06,0,0,1,655.691,12.652ZM664.8,23.387a7.748,7.748,0,0,0,2.25-.41v2.66a8.022,8.022,0,0,1-3.281.6,4.016,4.016,0,0,1-3.123-1.084,4.718,4.718,0,0,1-.979-3.252V15.582h-1.711V14.07l1.969-1.2,1.031-2.766h2.285V12.9h3.668v2.684h-3.668V21.9a1.4,1.4,0,0,0,.428,1.125A1.688,1.688,0,0,0,664.8,23.387Zm4.746-13.875q0-1.746,1.945-1.746t1.945,1.746a1.7,1.7,0,0,1-.486,1.295,2.044,2.044,0,0,1-1.459.463Q669.543,11.27,669.543,9.512ZM673.27,26H669.7V12.9h3.574Zm9.07.234q-6.117,0-6.117-6.715a7.163,7.163,0,0,1,1.664-5.1,6.242,6.242,0,0,1,4.77-1.764,9.093,9.093,0,0,1,4.078.891l-1.055,2.766q-.844-.34-1.57-.557a5.06,5.06,0,0,0-1.453-.217q-2.789,0-2.789,3.961,0,3.844,2.789,3.844a6.359,6.359,0,0,0,1.91-.275,6.9,6.9,0,0,0,1.758-.861v3.059a5.761,5.761,0,0,1-1.752.762A9.852,9.852,0,0,1,682.34,26.234Zm16.3-.234-.48-1.676h-.187a3.771,3.771,0,0,1-1.629,1.412,5.561,5.561,0,0,1-2.4.5A4.575,4.575,0,0,1,690.461,25a4.975,4.975,0,0,1-1.172-3.557V12.9h3.574v7.652a3.676,3.676,0,0,0,.5,2.127,1.833,1.833,0,0,0,1.605.709,2.414,2.414,0,0,0,2.168-1,6.214,6.214,0,0,0,.668-3.322V12.9h3.574V26Zm10.066,0h-3.574V7.766h3.574Zm12.07,0-.691-1.781h-.094a5.279,5.279,0,0,1-1.857,1.576,6,6,0,0,1-2.49.439,4.027,4.027,0,0,1-2.971-1.078,4.14,4.14,0,0,1-1.084-3.07,3.457,3.457,0,0,1,1.459-3.076,8.454,8.454,0,0,1,4.4-1.1l2.273-.07V17.27a1.782,1.782,0,0,0-2.039-1.992,9.292,9.292,0,0,0-3.691.949l-1.184-2.414a10.651,10.651,0,0,1,5.016-1.184,6.248,6.248,0,0,1,4.043,1.148,4.244,4.244,0,0,1,1.406,3.492V26Zm-1.055-6.07-1.383.047a4.428,4.428,0,0,0-2.32.563,1.767,1.767,0,0,0-.762,1.57q0,1.512,1.734,1.512a2.747,2.747,0,0,0,1.986-.715,2.511,2.511,0,0,0,.744-1.9Zm14.543-7.277a5.764,5.764,0,0,1,1.207.105l-.27,3.352a4.1,4.1,0,0,0-1.055-.117,3.79,3.79,0,0,0-2.666.879,3.177,3.177,0,0,0-.955,2.461V26h-3.574V12.9h2.707l.527,2.2h.176a4.925,4.925,0,0,1,1.646-1.775A4.06,4.06,0,0,1,734.266,12.652Zm9.012,2.543a2.267,2.267,0,0,0-1.781.721,3.336,3.336,0,0,0-.738,2.045h5.016a2.979,2.979,0,0,0-.691-2.045A2.341,2.341,0,0,0,743.277,15.2Zm.5,11.039a6.762,6.762,0,0,1-4.945-1.746,6.611,6.611,0,0,1-1.781-4.945,7.272,7.272,0,0,1,1.646-5.092,5.863,5.863,0,0,1,4.553-1.8,5.771,5.771,0,0,1,4.324,1.582,5.985,5.985,0,0,1,1.547,4.371V20.34h-8.449a3.44,3.44,0,0,0,.9,2.379,3.175,3.175,0,0,0,2.367.855,9.827,9.827,0,0,0,2.238-.246,11.2,11.2,0,0,0,2.2-.785v2.766a8.393,8.393,0,0,1-2,.7A12.635,12.635,0,0,1,743.781,26.234Zm17.391-4.125a3.607,3.607,0,0,1-1.4,3.07,6.919,6.919,0,0,1-4.189,1.055,13.159,13.159,0,0,1-2.437-.193,9.22,9.22,0,0,1-1.887-.568V22.52a12.46,12.46,0,0,0,2.244.785,9.087,9.087,0,0,0,2.2.316q1.945,0,1.945-1.125a.939.939,0,0,0-.258-.686,3.738,3.738,0,0,0-.891-.6q-.633-.334-1.687-.779a10.6,10.6,0,0,1-2.221-1.172,3.3,3.3,0,0,1-1.031-1.236,4.081,4.081,0,0,1-.322-1.717,3.112,3.112,0,0,1,1.354-2.7,6.593,6.593,0,0,1,3.838-.955,10.894,10.894,0,0,1,4.605,1.031l-1.078,2.578q-.984-.422-1.84-.691a5.777,5.777,0,0,0-1.746-.27q-1.582,0-1.582.855a1.006,1.006,0,0,0,.51.832,13.863,13.863,0,0,0,2.232,1.043,10.371,10.371,0,0,1,2.25,1.16,3.431,3.431,0,0,1,1.055,1.242A3.817,3.817,0,0,1,761.172,22.109Z" transform="translate(295 503)" fill="#fff"/>
      <path id="Caminho_1364" data-name="Caminho 1364" d="M32.124,15.768V20.3h7.2a.509.509,0,0,1,.576.576v4.176a.509.509,0,0,1-.576.576h-7.2v5.04h8.532a.509.509,0,0,1,.576.576v4.176a.509.509,0,0,1-.576.576H25.464a.509.509,0,0,1-.576-.576V11.016a.509.509,0,0,1,.576-.576H40.656a.509.509,0,0,1,.576.576v4.176a.509.509,0,0,1-.576.576ZM67.4,18.36A8.9,8.9,0,0,1,70,18.72a5.128,5.128,0,0,1,2.052,1.17,5.472,5.472,0,0,1,1.35,2.088,8.675,8.675,0,0,1,.486,3.078V35.424a.509.509,0,0,1-.576.576H67.3a.509.509,0,0,1-.576-.576l.036-10.116a2.136,2.136,0,0,0-.54-1.6,1.888,1.888,0,0,0-1.368-.522,1.908,1.908,0,0,0-1.458.594,2.3,2.3,0,0,0-.558,1.638V35.424a.509.509,0,0,1-.576.576H56.28a.509.509,0,0,1-.576-.576V25.308a2.136,2.136,0,0,0-.54-1.6,1.888,1.888,0,0,0-1.368-.522,1.851,1.851,0,0,0-1.44.594,2.345,2.345,0,0,0-.54,1.638V35.424A.509.509,0,0,1,51.24,36H45.228a.509.509,0,0,1-.576-.576V19.3a.509.509,0,0,1,.576-.576h5.4a.509.509,0,0,1,.576.576v2.088a5.219,5.219,0,0,1,2.214-2.3,6.576,6.576,0,0,1,3.078-.72,7.7,7.7,0,0,1,3.348.7,4.8,4.8,0,0,1,2.268,2.322A5.337,5.337,0,0,1,64.344,19.1,6.476,6.476,0,0,1,67.4,18.36Zm13.9-1.98a4.065,4.065,0,0,1-3.006-1.062,3.505,3.505,0,0,1-1.062-2.574,3.548,3.548,0,0,1,1.062-2.61,4.785,4.785,0,0,1,6.012,0,3.548,3.548,0,0,1,1.062,2.61,3.505,3.505,0,0,1-1.062,2.574A4.065,4.065,0,0,1,81.3,16.38ZM78.312,36a.509.509,0,0,1-.576-.576V19.3a.509.509,0,0,1,.576-.576h6.012a.509.509,0,0,1,.576.576V35.424a.509.509,0,0,1-.576.576Zm16.74.288A20.453,20.453,0,0,1,91.65,36a12.315,12.315,0,0,1-2.862-.792.675.675,0,0,1-.432-.684v-4.14q0-.4.216-.4a.615.615,0,0,1,.288.108,11.619,11.619,0,0,0,2.916,1.044,13.578,13.578,0,0,0,2.916.36,2.476,2.476,0,0,0,1.134-.216.7.7,0,0,0-.108-1.314q-.522-.2-2-.594a17.7,17.7,0,0,1-2.322-.738,6.351,6.351,0,0,1-1.764-1.044A4.351,4.351,0,0,1,88.5,26.118a4.767,4.767,0,0,1-.4-2.034,4.611,4.611,0,0,1,.666-2.5,5.675,5.675,0,0,1,1.8-1.782,8.6,8.6,0,0,1,2.682-1.08,14.764,14.764,0,0,1,3.348-.36,21.094,21.094,0,0,1,2.718.18,14.986,14.986,0,0,1,2.538.54.554.554,0,0,1,.432.612v3.852q0,.288-.252.288a.618.618,0,0,1-.252-.036,13.575,13.575,0,0,0-2.2-.612,11.828,11.828,0,0,0-2.3-.252q-1.872,0-1.872.9a.661.661,0,0,0,.522.648q.522.18,1.962.576a21.443,21.443,0,0,1,2.2.72,6.326,6.326,0,0,1,1.728.99,4.094,4.094,0,0,1,1.116,1.44,4.767,4.767,0,0,1,.4,2.034,5.258,5.258,0,0,1-.576,2.448,5.525,5.525,0,0,1-1.638,1.908,8.134,8.134,0,0,1-2.592,1.242A12.316,12.316,0,0,1,95.052,36.288Zm17.568,0a20.453,20.453,0,0,1-3.4-.288,12.315,12.315,0,0,1-2.862-.792.675.675,0,0,1-.432-.684v-4.14q0-.4.216-.4a.615.615,0,0,1,.288.108,11.619,11.619,0,0,0,2.916,1.044,13.578,13.578,0,0,0,2.916.36,2.476,2.476,0,0,0,1.134-.216.7.7,0,0,0-.108-1.314q-.522-.2-2-.594a17.7,17.7,0,0,1-2.322-.738,6.351,6.351,0,0,1-1.764-1.044,4.351,4.351,0,0,1-1.134-1.476,4.767,4.767,0,0,1-.4-2.034,4.611,4.611,0,0,1,.666-2.5,5.675,5.675,0,0,1,1.8-1.782,8.6,8.6,0,0,1,2.682-1.08,14.764,14.764,0,0,1,3.348-.36,21.094,21.094,0,0,1,2.718.18,14.986,14.986,0,0,1,2.538.54.554.554,0,0,1,.432.612v3.852q0,.288-.252.288a.618.618,0,0,1-.252-.036,13.575,13.575,0,0,0-2.2-.612,11.828,11.828,0,0,0-2.3-.252q-1.872,0-1.872.9a.661.661,0,0,0,.522.648q.522.18,1.962.576a21.443,21.443,0,0,1,2.2.72,6.326,6.326,0,0,1,1.728.99,4.094,4.094,0,0,1,1.116,1.44,4.767,4.767,0,0,1,.4,2.034,5.258,5.258,0,0,1-.576,2.448,5.525,5.525,0,0,1-1.638,1.908,8.134,8.134,0,0,1-2.592,1.242A12.316,12.316,0,0,1,112.62,36.288Zm20.088.072a10.128,10.128,0,0,1-3.78-.7,9.76,9.76,0,0,1-3.078-1.926,9.246,9.246,0,0,1-2.088-2.88,8.312,8.312,0,0,1-.774-3.564,8.194,8.194,0,0,1,.774-3.546,8.884,8.884,0,0,1,2.088-2.826,9.847,9.847,0,0,1,3.078-1.872,10.737,10.737,0,0,1,7.542,0,9.8,9.8,0,0,1,3.1,1.872,8.885,8.885,0,0,1,2.088,2.826,8.194,8.194,0,0,1,.774,3.546,8.655,8.655,0,0,1-.738,3.564,8.9,8.9,0,0,1-2.034,2.88,9.5,9.5,0,0,1-3.078,1.926A10.466,10.466,0,0,1,132.708,36.36Zm.036-5.616a3.191,3.191,0,0,0,2.322-.936,3.277,3.277,0,0,0,.954-2.448,3.231,3.231,0,0,0-.972-2.466,3.286,3.286,0,0,0-2.34-.918,3.252,3.252,0,0,0-2.34.936,3.2,3.2,0,0,0-.972,2.412,3.258,3.258,0,0,0,.99,2.484A3.314,3.314,0,0,0,132.744,30.744ZM135.3,16.236a3.355,3.355,0,0,1-1.584-.378q-.72-.378-1.332-.774-.5-.36-.954-.648a1.685,1.685,0,0,0-.918-.288q-1.08,0-1.3,1.548a.8.8,0,0,1-.108.288q-.072.108-.324.108h-2.592a.35.35,0,0,1-.4-.4,10.2,10.2,0,0,1,.324-2.286,6.581,6.581,0,0,1,.81-1.908,4.174,4.174,0,0,1,1.3-1.3,3.416,3.416,0,0,1,1.854-.486,3.568,3.568,0,0,1,1.818.468q.81.468,1.458.9.5.324.882.558a1.4,1.4,0,0,0,.738.234q.972,0,1.08-1.548a.8.8,0,0,1,.108-.288q.072-.108.324-.108h2.736a.35.35,0,0,1,.4.4,10.458,10.458,0,0,1-.378,2.286,6.392,6.392,0,0,1-.864,1.872,4.346,4.346,0,0,1-1.332,1.278A3.308,3.308,0,0,1,135.3,16.236Zm27.36,10.44a3.227,3.227,0,0,1-.288,1.728,1.491,1.491,0,0,1-1.188.36h-9.792a3.6,3.6,0,0,0,1.638,1.764,5.982,5.982,0,0,0,2.862.612,14.834,14.834,0,0,0,1.908-.126,13.156,13.156,0,0,0,1.764-.342,12.5,12.5,0,0,0,1.368-.468,2.178,2.178,0,0,1,.72-.216q.36,0,.36.5v3.492a1.116,1.116,0,0,1-.09.432.8.8,0,0,1-.306.36,10.913,10.913,0,0,1-3.024,1.08,17.88,17.88,0,0,1-3.96.432,12.244,12.244,0,0,1-4.032-.648,9.738,9.738,0,0,1-3.24-1.836,8.746,8.746,0,0,1-2.16-2.826,8.284,8.284,0,0,1-.792-3.654,8.485,8.485,0,0,1,.792-3.708,8.725,8.725,0,0,1,2.124-2.826,9.459,9.459,0,0,1,3.1-1.8,10.836,10.836,0,0,1,3.672-.63,10.516,10.516,0,0,1,3.168.486,7.969,7.969,0,0,1,2.754,1.494,7.229,7.229,0,0,1,1.926,2.574A8.954,8.954,0,0,1,162.66,26.676Zm-8.6-3.816a2.608,2.608,0,0,0-1.782.648,3.624,3.624,0,0,0-1.062,1.764h5.472a3.5,3.5,0,0,0-.828-1.674A2.27,2.27,0,0,0,154.056,22.86Zm17.856,13.428a20.453,20.453,0,0,1-3.4-.288,12.315,12.315,0,0,1-2.862-.792.675.675,0,0,1-.432-.684v-4.14q0-.4.216-.4a.616.616,0,0,1,.288.108,11.619,11.619,0,0,0,2.916,1.044,13.578,13.578,0,0,0,2.916.36,2.476,2.476,0,0,0,1.134-.216.7.7,0,0,0-.108-1.314q-.522-.2-2-.594a17.7,17.7,0,0,1-2.322-.738,6.351,6.351,0,0,1-1.764-1.044,4.351,4.351,0,0,1-1.134-1.476,4.767,4.767,0,0,1-.4-2.034,4.611,4.611,0,0,1,.666-2.5,5.675,5.675,0,0,1,1.8-1.782,8.6,8.6,0,0,1,2.682-1.08,14.764,14.764,0,0,1,3.348-.36,21.094,21.094,0,0,1,2.718.18,14.986,14.986,0,0,1,2.538.54.554.554,0,0,1,.432.612v3.852q0,.288-.252.288a.618.618,0,0,1-.252-.036,13.576,13.576,0,0,0-2.2-.612,11.828,11.828,0,0,0-2.3-.252q-1.872,0-1.872.9a.661.661,0,0,0,.522.648q.522.18,1.962.576a21.442,21.442,0,0,1,2.2.72,6.326,6.326,0,0,1,1.728.99,4.094,4.094,0,0,1,1.116,1.44,4.767,4.767,0,0,1,.4,2.034,5.258,5.258,0,0,1-.576,2.448,5.525,5.525,0,0,1-1.638,1.908,8.134,8.134,0,0,1-2.592,1.242A12.316,12.316,0,0,1,171.912,36.288Z" transform="translate(581 156)" fill="#fff"/>
      <path id="Caminho_1365" data-name="Caminho 1365" d="M151.75,24.24V34.68h13.62q.78,0,.78.84v5.22q0,.78-.84.78H151.75V53.16h15.66q.78,0,.78.84v5.22q0,.78-.84.78H144.13q-.78,0-.78-.84V18.18q0-.78.84-.78h23.22q.78,0,.78.84v5.22q0,.78-.84.78Zm40.5,6.36a11.055,11.055,0,0,1,8.04,2.91q3,2.91,3,8.85V59.22q0,.78-.84.78h-6.78q-.78,0-.78-.84V43.02a5.59,5.59,0,0,0-1.5-4.35,6.6,6.6,0,0,0-8.4.33,6.55,6.55,0,0,0-1.62,4.74h-.06V59.22q0,.78-.84.78h-6.72q-.78,0-.78-.84V31.98q0-.78.84-.78h6.36q.78,0,.78.84V35.4Q185.83,30.6,192.25,30.6Zm44.58,13.44a13.426,13.426,0,0,1-.09,1.74,2.2,2.2,0,0,1-.33.99,1.06,1.06,0,0,1-.66.42,5.31,5.31,0,0,1-1.08.09H217.15a7.373,7.373,0,0,0,2.94,4.62,9.921,9.921,0,0,0,5.88,1.62,20.566,20.566,0,0,0,3-.24,25.328,25.328,0,0,0,3.12-.66,16.582,16.582,0,0,0,2.31-.93,3.3,3.3,0,0,1,1.23-.45q.48,0,.48.72V56.7a1.4,1.4,0,0,1-.66,1.26,16.376,16.376,0,0,1-4.8,1.83,26.172,26.172,0,0,1-6,.69,17.631,17.631,0,0,1-6.24-1.08,14.679,14.679,0,0,1-4.98-3.06,14.31,14.31,0,0,1-3.3-4.71,14.976,14.976,0,0,1-1.2-6.09,15.37,15.37,0,0,1,1.17-6.06,14.224,14.224,0,0,1,7.95-7.8,15.364,15.364,0,0,1,5.76-1.08,15.018,15.018,0,0,1,4.89.81,11.7,11.7,0,0,1,4.17,2.46,11.941,11.941,0,0,1,2.88,4.17A15.169,15.169,0,0,1,236.83,44.04Zm-13.08-7.02a6.434,6.434,0,0,0-4.05,1.32,7.121,7.121,0,0,0-2.43,3.72h12.54a5.806,5.806,0,0,0-1.92-3.57A5.924,5.924,0,0,0,223.75,37.02Zm36.96-6.42q.78,0,.78.84v7.14q0,.72-.84.72a12.114,12.114,0,0,0-3.84.66,7.8,7.8,0,0,0-4.2,3.36,12.036,12.036,0,0,0-1.62,6.6v9.3q0,.78-.84.78h-6.78q-.78,0-.78-.84V31.98q0-.78.84-.78h6.48q.78,0,.78.84v7.44Q253.15,31.08,260.71,30.6Zm34.44.6q.78,0,.78.84v21.6a21.426,21.426,0,0,1-1.32,7.86,14.833,14.833,0,0,1-9.15,8.91,20.351,20.351,0,0,1-6.81,1.11,32.565,32.565,0,0,1-5.97-.51,16.362,16.362,0,0,1-4.83-1.65,1.184,1.184,0,0,1-.66-1.2V62.04q0-.48.24-.48a1.026,1.026,0,0,1,.48.18,17.783,17.783,0,0,0,4.77,2.07,18.918,18.918,0,0,0,4.95.69,10.524,10.524,0,0,0,6.93-2.16q2.61-2.16,2.61-6.42V54.36a11.339,11.339,0,0,1-4.08,3.33,11.747,11.747,0,0,1-5.1,1.11,12.838,12.838,0,0,1-5.13-1.02,12.664,12.664,0,0,1-4.14-2.85,12.9,12.9,0,0,1-2.76-4.41,15.967,15.967,0,0,1-.99-5.76,15.612,15.612,0,0,1,1.02-5.73,13.557,13.557,0,0,1,2.79-4.47,12.449,12.449,0,0,1,4.14-2.88,13.021,13.021,0,0,1,10.38.12,10.379,10.379,0,0,1,4.23,3.66V31.98q0-.78.84-.78ZM280.09,52.26a8,8,0,0,0,2.85-.51,6.74,6.74,0,0,0,2.34-1.47,6.929,6.929,0,0,0,1.56-2.31,8.338,8.338,0,0,0,0-6.06,7.269,7.269,0,0,0-1.56-2.34,6.884,6.884,0,0,0-2.34-1.53,7.6,7.6,0,0,0-2.85-.54,7.756,7.756,0,0,0-2.82.51,7.4,7.4,0,0,0-2.34,1.44,6.681,6.681,0,0,0-1.62,2.31,7.912,7.912,0,0,0-.6,3.18,7.538,7.538,0,0,0,.6,3.09,7.315,7.315,0,0,0,1.59,2.31,6.392,6.392,0,0,0,2.34,1.44A8.443,8.443,0,0,0,280.09,52.26Zm27.84-26.94a4.946,4.946,0,0,1-3.75-1.41,4.8,4.8,0,0,1-1.35-3.45,4.8,4.8,0,0,1,1.35-3.45,4.946,4.946,0,0,1,3.75-1.41,4.868,4.868,0,1,1,0,9.72ZM304.51,60q-.78,0-.78-.84V31.98q0-.78.84-.78h6.78q.78,0,.78.84V59.22q0,.78-.84.78Zm44.94-28.8q.78,0,.78.84V59.22q0,.78-.84.78h-6.66q-.78,0-.78-.84v-3.9a8.357,8.357,0,0,1-3.99,4.05,12.725,12.725,0,0,1-5.49,1.23,13.7,13.7,0,0,1-5.34-1.08,14.075,14.075,0,0,1-4.56-3.06,14.772,14.772,0,0,1-3.15-4.74,16.591,16.591,0,0,1,0-12.24,14.67,14.67,0,0,1,3.12-4.71,14.061,14.061,0,0,1,9.93-4.11,13.5,13.5,0,0,1,5.52,1.14,7.982,7.982,0,0,1,3.96,3.9V31.98q0-.78.84-.78ZM334.51,53.1a8,8,0,0,0,2.94-.54,7.14,7.14,0,0,0,2.4-1.53,7.339,7.339,0,0,0,1.62-2.37,7.751,7.751,0,0,0,.6-3.12,8.108,8.108,0,0,0-.57-3.12,6.964,6.964,0,0,0-1.59-2.37,6.774,6.774,0,0,0-2.4-1.5,8.589,8.589,0,0,0-3-.51,8.233,8.233,0,0,0-2.97.54,7.32,7.32,0,0,0-2.43,1.5,6.931,6.931,0,0,0-1.62,2.37,7.811,7.811,0,0,0-.6,3.09,7.431,7.431,0,0,0,.63,3.12,7.746,7.746,0,0,0,1.65,2.37,7.14,7.14,0,0,0,2.4,1.53A8,8,0,0,0,334.51,53.1Zm62.1-9.06a13.426,13.426,0,0,1-.09,1.74,2.2,2.2,0,0,1-.33.99,1.06,1.06,0,0,1-.66.42,5.31,5.31,0,0,1-1.08.09H376.93a7.373,7.373,0,0,0,2.94,4.62,9.921,9.921,0,0,0,5.88,1.62,20.567,20.567,0,0,0,3-.24,25.327,25.327,0,0,0,3.12-.66,16.582,16.582,0,0,0,2.31-.93,3.3,3.3,0,0,1,1.23-.45q.48,0,.48.72V56.7a1.4,1.4,0,0,1-.66,1.26,16.376,16.376,0,0,1-4.8,1.83,26.172,26.172,0,0,1-6,.69,17.631,17.631,0,0,1-6.24-1.08,14.679,14.679,0,0,1-4.98-3.06,14.31,14.31,0,0,1-3.3-4.71,14.977,14.977,0,0,1-1.2-6.09,15.37,15.37,0,0,1,1.17-6.06,14.224,14.224,0,0,1,7.95-7.8,15.364,15.364,0,0,1,5.76-1.08,15.018,15.018,0,0,1,4.89.81,11.7,11.7,0,0,1,4.17,2.46,11.941,11.941,0,0,1,2.88,4.17A15.169,15.169,0,0,1,396.61,44.04Zm-13.08-7.02a6.434,6.434,0,0,0-4.05,1.32,7.121,7.121,0,0,0-2.43,3.72h12.54a5.806,5.806,0,0,0-1.92-3.57A5.924,5.924,0,0,0,383.53,37.02Zm35.82-11.7a4.946,4.946,0,0,1-3.75-1.41,4.8,4.8,0,0,1-1.35-3.45,4.8,4.8,0,0,1,1.35-3.45,4.946,4.946,0,0,1,3.75-1.41,4.868,4.868,0,1,1,0,9.72ZM415.93,60q-.78,0-.78-.84V31.98q0-.78.84-.78h6.78q.78,0,.78.84V59.22q0,.78-.84.78Zm32.82-29.4a11.055,11.055,0,0,1,8.04,2.91q3,2.91,3,8.85V59.22q0,.78-.84.78h-6.78q-.78,0-.78-.84V43.02a5.59,5.59,0,0,0-1.5-4.35,6.6,6.6,0,0,0-8.4.33,6.55,6.55,0,0,0-1.62,4.74h-.06V59.22q0,.78-.84.78h-6.72q-.78,0-.78-.84V31.98q0-.78.84-.78h6.36q.78,0,.78.84V35.4Q442.33,30.6,448.75,30.6Zm47.82-15.42q.78,0,.78.84v43.2q0,.78-.84.78h-6.6q-.78,0-.78-.84v-3.9a8.849,8.849,0,0,1-1.77,2.37,10.1,10.1,0,0,1-2.34,1.65,10.87,10.87,0,0,1-2.7.96,13.378,13.378,0,0,1-2.79.3,13.648,13.648,0,0,1-9.84-4.14,15.309,15.309,0,0,1-3.09-4.74,15.528,15.528,0,0,1-1.17-6.12,16.264,16.264,0,0,1,1.11-6.12,13.95,13.95,0,0,1,13.05-8.82,14.809,14.809,0,0,1,2.79.27,10.99,10.99,0,0,1,2.67.87,9.393,9.393,0,0,1,2.31,1.56,8.393,8.393,0,0,1,1.77,2.34V15.96q0-.78.84-.78ZM481.69,53.1a8,8,0,0,0,2.94-.54,7.14,7.14,0,0,0,2.4-1.53,7.339,7.339,0,0,0,1.62-2.37,8.412,8.412,0,0,0,0-6.24,7.339,7.339,0,0,0-1.62-2.37,6.774,6.774,0,0,0-2.4-1.5,8.413,8.413,0,0,0-2.94-.51,8.162,8.162,0,0,0-3,.54,7.39,7.39,0,0,0-2.4,1.5,6.931,6.931,0,0,0-1.62,2.37,8.334,8.334,0,0,0,0,6.21,7.115,7.115,0,0,0,1.65,2.37,7.476,7.476,0,0,0,2.43,1.53A8,8,0,0,0,481.69,53.1Zm50.4-21.9q.78,0,.78.84V59.22q0,.78-.84.78h-6q-.78,0-.78-.84l-.12-3.54a9.739,9.739,0,0,1-3.69,3.63,10.832,10.832,0,0,1-5.37,1.29,12.523,12.523,0,0,1-4.41-.75,9.321,9.321,0,0,1-3.45-2.22,10.2,10.2,0,0,1-2.25-3.66,14.77,14.77,0,0,1-.81-5.13V31.98q0-.78.84-.78h6.78q.78,0,.78.84V48.3q0,3.06,1.47,4.41a5.583,5.583,0,0,0,3.93,1.35,5.039,5.039,0,0,0,4.08-1.71A6.521,6.521,0,0,0,524.47,48V31.98q0-.78.84-.78Zm-16.5-4.26q-.78,0-.42-.78l5.7-12.18a.785.785,0,0,1,1.08-.48l5.76,1.86q.42.06.42.42a1.382,1.382,0,0,1-.18.54L520.63,26.4a1.156,1.156,0,0,1-1.02.54Zm34.08,33.6a28.114,28.114,0,0,1-5.22-.51,18.032,18.032,0,0,1-4.44-1.35.9.9,0,0,1-.54-.9V52.2q0-.6.3-.6a.921.921,0,0,1,.36.12,22.582,22.582,0,0,0,4.59,1.62,20.592,20.592,0,0,0,4.83.6,6.608,6.608,0,0,0,3.21-.63,1.951,1.951,0,0,0,1.11-1.77,1.7,1.7,0,0,0-.33-1.08,2.817,2.817,0,0,0-1.02-.75,12.6,12.6,0,0,0-1.8-.66q-1.11-.33-2.67-.75a26.14,26.14,0,0,1-3.54-1.26,11.585,11.585,0,0,1-2.82-1.74,7.2,7.2,0,0,1-1.86-2.4,8.347,8.347,0,0,1,.3-7.14,8.45,8.45,0,0,1,2.64-2.82,12.731,12.731,0,0,1,4.02-1.74,20.242,20.242,0,0,1,5.04-.6,26.966,26.966,0,0,1,4.44.36,20.507,20.507,0,0,1,3.9,1.02.786.786,0,0,1,.54.84V38.1q0,.54-.36.54a1.132,1.132,0,0,1-.36-.06,23.639,23.639,0,0,0-3.87-1.11,19.734,19.734,0,0,0-3.93-.45,6.86,6.86,0,0,0-3.24.6,1.811,1.811,0,0,0-1.08,1.62,1.714,1.714,0,0,0,1.29,1.68q1.29.48,3.81,1.32a35.738,35.738,0,0,1,3.66,1.2,11.043,11.043,0,0,1,2.91,1.65,6.99,6.99,0,0,1,1.92,2.4,7.8,7.8,0,0,1,.69,3.45,8.426,8.426,0,0,1-3.33,6.99Q555.49,60.54,549.67,60.54Zm35.34-7.08a3.282,3.282,0,0,1,.72-.12q1.02,0,1.02,1.44v3.84a1.025,1.025,0,0,1-.78,1.08,16.315,16.315,0,0,1-3.03.69,23.172,23.172,0,0,1-3.03.21q-4.98,0-7.38-2.52t-2.4-7.92V37.08h-4.14q-.78,0-.78-.84V31.98q0-.78.84-.78h4.08V22.74q0-.78.84-.78h6.72q.78,0,.78.84v8.4h7.26q.78,0,.78.84V36.3q0,.78-.84.78h-7.2v12q0,4.62,4.14,4.62a11.783,11.783,0,0,0,1.23-.06Q584.41,53.58,585.01,53.46Zm25.2-22.86q.78,0,.78.84v7.14q0,.72-.84.72a12.114,12.114,0,0,0-3.84.66,7.8,7.8,0,0,0-4.2,3.36,12.036,12.036,0,0,0-1.62,6.6v9.3q0,.78-.84.78h-6.78q-.78,0-.78-.84V31.98q0-.78.84-.78h6.48q.78,0,.78.84v7.44Q602.65,31.08,610.21,30.6Zm10.32-5.28a4.946,4.946,0,0,1-3.75-1.41,4.8,4.8,0,0,1-1.35-3.45,4.8,4.8,0,0,1,1.35-3.45,4.946,4.946,0,0,1,3.75-1.41,4.868,4.868,0,1,1,0,9.72ZM617.11,60q-.78,0-.78-.84V31.98q0-.78.84-.78h6.78q.78,0,.78.84V59.22q0,.78-.84.78Zm44.94-28.8q.78,0,.78.84V59.22q0,.78-.84.78h-6.66q-.78,0-.78-.84v-3.9a8.357,8.357,0,0,1-3.99,4.05,12.725,12.725,0,0,1-5.49,1.23,13.7,13.7,0,0,1-5.34-1.08,14.076,14.076,0,0,1-4.56-3.06,14.772,14.772,0,0,1-3.15-4.74,16.591,16.591,0,0,1,0-12.24,14.67,14.67,0,0,1,3.12-4.71,14.061,14.061,0,0,1,9.93-4.11,13.5,13.5,0,0,1,5.52,1.14,7.982,7.982,0,0,1,3.96,3.9V31.98q0-.78.84-.78ZM647.11,53.1a8,8,0,0,0,2.94-.54,7.14,7.14,0,0,0,2.4-1.53,7.34,7.34,0,0,0,1.62-2.37,7.752,7.752,0,0,0,.6-3.12,8.108,8.108,0,0,0-.57-3.12,6.963,6.963,0,0,0-1.59-2.37,6.774,6.774,0,0,0-2.4-1.5,8.589,8.589,0,0,0-3-.51,8.233,8.233,0,0,0-2.97.54,7.32,7.32,0,0,0-2.43,1.5,6.931,6.931,0,0,0-1.62,2.37,7.81,7.81,0,0,0-.6,3.09,7.432,7.432,0,0,0,.63,3.12,7.746,7.746,0,0,0,1.65,2.37,7.14,7.14,0,0,0,2.4,1.53A8,8,0,0,0,647.11,53.1Z" transform="translate(280 189)" fill="#fff"/>
      <g id="Grupo_72" data-name="Grupo 72" transform="translate(192.079 39)">
        <path id="Subtração_1" data-name="Subtração 1" d="M182,187a185.27,185.27,0,0,1-18.608-.938,182.79,182.79,0,0,1-18.071-2.753,181.334,181.334,0,0,1-34.163-10.585,182.124,182.124,0,0,1-30.915-16.749,183.23,183.23,0,0,1-26.935-22.182,183.036,183.036,0,0,1-22.224-26.885A181.561,181.561,0,0,1,14.3,76.052a180.492,180.492,0,0,1-10.6-34.1A181.815,181.815,0,0,1,.94,23.916,184.226,184.226,0,0,1,0,5.343C0,3.567.026,1.77.077,0a180.482,180.482,0,0,0,55,124.852A181.205,181.205,0,0,0,182,176.314,181.206,181.206,0,0,0,308.92,124.852,180.482,180.482,0,0,0,363.923,0c.052,1.781.077,3.579.077,5.343a184.235,184.235,0,0,1-.94,18.573A181.811,181.811,0,0,1,360.3,41.953a180.488,180.488,0,0,1-10.6,34.1,181.563,181.563,0,0,1-16.78,30.857,183.03,183.03,0,0,1-22.224,26.885,183.23,183.23,0,0,1-26.936,22.182,182.121,182.121,0,0,1-30.915,16.749,181.335,181.335,0,0,1-34.163,10.585c-5.941,1.213-12.021,2.139-18.071,2.753A185.27,185.27,0,0,1,182,187Z" transform="translate(308.921 245)" fill="#fff" opacity="0.5"/>
        <path id="Subtração_2" data-name="Subtração 2" d="M182,187a183.681,183.681,0,0,1-36.679-3.691,181.335,181.335,0,0,1-34.163-10.585,182.129,182.129,0,0,1-30.915-16.749,183.237,183.237,0,0,1-26.935-22.182,183.04,183.04,0,0,1-22.224-26.885A181.561,181.561,0,0,1,14.3,76.052a180.488,180.488,0,0,1-10.6-34.1A182.664,182.664,0,0,1,0,5.343C0,3.569.026,1.771.077,0,2.94,98.868,82.849,176.314,182,176.314S361.06,98.868,363.922,0c.052,1.8.077,3.593.077,5.343a182.663,182.663,0,0,1-3.7,36.61,180.494,180.494,0,0,1-10.6,34.1,181.57,181.57,0,0,1-16.78,30.857,183.038,183.038,0,0,1-22.224,26.885,183.239,183.239,0,0,1-26.936,22.182,182.126,182.126,0,0,1-30.915,16.749,181.336,181.336,0,0,1-34.163,10.585A183.681,183.681,0,0,1,182,187Z" transform="translate(308.921 255)" fill="#cbdfb3" style="mix-blend-mode: multiply;isolation: isolate"/>
      </g>
      <g id="Grupo_184" data-name="Grupo 184" transform="translate(467.416 283.743)">
        <path id="Caminho_240" data-name="Caminho 240" d="M849.089,623.828c5.42-6.1,16.6-3.577,20.714,3.475s2.261,16.354-2.38,23.068-11.6,11.407-18.388,15.938l-84.171,56.169-19.676-60.4c31.658-16.734,64.226-28.484,98.645-38.363-1.683.8-1.307,3.85.521,4.221S850.324,625.225,849.089,623.828Z" transform="translate(-616.885 -558.751)" fill="#332727"/>
        <path id="Caminho_241" data-name="Caminho 241" d="M920.614,677.576c4.327.1,8.438-2.284,11.144-5.563a27.314,27.314,0,0,0,5.11-11.464,54.452,54.452,0,0,0,.2-23.334c-.812-3.846-3.03-8.379-7.077-8.4-2.722-.015-4.886,2.109-6.7,4.077l-9.772,10.581c-4.8,5.193-10.133,11.458-8.039,18.812C907.432,669.151,912.365,677.389,920.614,677.576Z" transform="translate(-686.3 -562.413)" fill="#423434"/>
        <path id="Caminho_242" data-name="Caminho 242" d="M808.154,716.428a82.932,82.932,0,0,1-7.5,37.087c-3.513,7.425-8.667,14.547-16.162,17.907s-17.624,1.742-21.946-5.243c-2.9-4.688-2.712-10.611-2.034-16.081a114.667,114.667,0,0,1,6.852-27.252c2.629-6.794,6.048-13.519,11.553-18.29C791.791,693.4,807.8,699.319,808.154,716.428Z" transform="translate(-623.359 -592.839)" fill="#423434"/>
        <path id="Caminho_243" data-name="Caminho 243" d="M802.127,765.953a12.671,12.671,0,0,0,1.5,5.112,5.14,5.14,0,0,0,4.393,2.626c2.247-.111,3.911-2.079,5.129-3.971,6.038-9.378,8.294-20.711,9.06-31.838.208-3.014.266-6.237-1.305-8.816-5.994-9.842-13.272,6.072-15.15,10.586A51.817,51.817,0,0,0,802.127,765.953Z" transform="translate(-641.444 -604.586)" fill="#a59898"/>
        <path id="Caminho_244" data-name="Caminho 244" d="M946.981,672.319c.051,1.024.4,2.323,1.575,2.475,1.191.155,1.966-1.03,2.337-2.019,1.216-3.235,6.547-22.692,1.476-24.478C948.136,646.806,946.839,669.47,946.981,672.319Z" transform="translate(-704.526 -570.845)" fill="#a59898"/>
        <path id="Caminho_245" data-name="Caminho 245" d="M760.029,604.763c.527-2.824.842-5.724,1.96-8.37s3.231-5.071,6.039-5.673a5.788,5.788,0,0,1,4.427.955,13.631,13.631,0,0,1,1.494,3.565,5.072,5.072,0,0,0,.433-.476l.026.1c0-.038-.012-.073-.016-.11,2.3-2.868.779-7.458-1.366-10.629-.8-1.18-1.678-2.39-2.455-3.634l-1.994-7.469c.49-2.319,2.156-4.438,1.85-6.787-.35-2.68-3-4.247-5.355-5.684-.259-.761-.533-1.517-.83-2.264a42.81,42.81,0,0,0-17.659-20.762c3.255,6.859,6.507,15.018,2.918,21.709-2.114,3.94-6.18,6.391-10.157,8.435-24.67,12.682-53.008,16.984-80.732,16.108s-55.045-6.715-81.967-13.393c.029-1.168.069.687.1-.481-9.829,2.97-19.727,5.968-28.822,10.736s-17.441,11.469-22.544,20.38c-7.162,12.506-7.193,27.706-6.933,42.116.105,5.833.343,12.046,3.67,16.84,3.487,5.025,9.6,7.4,15.347,9.492l74.189,27.064c12.553,4.58,26.856-1.2,39.852-4.3,4.882-1.167,9.838-2.647,13.8-5.734,7.237-5.645,9.689-15.384,11.141-24.447s2.569-18.724,8.265-25.922c4.111-5.2,11.611-8.587,17.458-5.473,4.349,2.317,6.459,7.583,6.4,12.51s-1.888,9.64-3.694,14.225c6.309-3.92,45.166-32.877,51.263-37.118C760.928,616.934,758.958,610.5,760.029,604.763Z" transform="translate(-518.371 -522.763)" fill="#e6302e"/>
        <path id="Caminho_246" data-name="Caminho 246" d="M532.35,646.946a18.068,18.068,0,0,1-1.02,5.441,4.907,4.907,0,0,1-4.175,3.184c-2.013,0-3.68-1.8-4.146-3.761a11,11,0,0,1,.64-5.925c2.341-7.1,8.332-17.183,15.816-19.743C536.269,632.965,533.141,639.242,532.35,646.946Z" transform="translate(-520.304 -561.254)" fill="#5e4d4d"/>
        <path id="Caminho_247" data-name="Caminho 247" d="M693.222,698.322c3.692,1.318,7.748,1.019,11.636.516,8.557-1.107,17.122-3.172,24.623-7.435s13.892-10.921,16.549-19.131c.668-2.064,1.044-4.494-.208-6.265-1.733-2.451-5.391-2.207-8.329-1.593A124.875,124.875,0,0,0,703.158,677.1c-4.655,2.547-12.184,5.832-15.5,10.073C684.216,691.571,688.645,696.688,693.222,698.322Z" transform="translate(-591.365 -577.697)" fill="#5e4d4d"/>
        <path id="Caminho_248" data-name="Caminho 248" d="M758.666,675.787l-18.91,7.428c-3.283,1.29-15.138,6.213-8.494-.862,3.252-3.463,8.331-5.739,12.866-6.847a28.7,28.7,0,0,1,7.659-.824C753.4,674.731,757.343,676.251,758.666,675.787Z" transform="translate(-609.973 -582.331)" fill="#a59898"/>
        <path id="Caminho_249" data-name="Caminho 249" d="M720.457,701.385c-1.907.884-4.192,1.318-6.085.406s-2.983-3.553-1.73-5.24l-3.706.24a6.7,6.7,0,0,1-9.8,8.074c-1.307-.811-2.313-2.057-3.664-2.793s-3.351-.729-4.117.6a2.723,2.723,0,0,0,.727,3.207,7.029,7.029,0,0,0,3.2,1.439c14.679,3.67,34.259-2.651,42.006-16.279C728.563,690.985,727.675,698.041,720.457,701.385Z" transform="translate(-593.386 -589.441)" fill="#a59898"/>
        <path id="Caminho_250" data-name="Caminho 250" d="M527.594,649.761a15.067,15.067,0,0,0,.949,10.993c2.4-2.3,2.039-6.146,1.632-9.443s-.388-7.274,2.351-9.152l-6.149,8.548" transform="translate(-521.848 -568.21)" fill="#a59898"/>
        <path id="Caminho_251" data-name="Caminho 251" d="M611.5,719.844c1.995-3.914,2.72-8.722.843-12.693-2.7-5.721-9.579-7.894-15.706-9.474l-47.071-12.143c-4.736-1.222-10.046-2.376-14.284.063-4.3,2.476-6.007,8.063-5.317,12.978.812,5.783,4.36,10.92,8.834,14.673s9.841,6.272,15.244,8.487a133.086,133.086,0,0,0,34.548,9.392c4.268.509,10.545,1.991,14.415-.425C606.316,728.634,609.779,723.221,611.5,719.844Z" transform="translate(-523.342 -586.454)" fill="#423434"/>
        <path id="Caminho_252" data-name="Caminho 252" d="M523.29,705.48c-1.624,8.044,2.652,16.373,8.844,21.758s14.055,8.382,21.771,11.173c16.79,6.073,34.242,11.744,52.074,10.863,5.182-.256,10.459-1.11,14.992-3.633s8.238-6.951,8.834-12.105c8.571-.506,16.946-.884,25.517-1.39,1.156-.068,2.459-.085,3.29.721,1.135,1.1.7,2.983.18,4.478-2.566,7.413-5.707,15.515-12.68,19.109-5.153,2.656-11.3,2.22-17.057,1.575a322.874,322.874,0,0,1-86.592-21.772c-6.941-2.848-14.053-6.171-18.687-12.072s-5.9-15.105-.9-20.694C523.474,704.31,522.694,704.662,523.29,705.48Z" transform="translate(-518.934 -594.849)" fill="#423434"/>
        <path id="Caminho_253" data-name="Caminho 253" d="M797.884,531.191c-6.5-7.745-16.128-12.324-25.965-14.67s-20.024-2.669-30.119-3.275c-19.012-1.142-38.205-3.313-57-.24s-37.637,12.326-47.172,28.813c.008-3.021-3.887-4.672-6.883-4.287a6.66,6.66,0,0,0-5.46,6.3,8.341,8.341,0,0,0,4.452,7.362l-10.67,6.868c16.672,6.73,33.518,12.657,51.339,15.032a208.653,208.653,0,0,0,103.752-12.728c5.5-2.176,11.058-4.687,15.18-8.932a23.7,23.7,0,0,0,6.282-20.009C795.7,531.819,797.8,530.793,797.884,531.191Z" transform="translate(-562.107 -511.43)" fill="#423434"/>
        <path id="Caminho_254" data-name="Caminho 254" d="M634.868,565.175c35.725,7.109,72.348,8.079,108.761,9.028A150.726,150.726,0,0,0,753.656,535.8l-71.032-7.788c-12-1.316-16.241,3.332-24.676,10.66a126.826,126.826,0,0,0-12.608,12.612C644.2,552.6,635.5,565.3,634.868,565.175Z" transform="translate(-568.97 -518.535)" fill="#a59898"/>
        <path id="Caminho_255" data-name="Caminho 255" d="M843.258,576.612a114.581,114.581,0,0,0,21.881-6.526c2.168-.891,4.472-2,5.528-4.09.835-1.657.717-3.615.58-5.465q-.687-9.257-1.375-18.513c-.107-1.45-.292-3.061-1.4-4.007-1.156-.991-2.867-.869-4.376-.666-9.006,1.214-11.445,2.084-14.216,10.614A168.818,168.818,0,0,0,843.258,576.612Z" transform="translate(-659.48 -522.625)" fill="#a59898"/>
        <path id="Caminho_256" data-name="Caminho 256" d="M899.838,565.646c4.6-1.406,9.3-3.759,11.521-8.023,2.8-5.368.83-11.872-1.177-17.582-2.091-5.948-9.98-3.308-11.1,1.76C898.571,544.1,900.137,565.555,899.838,565.646Z" transform="translate(-683.681 -522.375)" fill="#a59898"/>
        <path id="Caminho_257" data-name="Caminho 257" d="M786.556,527.45l-70.491-6.159c6.1-6.66,16.28-7.1,25.309-6.911q17.447.37,34.864,1.545,8.706.587,17.4,1.376c4.957.45,11.939,2.487,16.7,1.226C801.915,517.3,792.381,521.5,786.556,527.45Z" transform="translate(-604.236 -512.696)" fill="#332727"/>
        <path id="Caminho_258" data-name="Caminho 258" d="M630.752,644.155c-9,3.014-18.2,6.067-27.835,6.352-10.224.3-20.189-2.531-29.9-5.332-5.609-1.617-11.63-3.5-14.9-7.779-4.6-6.005-1.647-14.588,4.4-19.527s14.339-7.1,22.34-8.986,16.321-3.79,22.711-8.388a216,216,0,0,0-26.734,20.792c-2.635,2.408-5.35,5.186-5.442,8.51-.14,5.08,6.219,8.771,12.058,8.738s11.187-2.629,16.413-4.9c18.441-8,49.268-17.969,70.3-13.681,13,2.651,6.39,7.323-3.3,10.76C657.6,635.419,644.109,639.68,630.752,644.155Z" transform="translate(-534.657 -550.114)" fill="#c42222"/>
        <path id="Caminho_259" data-name="Caminho 259" d="M881.281,641.933c-.114-4.737-1.141-9.989,1.648-13.819,3.231-4.436,11.053-6.3,10.513-11.757-.469-4.744-7-5.861-11.637-4.749a36.875,36.875,0,0,0-20.726,13.644c-3.676,4.917-6.18,10.833-10.9,14.758-5.765,4.793-13.682,5.718-20.943,7.584s-15.077,5.764-17.037,13c5.327-2.038,10.873-4.108,16.559-3.667s11.546,4.174,12.484,9.8c.311,1.866.216,4.1,1.73,5.233,1.553,1.161,3.751.364,5.485-.5C858.755,666.3,881.612,655.767,881.281,641.933Z" transform="translate(-645.99 -554.768)" fill="#c42222"/>
        <path id="Caminho_260" data-name="Caminho 260" d="M904.1,595.043a621.2,621.2,0,0,1,.324,63.75" transform="translate(-685.906 -547.746)" fill="#c42222"/>
        <path id="Caminho_261" data-name="Caminho 261" d="M724.981,774.508c.44,1.2,1.307,2.462,2.582,2.518,1.479.065,2.454-1.479,3.062-2.828a13.053,13.053,0,0,0,1.351-4.5c.175-2.956-2.779-6.592-5.9-4.44C723.563,766.988,724.1,772.112,724.981,774.508Z" transform="translate(-607.79 -621.392)" fill="#e5cfcf"/>
        <path id="Caminho_262" data-name="Caminho 262" d="M521.713,713.951a11.142,11.142,0,0,0,.929,8.591,6.878,6.878,0,0,0-.893-8.436" transform="translate(-519.619 -599.391)" fill="#e5cfcf"/>
        <path id="Caminho_263" data-name="Caminho 263" d="M561.8,710.8c11.168,2.982,22.813,3.9,34.386,4.018l-32.215-10.756c2.188.471,4.2-1.958,3.8-4.1s-2.5-3.683-4.678-4.177a6.1,6.1,0,0,0-5.795,1.412c-1.392,1.515-1.273,4.287.541,5.3-1.875-1.049-5.176-1.172-7.294-1.727q-3.625-.95-7.2-2.073c-1.812-.568-10.3-4.248-6.589.523,2.343,3.017,8.33,5.27,11.763,6.843A83.674,83.674,0,0,0,561.8,710.8Z" transform="translate(-525.955 -591.417)" fill="#e5cfcf"/>
        <path id="Caminho_264" data-name="Caminho 264" d="M707.878,698.554h0Z" transform="translate(-600.343 -592.704)" fill="#c42222"/>
        <ellipse id="Elipse_22" data-name="Elipse 22" cx="3.688" cy="3.882" rx="3.688" ry="3.882" transform="translate(105.206 105.85)" fill="#e5cfcf"/>
        <ellipse id="Elipse_23" data-name="Elipse 23" cx="2.523" cy="2.523" rx="2.523" ry="2.523" transform="translate(123.061 104.686)" fill="#e5cfcf"/>
        <ellipse id="Elipse_24" data-name="Elipse 24" cx="9.316" cy="3.105" rx="9.316" ry="3.105" transform="matrix(0.178, -0.984, 0.984, 0.178, 166.868, 153.67)" fill="#e5cfcf"/>
        <ellipse id="Elipse_25" data-name="Elipse 25" cx="2.906" cy="1.11" rx="2.906" ry="1.11" transform="translate(243.918 93.821) rotate(-77.655)" fill="#e5cfcf"/>
      </g>
      <g id="Grupo_206" data-name="Grupo 206" transform="matrix(0.995, -0.105, 0.105, 0.995, 611.738, 257.719)">
        <g id="Grupo_205" data-name="Grupo 205" transform="translate(0 0)">
          <g id="Grupo_185" data-name="Grupo 185" transform="translate(41.965 29.338)">
            <path id="Caminho_265" data-name="Caminho 265" d="M15.367,24.488S13.2,35.291,9.212,36.4a2.464,2.464,0,0,1-.93.077C5.388,36.165,2.716,32.8,1.5,30.971c-.26-.389-.453-.705-.57-.911C-.589,27.39-1.1,24.653,6.275,20.7,10.518,18.425,12.035,4.106,18.63.178,23.006-2.43,15.367,24.488,15.367,24.488Z" transform="translate(0 0)" fill="#60e27c"/>
          </g>
          <g id="Grupo_186" data-name="Grupo 186" transform="translate(0 53.007)">
            <path id="Caminho_266" data-name="Caminho 266" d="M16.084,2.276S11-.6,9.237.113,4.916.872,5.07,1.538s4.463-.063,3.956,1.216c-.24.608-8.608.33-9,1.577s4.207,3.8,6.653,3.884a51.479,51.479,0,0,0,7.832-.953Z" transform="translate(0 0)" fill="#ffae73"/>
          </g>
          <g id="Grupo_187" data-name="Grupo 187" transform="translate(29.857 186.425)">
            <path id="Caminho_267" data-name="Caminho 267" d="M0,9.547l21.752,2.921c1.7-.847,1.109-11.447,1.109-11.447s-5.635-3.049-7.275,1.394S7.215,7.432,3.682,7.526C1.264,7.594.342,8.793,0,9.547Z" transform="translate(0 0)" fill="#2e5892"/>
          </g>
          <g id="Grupo_188" data-name="Grupo 188" transform="translate(44.854 82.192)">
            <path id="Caminho_268" data-name="Caminho 268" d="M32.555,11.126s-2.389,12.6-5.221,27.187C25.3,48.773,23.042,60.259,21.275,68.85c-.234,1.14-.462,2.23-.677,3.259-.065.319-.132.636-.2.953A195.121,195.121,0,0,1,8.735,108.637C2.445,109.1,0,106.376,0,106.376S2.417,56.424,3.53,36.3C4.35,21.479,6.238,0,6.238,0Z" transform="translate(0 0)" fill="#9fcbff"/>
          </g>
          <g id="Grupo_189" data-name="Grupo 189" transform="translate(60.163 103.219)">
            <path id="Caminho_269" data-name="Caminho 269" d="M12.024,17.286C9.99,27.747,7.733,39.232,5.965,47.824,3.233,37.856,0,0,0,0Z" transform="translate(0 0)" fill="#81caff"/>
          </g>
          <g id="Grupo_190" data-name="Grupo 190" transform="translate(62.118 190.757)">
            <path id="Caminho_270" data-name="Caminho 270" d="M0,9.547l21.752,2.921c1.7-.847,1.109-11.446,1.109-11.446s-5.634-3.05-7.274,1.393S7.215,7.432,3.682,7.527C1.264,7.593.342,8.793,0,9.547Z" transform="translate(0 0)" fill="#2e5892"/>
          </g>
          <g id="Grupo_191" data-name="Grupo 191" transform="translate(56.338 82.73)">
            <path id="Caminho_271" data-name="Caminho 271" d="M0,5.19S10.342,45.942,13.34,61.266c2.135,10.915,7.194,48.88,7.194,48.88a10.115,10.115,0,0,0,8.149-.16s8.736-36.921,2.655-48.478C28.113,55.376,38.163,3.185,22.1.57S0,5.19,0,5.19Z" transform="translate(0 0)" fill="#9fcbff"/>
          </g>
          <g id="Grupo_192" data-name="Grupo 192" transform="translate(48.973 26.685)">
            <path id="Caminho_272" data-name="Caminho 272" d="M42.4,42.236c-.55,3.905-1.09,7.62-1.561,10.833-.318,2.175-.6,4.121-.842,5.742-.363,2.468-.613,4.181-.686,4.8-.4,3.333-2.631,3.8-4.893,4.011,0,0-2.084.165-4.7.256a50.631,50.631,0,0,1-7.766-.21A69.687,69.687,0,0,1,2.364,61.678C.312,61.4-.2,58.1.062,53.626.237,50.595,5.179,20.8,6.3,13.348,7.1,8,10.7,3.446,11.622,2.832,20.143-2.88,42.5.985,45.925,6.173c.847,1.283-.351,12.4-1.945,24.536C43.475,34.543,42.933,38.477,42.4,42.236Z" transform="translate(0 0)" fill="#60e27c"/>
          </g>
          <g id="Grupo_193" data-name="Grupo 193" transform="translate(70.71 18.108)">
            <path id="Caminho_273" data-name="Caminho 273" d="M12.243,10.433C8.957,13.156-.618,11.4.032,8.727.115,8.4.445,6.419.518,6.115c.058-.244.114-.483.164-.708q.233-.99.4-1.75c.328-1.471.477-2.272.477-2.272l.01,0C1.856,1.346,8.289.419,11.469.1A5.012,5.012,0,0,1,13.215.049C11.341,6.845,13.32,9.538,12.243,10.433Z" transform="translate(0 0)" fill="#ffae73"/>
          </g>
          <g id="Grupo_194" data-name="Grupo 194" transform="translate(71.792 18.212)">
            <path id="Caminho_274" data-name="Caminho 274" d="M10.439,2.087S7.5,4.368,0,3.554C.328,2.083.477,1.282.477,1.282l.01,0C.774,1.243,7.206.316,10.386,0,10.9.3,9.985,1.646,10.439,2.087Z" transform="translate(0 0)" fill="#f9924f"/>
          </g>
          <g id="Grupo_195" data-name="Grupo 195" transform="translate(68.029 3.317)">
            <path id="Caminho_275" data-name="Caminho 275" d="M3.324,20.492a23.614,23.614,0,0,0,4.456-.18c3.559-.484,7.995-2,8.266-6.545C16.5,6.12,18.4,1.089,10.584.176,6.4-.314,3.973.27,2.5,1.3A5.863,5.863,0,0,0,.3,4.6C-.472,7.119.145,20.053,3.324,20.492Z" transform="translate(0 0)" fill="#ffae73"/>
          </g>
          <g id="Grupo_196" data-name="Grupo 196" transform="translate(70.055 19.017)">
            <path id="Caminho_276" data-name="Caminho 276" d="M0,.295s.1.945,2.4,1.087c0,0,1.933.119,2-.9A6.221,6.221,0,0,0,0,.295Z" transform="translate(0 0)" fill="#fff"/>
          </g>
          <g id="Grupo_197" data-name="Grupo 197" transform="translate(86.17 32.858)">
            <path id="Caminho_277" data-name="Caminho 277" d="M8.727,0s8.837,18,7.509,37.335c0,0,.137,5.329-6.769,3.786S-.881,27.442.194,17.693,8.727,0,8.727,0Z" transform="translate(0 0)" fill="#60e27c"/>
          </g>
          <g id="Grupo_200" data-name="Grupo 200" transform="translate(60.546 77.192)">
            <g id="Grupo_198" data-name="Grupo 198" transform="translate(0 0)">
              <path id="Caminho_278" data-name="Caminho 278" d="M14.924,0S11.2,3.339,9.605,2.7,5.982.794,4.34,1.63-.3,4.991.024,6s2.858.96,4.794.541S8.96,8.275,10.666,7.651A50.758,50.758,0,0,0,16.948,3.9Z" fill="#ffae73"/>
            </g>
            <g id="Grupo_199" data-name="Grupo 199" transform="translate(6.567 0.227)">
              <path id="Caminho_279" data-name="Caminho 279" d="M3.038,2.476S1.139.865.559.244-.064.334.052.73A2.532,2.532,0,0,0,1.366,2.379,2.861,2.861,0,0,0,3.038,2.476Z" transform="translate(0 0)" fill="#ffae73"/>
            </g>
          </g>
          <g id="Grupo_201" data-name="Grupo 201" transform="translate(70.814 64.586)">
            <path id="Caminho_280" data-name="Caminho 280" d="M0,15.725S19,1.8,22.676.423A7.589,7.589,0,0,1,31.316,3.3c1.4,2.492-1.735,6.276-10.251,9.543-6.739,2.586-18.994,6.49-18.994,6.49Z" transform="translate(0 0)" fill="#ffae73"/>
          </g>
          <g id="Grupo_203" data-name="Grupo 203" transform="translate(43.462 59.706)">
            <g id="Grupo_202" data-name="Grupo 202" transform="translate(0 0)">
              <path id="Caminho_281" data-name="Caminho 281" d="M7.716,6.031v0a2.464,2.464,0,0,1-.93.077C3.891,5.8,1.219,2.43,0,.6,1.8-.121,4.648-.286,5.74.629,7.518,2.121,7.567.281,8.471.4S7.716,6.031,7.716,6.031Z" fill="#23af33"/>
            </g>
          </g>
          <g id="Grupo_204" data-name="Grupo 204" transform="translate(14.508 53.342)">
            <path id="Caminho_282" data-name="Caminho 282" d="M0,6.927s33.5,4.906,36.455.963S30.9.837,27.86.163C24.44-.6,17.652,1.512,12.182,2.111a59.547,59.547,0,0,1-10.607-.17Z" transform="translate(0 0)" fill="#ffae73"/>
          </g>
          <path id="Caminho_283" data-name="Caminho 283" d="M20.874,13.847a20.7,20.7,0,0,0,.253-7.185A7.976,7.976,0,0,0,17.189.908,10.336,10.336,0,0,0,13.081.046,36.546,36.546,0,0,0,0,1.776,3.708,3.708,0,0,0,1.82,3.23a2.819,2.819,0,0,1-1.636.176A3.392,3.392,0,0,0,2.049,4.672L.3,5A3.16,3.16,0,0,0,3.119,6.539a2.968,2.968,0,0,0-.065,3.419L3.6,7.814a5.693,5.693,0,0,0,5.209,1.5,16.812,16.812,0,0,0,5.2-2.166,9.2,9.2,0,0,0,.5,4.131l.6-1.557c-.182.475.733,2.425.864,2.986a30.016,30.016,0,0,1,.549,3.06,29.888,29.888,0,0,1,.233,3.22c.007.4-.3,2.448,0,2.691C18.35,22.983,20.744,14.639,20.874,13.847Z" transform="translate(65.017 0)" fill="#1e3865"/>
          <path id="Caminho_284" data-name="Caminho 284" d="M0,2.25A3.681,3.681,0,0,0,3.247,4.286,5.446,5.446,0,0,0,6.919,2.833C7.629,2.211,8.9.963,8.906.012,8.3-.172,5.689,1.847,4.76,2.117,4.137,2.3.357,3.057,0,2.25Z" transform="translate(71.128 21.573)" fill="#e29764"/>
        </g>
      </g>
      <g id="Grupo_216" data-name="Grupo 216" transform="translate(725.961 278.743)">
        <path id="Caminho_285" data-name="Caminho 285" d="M1801.037,3486.836l-78.9,33.7.457-11.881,78.509-33.714Z" transform="translate(-1659.067 -3325.975)" fill="#71896a"/>
        <path id="Caminho_286" data-name="Caminho 286" d="M1595.681,3527.894l-63.093-24.152-.437,11.365,63.073,24.668Z" transform="translate(-1532.151 -3345.216)" fill="#586d51"/>
        <path id="Caminho_287" data-name="Caminho 287" d="M1675.068,3432.048l-.969.417-77.539,33.3-63.093-24.152,85-30.878" transform="translate(-1533.03 -3283.083)" fill="#9ba597"/>
        <g id="Grupo_209" data-name="Grupo 209" transform="translate(100.635 28.42)">
          <g id="Grupo_207" data-name="Grupo 207" transform="translate(0 0)">
            <path id="Caminho_288" data-name="Caminho 288" d="M1847.656,3204.323a8.35,8.35,0,0,1-5.451-2.083c-5-4.267-6.233-13.431-6.528-17.172a109.524,109.524,0,0,1,.267-15.772c.072-1.1.145-2.207.209-3.308.331-5.63.486-12.128-.868-17.647l5.481-1.345c1.533,6.247,1.376,13.273,1.021,19.323-.065,1.114-.138,2.229-.212,3.346a105.328,105.328,0,0,0-.272,14.958c.485,6.143,2.277,11.373,4.564,13.322a2.57,2.57,0,0,0,2.307.68c1.752-.358,3.687-2.284,5.051-5.027,2.923-5.876,3.514-14.007,3.5-19.793a82.012,82.012,0,0,0-5.475-29.8c-1.359-3.353-3.008-6.575-4.6-9.692-3.293-6.432-6.7-13.084-8.048-21.6l5.574-.884c1.209,7.624,4.263,13.591,7.5,19.908,1.651,3.225,3.358,6.561,4.81,10.144a87.786,87.786,0,0,1,5.888,31.9c.02,6.4-.672,15.46-4.086,22.324-2.185,4.393-5.456,7.324-8.974,8.043A8.224,8.224,0,0,1,1847.656,3204.323Z" transform="translate(-1835.284 -3111.835)" fill="#353a39"/>
          </g>
          <g id="Grupo_208" data-name="Grupo 208" transform="translate(1.612 0.26)">
            <path id="Caminho_289" data-name="Caminho 289" d="M1850.878,3203.188a6.632,6.632,0,0,1-4.353-1.689c-3.145-2.681-5.369-8.677-5.951-16.04a108.325,108.325,0,0,1,.268-15.532c.073-1.108.145-2.214.21-3.319.338-5.753.494-12.407-.913-18.14l2.257-.554c1.48,6.033,1.324,12.9.976,18.83-.065,1.11-.138,2.222-.211,3.334a106.544,106.544,0,0,0-.27,15.2c.526,6.661,2.5,12.2,5.141,14.455a4.219,4.219,0,0,0,3.716,1.043c2.275-.465,4.594-2.676,6.205-5.914,3.067-6.167,3.688-14.573,3.669-20.538a83.7,83.7,0,0,0-5.6-30.416c-1.386-3.421-3.053-6.677-4.664-9.825-3.233-6.317-6.577-12.849-7.886-21.1l2.3-.364c1.251,7.885,4.364,13.967,7.659,20.4,1.635,3.193,3.325,6.5,4.75,10.011a86.094,86.094,0,0,1,5.766,31.282c.02,6.216-.643,15.005-3.912,21.58-1.955,3.932-4.806,6.54-7.82,7.156A6.7,6.7,0,0,1,1850.878,3203.188Z" transform="translate(-1840.14 -3112.618)" fill="#535958"/>
          </g>
        </g>
        <path id="Caminho_290" data-name="Caminho 290" d="M1735.594,3223.176l44.763-15.854V3069.768l-44.763,15.854Z" transform="translate(-1668.055 -3055.313)" fill="#bcb1b1"/>
        <path id="Caminho_291" data-name="Caminho 291" d="M1661,3086.116l-37.07-9.326v132.425l36.837,14.455Z" transform="translate(-1593.463 -3060.004)" fill="#a59898"/>
        <path id="Caminho_292" data-name="Caminho 292" d="M1781.521,3057.573l-46.629,16.553v-5.362l46.4-16.553Z" transform="translate(-1667.586 -3043.584)" fill="#4eaf33"/>
        <path id="Caminho_293" data-name="Caminho 293" d="M1657.485,3082.369l-38.469-9.792v5.129l38.469,10.025Z" transform="translate(-1590.179 -3057.189)" fill="#408e26"/>
        <path id="Caminho_294" data-name="Caminho 294" d="M1703.881,3034.853l-.573.2-45.823,16.349-38.469-9.792,50.359-15.387" transform="translate(-1590.179 -3026.227)" fill="#7acc5e"/>
        <path id="Caminho_295" data-name="Caminho 295" d="M1776.192,3338.037l-45.827,14.473-1.007,50.359,46.368-16.106Z" transform="translate(-1663.889 -3234.521)" fill="#7acc5e"/>
        <path id="Caminho_296" data-name="Caminho 296" d="M1658.419,3357.314l-36.259-12.086-.5,49.352,35.755,13.094Z" transform="translate(-1591.943 -3239.325)" fill="#62af46"/>
        <path id="Caminho_297" data-name="Caminho 297" d="M1753.151,3145.667l33.339-10.491V3101.37l-33.339,10.491Z" transform="translate(-1679.783 -3076.424)" fill="#74aaa5"/>
        <path id="Caminho_298" data-name="Caminho 298" d="M1749.64,3107.809l35.671-11.225v36.25l-35.671,11.225Zm33.339-8.047-31.008,9.758v31.362l31.008-9.758Z" transform="translate(-1677.438 -3073.226)" fill="#686d66"/>
        <path id="Caminho_299" data-name="Caminho 299" d="M1753.151,3266.459l33.339-10.491v-33.806l-33.339,10.491Z" transform="translate(-1679.783 -3157.115)" fill="#74aaa5"/>
        <path id="Caminho_300" data-name="Caminho 300" d="M1749.64,3228.6l35.671-11.225v36.25l-35.671,11.225Zm33.339-8.047-31.008,9.758v31.362l31.008-9.758Z" transform="translate(-1677.438 -3153.918)" fill="#686d66"/>
        <path id="Caminho_301" data-name="Caminho 301" d="M1766.881,3131.872v14.153l-4.714,1.483v-14.115Z" transform="translate(-1685.806 -3096.8)" fill="#686d66"/>
        <path id="Caminho_302" data-name="Caminho 302" d="M1784.217,3126.28v14.227l-4.714,1.483V3127.8Z" transform="translate(-1697.387 -3093.064)" fill="#686d66"/>
        <path id="Caminho_303" data-name="Caminho 303" d="M1801.552,3120.688v14.324l-4.714,1.483v-14.287Z" transform="translate(-1708.967 -3089.329)" fill="#686d66"/>
        <path id="Caminho_304" data-name="Caminho 304" d="M1818.888,3115.1v14.41l-4.714,1.483v-14.373Z" transform="translate(-1720.547 -3085.593)" fill="#686d66"/>
        <path id="Caminho_305" data-name="Caminho 305" d="M1836.223,3109.5v14.25l-4.714,1.483v-14.213Z" transform="translate(-1732.128 -3081.858)" fill="#686d66"/>
        <path id="Caminho_306" data-name="Caminho 306" d="M1679.364,3138.932l.7-27.744-12.357-3.5-.233,30.075,11.312,3.46Z" transform="translate(-1622.549 -3080.646)" fill="#7a6a6a"/>
        <path id="Caminho_307" data-name="Caminho 307" d="M1670.057,3108.493v30.215l-2.583-.942.233-30.075Z" transform="translate(-1622.549 -3080.646)" fill="#494040"/>
        <g id="Grupo_210" data-name="Grupo 210" transform="translate(35.529 56.667)">
          <path id="Caminho_308" data-name="Caminho 308" d="M1682.046,3205.19l-12.3,4.367v-1.415l12.241-4.368Z" transform="translate(-1659.594 -3201.499)" fill="#4eaf33"/>
          <path id="Caminho_309" data-name="Caminho 309" d="M1649.322,3211.733l-10.149-2.584v1.353l10.149,2.645Z" transform="translate(-1639.172 -3205.089)" fill="#408e26"/>
          <path id="Caminho_310" data-name="Caminho 310" d="M1661.562,3199.2l-.151.054-12.09,4.313-10.149-2.583,13.286-4.06" transform="translate(-1639.172 -3196.92)" fill="#7acc5e"/>
        </g>
        <g id="Grupo_211" data-name="Grupo 211" transform="translate(14.825 58.401)">
          <path id="Caminho_311" data-name="Caminho 311" d="M1595.521,3294.764c-4.808,0-9.807-2.82-13.179-7.9-4.623-6.961-5.56-16.149-5.533-22.631a69.35,69.35,0,0,1,7.926-32.18,115.554,115.554,0,0,1,6.437-10.168c4.3-6.286,8.354-12.222,9.947-19.744l5.521,1.169c-1.824,8.614-6.392,15.3-10.809,21.759a111.533,111.533,0,0,0-6.133,9.669,63.608,63.608,0,0,0-7.245,29.518c-.025,5.7.752,13.706,4.59,19.486,2.7,4.064,7.742,6.993,11.773,4.421,3.127-2,5.472-7.042,6.118-13.166a77.338,77.338,0,0,0-.365-14.826c-.1-1.118-.2-2.234-.283-3.349-.48-6.117-.689-13.228,1.392-19.584l5.364,1.757c-1.772,5.411-1.566,11.825-1.13,17.386.086,1.1.182,2.2.279,3.3a82.752,82.752,0,0,1,.356,15.909c-.835,7.909-4.085,14.388-8.694,17.33A11.665,11.665,0,0,1,1595.521,3294.764Z" transform="translate(-1576.808 -3202.142)" fill="#353a39"/>
        </g>
        <g id="Grupo_212" data-name="Grupo 212" transform="translate(16.485 58.745)">
          <path id="Caminho_312" data-name="Caminho 312" d="M1598.864,3293.791c-4.268,0-8.751-2.562-11.8-7.152-4.392-6.614-5.283-15.455-5.256-21.706a67.659,67.659,0,0,1,7.726-31.4,114.317,114.317,0,0,1,6.348-10.021c4.392-6.425,8.54-12.494,10.2-20.337l2.273.481c-1.756,8.294-6.229,14.838-10.555,21.167a112.865,112.865,0,0,0-6.222,9.815,65.3,65.3,0,0,0-7.445,30.3c-.026,5.929.8,14.283,4.868,20.411,3.136,4.723,9.126,8.044,14.049,4.9,3.6-2.3,6.167-7.676,6.876-14.39a79.739,79.739,0,0,0-.362-15.145c-.1-1.112-.194-2.224-.281-3.334-.467-5.954-.676-12.86,1.315-18.938l2.209.724c-1.864,5.688-1.656,12.308-1.207,18.033.087,1.1.183,2.207.279,3.313a81.472,81.472,0,0,1,.358,15.591c-.782,7.411-3.749,13.432-7.936,16.1A10.006,10.006,0,0,1,1598.864,3293.791Z" transform="translate(-1581.808 -3203.178)" fill="#535958"/>
        </g>
        <g id="Grupo_214" data-name="Grupo 214" transform="translate(38.051 32.351)">
          <g id="Grupo_213" data-name="Grupo 213" transform="translate(10.689)">
            <path id="Caminho_313" data-name="Caminho 313" d="M1680.406,3132.476l4.315-5.4a6.115,6.115,0,0,1,1.373-1.386,2.039,2.039,0,0,1,1.853-.271" transform="translate(-1679.929 -3124.759)" fill="none" stroke="#cedbd8" stroke-miterlimit="10" stroke-width="8"/>
            <path id="Caminho_314" data-name="Caminho 314" d="M1680.406,3132.476l4.315-5.4a6.115,6.115,0,0,1,1.373-1.386,2.039,2.039,0,0,1,1.853-.271" transform="translate(-1679.929 -3124.759)" fill="none" stroke="#646b69" stroke-miterlimit="10" stroke-width="6"/>
            <path id="Caminho_315" data-name="Caminho 315" d="M1680.406,3132.476l4.315-5.4a6.115,6.115,0,0,1,1.373-1.386,2.039,2.039,0,0,1,1.853-.271" transform="translate(-1679.929 -3124.759)" fill="none" stroke="#dfefea" stroke-miterlimit="10" stroke-width="1"/>
            <path id="Caminho_316" data-name="Caminho 316" d="M1678.968,3131.351l4.615-5.777a6.534,6.534,0,0,1,1.468-1.481,2.18,2.18,0,0,1,1.982-.29" transform="translate(-1678.968 -3123.674)" fill="none" stroke="#393d3c" stroke-miterlimit="10" stroke-width="1"/>
          </g>
          <path id="Caminho_317" data-name="Caminho 317" d="M1668.794,3152.443l.166,3.067,1.231,1.785-1.039,2.43-7.419-.637,5.316-7.1Z" transform="translate(-1656.765 -3142.587)" fill="#aa1a25"/>
          <path id="Caminho_318" data-name="Caminho 318" d="M1659.621,3144.331s-6.188,7.586-6.51,8.118-1.229,11.091-1.229,11.091a5.393,5.393,0,0,1-3.549-.585l.859-10s-3.047.019-2.306-2.157a29.79,29.79,0,0,1,3.548-5.853l3.274.561,3.357-3.631Z" transform="translate(-1646.77 -3135.831)" fill="#c62126"/>
          <path id="Caminho_319" data-name="Caminho 319" d="M1668.439,3175.106a2.578,2.578,0,0,1,.882,1.635,7.34,7.34,0,0,1-.012,1.9q-.173,1.811-.411,3.614a3.6,3.6,0,0,1-.733,2.06,2.412,2.412,0,0,1-2.669.367,7.129,7.129,0,0,1-2.227-1.786" transform="translate(-1657.792 -3158.032)" fill="none" stroke="#565b5c" stroke-miterlimit="10" stroke-width="4"/>
          <path id="Caminho_320" data-name="Caminho 320" d="M1670.483,3181.9a5.861,5.861,0,0,1-1.387-3.712,7.74,7.74,0,0,1,1.241-3.754C1667.349,3175.633,1668.694,3180.263,1670.483,3181.9Z" transform="translate(-1661.337 -3157.58)" fill="#a59898"/>
          <path id="Caminho_321" data-name="Caminho 321" d="M1654.5,3204.545a.2.2,0,0,0,0-.037,9.1,9.1,0,0,1-4.448-.382.225.225,0,0,0-.01.035l-.235,2.737a.2.2,0,0,0,.028.116l0,.044.059.022a.208.208,0,0,0,.044.027.185.185,0,0,0,.063.019h0l.027,0a8.738,8.738,0,0,0,2.014.4,8.487,8.487,0,0,0,2.229-.082l.091-1.064h-.012Z" transform="translate(-1648.794 -3177.418)" fill="#565b5a"/>
        </g>
        <g id="Grupo_215" data-name="Grupo 215" transform="translate(34.597 91.406)">
          <path id="Caminho_322" data-name="Caminho 322" d="M1679.237,3309.829l-12.3,4.368v-1.415l12.241-4.367Z" transform="translate(-1656.785 -3306.138)" fill="#4eaf33"/>
          <path id="Caminho_323" data-name="Caminho 323" d="M1646.512,3316.371l-10.149-2.583v1.353l10.149,2.645Z" transform="translate(-1636.363 -3309.728)" fill="#408e26"/>
          <path id="Caminho_324" data-name="Caminho 324" d="M1658.753,3303.835l-.151.054-12.09,4.313-10.149-2.583,13.286-4.06" transform="translate(-1636.363 -3301.559)" fill="#7acc5e"/>
        </g>
      </g>
      <rect id="Retângulo_134" data-name="Retângulo 134" width="174" height="36" rx="6" transform="translate(596 454)" fill="#fff"/>
      <path id="Caminho_1367" data-name="Caminho 1367" d="M15.136,21H12.108V9.242H8.231V6.723H19.013v2.52H15.136Zm9.1-7.939h.977a3.736,3.736,0,0,0,2.119-.479,1.708,1.708,0,0,0,.684-1.5,1.562,1.562,0,0,0-.7-1.445,4.237,4.237,0,0,0-2.163-.43h-.918Zm0,2.461V21H21.21V6.723h4.16a7.12,7.12,0,0,1,4.307,1.06A3.782,3.782,0,0,1,31.073,11a3.788,3.788,0,0,1-.693,2.241,4.588,4.588,0,0,1-1.963,1.538q3.223,4.814,4.2,6.221H29.257l-3.408-5.479ZM43.153,21l-1.035-3.4H36.913L35.878,21H32.616L37.655,6.664h3.7L46.415,21ZM41.4,15.063q-1.436-4.619-1.616-5.225t-.259-.957q-.322,1.25-1.846,6.182ZM60.878,21H57.03L50.819,10.2h-.088q.186,2.861.186,4.082V21H48.212V6.723H52.03l6.2,10.693H58.3q-.146-2.783-.146-3.936V6.723h2.725ZM72.9,17.035a3.691,3.691,0,0,1-1.392,3.047A6.045,6.045,0,0,1,67.636,21.2a9.094,9.094,0,0,1-4.043-.859V17.523a16.661,16.661,0,0,0,2.446.908,7.239,7.239,0,0,0,1.831.264,2.6,2.6,0,0,0,1.528-.381,1.3,1.3,0,0,0,.532-1.133,1.251,1.251,0,0,0-.234-.747,2.623,2.623,0,0,0-.688-.63,17.707,17.707,0,0,0-1.851-.967,8.771,8.771,0,0,1-1.963-1.182,4.436,4.436,0,0,1-1.045-1.318,3.762,3.762,0,0,1-.391-1.758A3.69,3.69,0,0,1,65.043,7.6a5.336,5.336,0,0,1,3.55-1.084,8.383,8.383,0,0,1,2.124.264,14.6,14.6,0,0,1,2.114.742l-.977,2.354a14.288,14.288,0,0,0-1.89-.654,6.082,6.082,0,0,0-1.47-.186,1.946,1.946,0,0,0-1.318.4,1.321,1.321,0,0,0-.459,1.045,1.293,1.293,0,0,0,.186.7,2.04,2.04,0,0,0,.591.576,18.267,18.267,0,0,0,1.919,1,7.635,7.635,0,0,1,2.744,1.919A3.745,3.745,0,0,1,72.9,17.035Zm5.615-3.594h1a3.317,3.317,0,0,0,2.09-.552,1.931,1.931,0,0,0,.693-1.606,1.98,1.98,0,0,0-.581-1.572A2.723,2.723,0,0,0,79.892,9.2H78.515Zm6.836-2.266A4.364,4.364,0,0,1,83.91,14.7a6.161,6.161,0,0,1-4.1,1.221h-1.3V21H75.487V6.723h4.561A6.066,6.066,0,0,1,84,7.841,4.077,4.077,0,0,1,85.351,11.176ZM101,13.842a7.747,7.747,0,0,1-1.758,5.449,7.619,7.619,0,0,1-10.078,0,7.778,7.778,0,0,1-1.758-5.469,7.672,7.672,0,0,1,1.763-5.444A6.592,6.592,0,0,1,94.228,6.5a6.5,6.5,0,0,1,5.034,1.895A7.767,7.767,0,0,1,101,13.842Zm-10.42,0a5.964,5.964,0,0,0,.908,3.6,3.178,3.178,0,0,0,2.715,1.211q3.623,0,3.623-4.814t-3.6-4.824A3.2,3.2,0,0,0,91.5,10.233,5.939,5.939,0,0,0,90.585,13.842Zm16.406-.781h.977a3.736,3.736,0,0,0,2.119-.479,1.708,1.708,0,0,0,.684-1.5,1.562,1.562,0,0,0-.7-1.445,4.237,4.237,0,0,0-2.163-.43h-.918Zm0,2.461V21h-3.027V6.723h4.16a7.12,7.12,0,0,1,4.307,1.06,3.782,3.782,0,0,1,1.4,3.218,3.788,3.788,0,0,1-.693,2.241,4.588,4.588,0,0,1-1.963,1.538q3.223,4.814,4.2,6.221h-3.359L108.6,15.521ZM122.675,21h-3.027V9.242h-3.877V6.723h10.781v2.52h-3.877Zm14.3,0h-8.223V6.723h8.223V9.2h-5.2v3.135h4.834v2.48h-4.834V18.5h5.2Zm11.406-3.965a3.691,3.691,0,0,1-1.392,3.047,6.045,6.045,0,0,1-3.872,1.113,9.094,9.094,0,0,1-4.043-.859V17.523a16.661,16.661,0,0,0,2.446.908,7.239,7.239,0,0,0,1.831.264,2.6,2.6,0,0,0,1.528-.381,1.3,1.3,0,0,0,.532-1.133,1.251,1.251,0,0,0-.234-.747,2.623,2.623,0,0,0-.688-.63,17.707,17.707,0,0,0-1.851-.967,8.772,8.772,0,0,1-1.963-1.182,4.436,4.436,0,0,1-1.045-1.318,3.762,3.762,0,0,1-.391-1.758A3.69,3.69,0,0,1,140.521,7.6a5.336,5.336,0,0,1,3.55-1.084,8.383,8.383,0,0,1,2.124.264,14.6,14.6,0,0,1,2.114.742l-.977,2.354a14.288,14.288,0,0,0-1.89-.654,6.082,6.082,0,0,0-1.47-.186,1.946,1.946,0,0,0-1.318.4,1.321,1.321,0,0,0-.459,1.045,1.293,1.293,0,0,0,.186.7,2.04,2.04,0,0,0,.591.576,18.269,18.269,0,0,0,1.919,1,7.635,7.635,0,0,1,2.744,1.919A3.745,3.745,0,0,1,148.378,17.035Z" transform="translate(605 459)" fill="#2d9881"/>
    </g>
  </g>
</svg>
