<svg xmlns="http://www.w3.org/2000/svg" xmlns:xlink="http://www.w3.org/1999/xlink" width="1000" height="436" viewBox="0 0 1000 436">
  <defs>
    <clipPath id="clip-viagens_aereas_img_1">
      <rect width="1000" height="436"/>
    </clipPath>
  </defs>
  <g id="viagens_aereas_img_1" data-name="viagens aereas img – 1" clip-path="url(#clip-viagens_aereas_img_1)">
    <g id="Grupo_1052" data-name="Grupo 1052" transform="translate(-183.35 -120)">
      <path id="Caminho_1368" data-name="Caminho 1368" d="M310.293,8.867h3.668L308.137,26h-3.961L298.363,8.867h3.668l3.223,10.2q.27.9.557,2.1t.357,1.67a30.017,30.017,0,0,1,.879-3.773Zm5.391.645q0-1.746,1.945-1.746t1.945,1.746a1.7,1.7,0,0,1-.486,1.295,2.044,2.044,0,0,1-1.459.463Q315.684,11.27,315.684,9.512ZM319.41,26h-3.574V12.9h3.574Zm12.07,0-.691-1.781H330.7a5.279,5.279,0,0,1-1.857,1.576,6,6,0,0,1-2.49.439,4.027,4.027,0,0,1-2.971-1.078,4.14,4.14,0,0,1-1.084-3.07,3.457,3.457,0,0,1,1.459-3.076,8.454,8.454,0,0,1,4.4-1.1l2.273-.07V17.27a1.782,1.782,0,0,0-2.039-1.992,9.292,9.292,0,0,0-3.691.949l-1.184-2.414a10.651,10.651,0,0,1,5.016-1.184,6.248,6.248,0,0,1,4.043,1.148,4.244,4.244,0,0,1,1.406,3.492V26Zm-1.055-6.07-1.383.047a4.428,4.428,0,0,0-2.32.563,1.767,1.767,0,0,0-.762,1.57q0,1.512,1.734,1.512a2.747,2.747,0,0,0,1.986-.715,2.511,2.511,0,0,0,.744-1.9ZM349.059,12.9v1.816l-2.051.527a3.575,3.575,0,0,1,.563,1.969A3.975,3.975,0,0,1,346.1,20.5a6.37,6.37,0,0,1-4.084,1.178l-.645-.035-.527-.059a1.189,1.189,0,0,0-.551.938q0,.773,1.969.773h2.227a5.079,5.079,0,0,1,3.287.926,3.309,3.309,0,0,1,1.131,2.719A4.032,4.032,0,0,1,346.99,30.5a9.979,9.979,0,0,1-5.5,1.266,7.617,7.617,0,0,1-4.189-.955,3.033,3.033,0,0,1-1.447-2.678,2.8,2.8,0,0,1,.738-1.98,4.192,4.192,0,0,1,2.168-1.137,2.392,2.392,0,0,1-.961-.768,1.886,1.886,0,0,1,.023-2.379,5.013,5.013,0,0,1,1.254-.979,3.517,3.517,0,0,1-1.635-1.43,4.351,4.351,0,0,1-.6-2.32,4.092,4.092,0,0,1,1.395-3.316,6.03,6.03,0,0,1,3.984-1.172,10.2,10.2,0,0,1,1.307.1q.756.1.967.146ZM338.945,27.852a1.3,1.3,0,0,0,.709,1.16,3.9,3.9,0,0,0,1.986.422,7.036,7.036,0,0,0,3.012-.527,1.607,1.607,0,0,0,1.09-1.441,1.02,1.02,0,0,0-.645-1.02,5.278,5.278,0,0,0-1.992-.281h-1.852a2.8,2.8,0,0,0-1.646.463A1.428,1.428,0,0,0,338.945,27.852Zm1.3-10.664a2.668,2.668,0,0,0,.486,1.688,1.766,1.766,0,0,0,1.482.621,1.73,1.73,0,0,0,1.477-.621,2.739,2.739,0,0,0,.469-1.687q0-2.367-1.945-2.367Q340.246,14.82,340.246,17.188ZM356.641,15.2a2.267,2.267,0,0,0-1.781.721,3.336,3.336,0,0,0-.738,2.045h5.016a2.979,2.979,0,0,0-.691-2.045A2.341,2.341,0,0,0,356.641,15.2Zm.5,11.039a6.762,6.762,0,0,1-4.945-1.746,6.611,6.611,0,0,1-1.781-4.945,7.272,7.272,0,0,1,1.646-5.092,5.863,5.863,0,0,1,4.553-1.8,5.771,5.771,0,0,1,4.324,1.582,5.985,5.985,0,0,1,1.547,4.371V20.34h-8.449a3.44,3.44,0,0,0,.9,2.379,3.175,3.175,0,0,0,2.367.855,9.827,9.827,0,0,0,2.238-.246,11.2,11.2,0,0,0,2.2-.785v2.766a8.393,8.393,0,0,1-2,.7A12.635,12.635,0,0,1,357.145,26.234ZM377.488,26h-3.574V18.348a3.676,3.676,0,0,0-.5-2.127,1.833,1.833,0,0,0-1.605-.709,2.414,2.414,0,0,0-2.168,1,6.214,6.214,0,0,0-.668,3.322V26h-3.574V12.9h2.73l.48,1.676h.2a3.777,3.777,0,0,1,1.646-1.436,5.607,5.607,0,0,1,2.385-.486,4.582,4.582,0,0,1,3.469,1.236,4.961,4.961,0,0,1,1.184,3.568Zm12.82-3.891a3.607,3.607,0,0,1-1.4,3.07,6.919,6.919,0,0,1-4.189,1.055,13.159,13.159,0,0,1-2.437-.193,9.22,9.22,0,0,1-1.887-.568V22.52a12.46,12.46,0,0,0,2.244.785,9.087,9.087,0,0,0,2.2.316q1.945,0,1.945-1.125a.939.939,0,0,0-.258-.686,3.738,3.738,0,0,0-.891-.6q-.633-.334-1.687-.779a10.6,10.6,0,0,1-2.221-1.172,3.3,3.3,0,0,1-1.031-1.236,4.081,4.081,0,0,1-.322-1.717,3.112,3.112,0,0,1,1.354-2.7,6.593,6.593,0,0,1,3.838-.955,10.894,10.894,0,0,1,4.605,1.031l-1.078,2.578q-.984-.422-1.84-.691a5.777,5.777,0,0,0-1.746-.27q-1.582,0-1.582.855a1.006,1.006,0,0,0,.51.832,13.863,13.863,0,0,0,2.232,1.043,10.371,10.371,0,0,1,2.25,1.16,3.431,3.431,0,0,1,1.055,1.242A3.817,3.817,0,0,1,390.309,22.109ZM407.652,26l-.691-1.781h-.094a5.279,5.279,0,0,1-1.857,1.576,6,6,0,0,1-2.49.439,4.027,4.027,0,0,1-2.971-1.078,4.14,4.14,0,0,1-1.084-3.07,3.457,3.457,0,0,1,1.459-3.076,8.454,8.454,0,0,1,4.4-1.1l2.273-.07V17.27a1.782,1.782,0,0,0-2.039-1.992,9.292,9.292,0,0,0-3.691.949l-1.184-2.414a10.651,10.651,0,0,1,5.016-1.184,6.248,6.248,0,0,1,4.043,1.148,4.244,4.244,0,0,1,1.406,3.492V26ZM406.6,19.93l-1.383.047a4.428,4.428,0,0,0-2.32.563,1.767,1.767,0,0,0-.762,1.57q0,1.512,1.734,1.512a2.747,2.747,0,0,0,1.986-.715,2.511,2.511,0,0,0,.744-1.9ZM419.254,15.2a2.267,2.267,0,0,0-1.781.721,3.336,3.336,0,0,0-.738,2.045h5.016a2.979,2.979,0,0,0-.691-2.045A2.341,2.341,0,0,0,419.254,15.2Zm.5,11.039a6.762,6.762,0,0,1-4.945-1.746,6.611,6.611,0,0,1-1.781-4.945,7.272,7.272,0,0,1,1.646-5.092,5.863,5.863,0,0,1,4.553-1.8,5.771,5.771,0,0,1,4.324,1.582,5.985,5.985,0,0,1,1.547,4.371V20.34h-8.449a3.44,3.44,0,0,0,.9,2.379,3.175,3.175,0,0,0,2.367.855,9.827,9.827,0,0,0,2.238-.246,11.2,11.2,0,0,0,2.2-.785v2.766a8.393,8.393,0,0,1-2,.7A12.635,12.635,0,0,1,419.758,26.234Zm-2.566-14.777v-.316a32.993,32.993,0,0,0,2.754-3.527h4.008v.246q-.609.609-2.08,1.811t-2.3,1.787Zm18.129,1.2a5.764,5.764,0,0,1,1.207.105l-.27,3.352a4.1,4.1,0,0,0-1.055-.117,3.79,3.79,0,0,0-2.666.879,3.177,3.177,0,0,0-.955,2.461V26h-3.574V12.9h2.707l.527,2.2h.176a4.925,4.925,0,0,1,1.646-1.775A4.06,4.06,0,0,1,435.32,12.652Zm9.012,2.543a2.267,2.267,0,0,0-1.781.721,3.336,3.336,0,0,0-.738,2.045h5.016a2.979,2.979,0,0,0-.691-2.045A2.341,2.341,0,0,0,444.332,15.2Zm.5,11.039a6.762,6.762,0,0,1-4.945-1.746,6.611,6.611,0,0,1-1.781-4.945,7.272,7.272,0,0,1,1.646-5.092,5.863,5.863,0,0,1,4.553-1.8,5.771,5.771,0,0,1,4.324,1.582,5.985,5.985,0,0,1,1.547,4.371V20.34H441.73a3.44,3.44,0,0,0,.9,2.379,3.175,3.175,0,0,0,2.367.855,9.827,9.827,0,0,0,2.238-.246,11.2,11.2,0,0,0,2.2-.785v2.766a8.393,8.393,0,0,1-2,.7A12.635,12.635,0,0,1,444.836,26.234ZM461.406,26l-.691-1.781h-.094a5.279,5.279,0,0,1-1.857,1.576,6,6,0,0,1-2.49.439,4.027,4.027,0,0,1-2.971-1.078,4.14,4.14,0,0,1-1.084-3.07,3.457,3.457,0,0,1,1.459-3.076,8.454,8.454,0,0,1,4.4-1.1l2.273-.07V17.27a1.782,1.782,0,0,0-2.039-1.992,9.292,9.292,0,0,0-3.691.949l-1.184-2.414a10.651,10.651,0,0,1,5.016-1.184,6.248,6.248,0,0,1,4.043,1.148A4.244,4.244,0,0,1,463.9,17.27V26Zm-1.055-6.07-1.383.047a4.428,4.428,0,0,0-2.32.563,1.767,1.767,0,0,0-.762,1.57q0,1.512,1.734,1.512a2.747,2.747,0,0,0,1.986-.715,2.511,2.511,0,0,0,.744-1.9Zm16.371,2.18a3.607,3.607,0,0,1-1.4,3.07,6.919,6.919,0,0,1-4.189,1.055,13.159,13.159,0,0,1-2.437-.193,9.22,9.22,0,0,1-1.887-.568V22.52a12.46,12.46,0,0,0,2.244.785,9.087,9.087,0,0,0,2.2.316q1.945,0,1.945-1.125a.939.939,0,0,0-.258-.686,3.738,3.738,0,0,0-.891-.6q-.633-.334-1.687-.779a10.6,10.6,0,0,1-2.221-1.172,3.3,3.3,0,0,1-1.031-1.236,4.081,4.081,0,0,1-.322-1.717,3.112,3.112,0,0,1,1.354-2.7,6.593,6.593,0,0,1,3.838-.955,10.894,10.894,0,0,1,4.605,1.031L475.5,16.262q-.984-.422-1.84-.691a5.777,5.777,0,0,0-1.746-.27q-1.582,0-1.582.855a1.006,1.006,0,0,0,.51.832,13.863,13.863,0,0,0,2.232,1.043,10.371,10.371,0,0,1,2.25,1.16,3.431,3.431,0,0,1,1.055,1.242A3.817,3.817,0,0,1,476.723,22.109Z" transform="translate(295 503)" fill="#fff"/>
      <g id="Grupo_967" data-name="Grupo 967">
        <g id="Grupo_72" data-name="Grupo 72" transform="translate(192.079 39)">
          <path id="Subtração_1" data-name="Subtração 1" d="M182,187a185.27,185.27,0,0,1-18.608-.938,182.79,182.79,0,0,1-18.071-2.753,181.334,181.334,0,0,1-34.163-10.585,182.124,182.124,0,0,1-30.915-16.749,183.23,183.23,0,0,1-26.935-22.182,183.036,183.036,0,0,1-22.224-26.885A181.561,181.561,0,0,1,14.3,76.052a180.492,180.492,0,0,1-10.6-34.1A181.815,181.815,0,0,1,.94,23.916,184.226,184.226,0,0,1,0,5.343C0,3.567.026,1.77.077,0a180.482,180.482,0,0,0,55,124.852A181.205,181.205,0,0,0,182,176.314,181.206,181.206,0,0,0,308.92,124.852,180.482,180.482,0,0,0,363.923,0c.052,1.781.077,3.579.077,5.343a184.235,184.235,0,0,1-.94,18.573A181.811,181.811,0,0,1,360.3,41.953a180.488,180.488,0,0,1-10.6,34.1,181.563,181.563,0,0,1-16.78,30.857,183.03,183.03,0,0,1-22.224,26.885,183.23,183.23,0,0,1-26.936,22.182,182.121,182.121,0,0,1-30.915,16.749,181.335,181.335,0,0,1-34.163,10.585c-5.941,1.213-12.021,2.139-18.071,2.753A185.27,185.27,0,0,1,182,187Z" transform="translate(308.921 245)" fill="#fff" opacity="0.5"/>
          <path id="Subtração_2" data-name="Subtração 2" d="M182,187a183.681,183.681,0,0,1-36.679-3.691,181.335,181.335,0,0,1-34.163-10.585,182.129,182.129,0,0,1-30.915-16.749,183.237,183.237,0,0,1-26.935-22.182,183.04,183.04,0,0,1-22.224-26.885A181.561,181.561,0,0,1,14.3,76.052a180.488,180.488,0,0,1-10.6-34.1A182.664,182.664,0,0,1,0,5.343C0,3.569.026,1.771.077,0,2.94,98.868,82.849,176.314,182,176.314S361.06,98.868,363.922,0c.052,1.8.077,3.593.077,5.343a182.663,182.663,0,0,1-3.7,36.61,180.494,180.494,0,0,1-10.6,34.1,181.57,181.57,0,0,1-16.78,30.857,183.038,183.038,0,0,1-22.224,26.885,183.239,183.239,0,0,1-26.936,22.182,182.126,182.126,0,0,1-30.915,16.749,181.336,181.336,0,0,1-34.163,10.585A183.681,183.681,0,0,1,182,187Z" transform="translate(308.921 255)" fill="#cbdfb3" style="mix-blend-mode: multiply;isolation: isolate"/>
        </g>
        <path id="Caminho_1369" data-name="Caminho 1369" d="M32.124,15.768V20.3h7.2a.509.509,0,0,1,.576.576v4.176a.509.509,0,0,1-.576.576h-7.2v5.04h8.532a.509.509,0,0,1,.576.576v4.176a.509.509,0,0,1-.576.576H25.464a.509.509,0,0,1-.576-.576V11.016a.509.509,0,0,1,.576-.576H40.656a.509.509,0,0,1,.576.576v4.176a.509.509,0,0,1-.576.576ZM67.4,18.36A8.9,8.9,0,0,1,70,18.72a5.128,5.128,0,0,1,2.052,1.17,5.472,5.472,0,0,1,1.35,2.088,8.675,8.675,0,0,1,.486,3.078V35.424a.509.509,0,0,1-.576.576H67.3a.509.509,0,0,1-.576-.576l.036-10.116a2.136,2.136,0,0,0-.54-1.6,1.888,1.888,0,0,0-1.368-.522,1.908,1.908,0,0,0-1.458.594,2.3,2.3,0,0,0-.558,1.638V35.424a.509.509,0,0,1-.576.576H56.28a.509.509,0,0,1-.576-.576V25.308a2.136,2.136,0,0,0-.54-1.6,1.888,1.888,0,0,0-1.368-.522,1.851,1.851,0,0,0-1.44.594,2.345,2.345,0,0,0-.54,1.638V35.424A.509.509,0,0,1,51.24,36H45.228a.509.509,0,0,1-.576-.576V19.3a.509.509,0,0,1,.576-.576h5.4a.509.509,0,0,1,.576.576v2.088a5.219,5.219,0,0,1,2.214-2.3,6.576,6.576,0,0,1,3.078-.72,7.7,7.7,0,0,1,3.348.7,4.8,4.8,0,0,1,2.268,2.322A5.337,5.337,0,0,1,64.344,19.1,6.476,6.476,0,0,1,67.4,18.36Zm13.9-1.98a4.065,4.065,0,0,1-3.006-1.062,3.505,3.505,0,0,1-1.062-2.574,3.548,3.548,0,0,1,1.062-2.61,4.785,4.785,0,0,1,6.012,0,3.548,3.548,0,0,1,1.062,2.61,3.505,3.505,0,0,1-1.062,2.574A4.065,4.065,0,0,1,81.3,16.38ZM78.312,36a.509.509,0,0,1-.576-.576V19.3a.509.509,0,0,1,.576-.576h6.012a.509.509,0,0,1,.576.576V35.424a.509.509,0,0,1-.576.576Zm16.74.288A20.453,20.453,0,0,1,91.65,36a12.315,12.315,0,0,1-2.862-.792.675.675,0,0,1-.432-.684v-4.14q0-.4.216-.4a.615.615,0,0,1,.288.108,11.619,11.619,0,0,0,2.916,1.044,13.578,13.578,0,0,0,2.916.36,2.476,2.476,0,0,0,1.134-.216.7.7,0,0,0-.108-1.314q-.522-.2-2-.594a17.7,17.7,0,0,1-2.322-.738,6.351,6.351,0,0,1-1.764-1.044A4.351,4.351,0,0,1,88.5,26.118a4.767,4.767,0,0,1-.4-2.034,4.611,4.611,0,0,1,.666-2.5,5.675,5.675,0,0,1,1.8-1.782,8.6,8.6,0,0,1,2.682-1.08,14.764,14.764,0,0,1,3.348-.36,21.094,21.094,0,0,1,2.718.18,14.986,14.986,0,0,1,2.538.54.554.554,0,0,1,.432.612v3.852q0,.288-.252.288a.618.618,0,0,1-.252-.036,13.575,13.575,0,0,0-2.2-.612,11.828,11.828,0,0,0-2.3-.252q-1.872,0-1.872.9a.661.661,0,0,0,.522.648q.522.18,1.962.576a21.443,21.443,0,0,1,2.2.72,6.326,6.326,0,0,1,1.728.99,4.094,4.094,0,0,1,1.116,1.44,4.767,4.767,0,0,1,.4,2.034,5.258,5.258,0,0,1-.576,2.448,5.525,5.525,0,0,1-1.638,1.908,8.134,8.134,0,0,1-2.592,1.242A12.316,12.316,0,0,1,95.052,36.288Zm17.568,0a20.453,20.453,0,0,1-3.4-.288,12.315,12.315,0,0,1-2.862-.792.675.675,0,0,1-.432-.684v-4.14q0-.4.216-.4a.615.615,0,0,1,.288.108,11.619,11.619,0,0,0,2.916,1.044,13.578,13.578,0,0,0,2.916.36,2.476,2.476,0,0,0,1.134-.216.7.7,0,0,0-.108-1.314q-.522-.2-2-.594a17.7,17.7,0,0,1-2.322-.738,6.351,6.351,0,0,1-1.764-1.044,4.351,4.351,0,0,1-1.134-1.476,4.767,4.767,0,0,1-.4-2.034,4.611,4.611,0,0,1,.666-2.5,5.675,5.675,0,0,1,1.8-1.782,8.6,8.6,0,0,1,2.682-1.08,14.764,14.764,0,0,1,3.348-.36,21.094,21.094,0,0,1,2.718.18,14.986,14.986,0,0,1,2.538.54.554.554,0,0,1,.432.612v3.852q0,.288-.252.288a.618.618,0,0,1-.252-.036,13.575,13.575,0,0,0-2.2-.612,11.828,11.828,0,0,0-2.3-.252q-1.872,0-1.872.9a.661.661,0,0,0,.522.648q.522.18,1.962.576a21.443,21.443,0,0,1,2.2.72,6.326,6.326,0,0,1,1.728.99,4.094,4.094,0,0,1,1.116,1.44,4.767,4.767,0,0,1,.4,2.034,5.258,5.258,0,0,1-.576,2.448,5.525,5.525,0,0,1-1.638,1.908,8.134,8.134,0,0,1-2.592,1.242A12.316,12.316,0,0,1,112.62,36.288Zm20.088.072a10.128,10.128,0,0,1-3.78-.7,9.76,9.76,0,0,1-3.078-1.926,9.246,9.246,0,0,1-2.088-2.88,8.312,8.312,0,0,1-.774-3.564,8.194,8.194,0,0,1,.774-3.546,8.884,8.884,0,0,1,2.088-2.826,9.847,9.847,0,0,1,3.078-1.872,10.737,10.737,0,0,1,7.542,0,9.8,9.8,0,0,1,3.1,1.872,8.885,8.885,0,0,1,2.088,2.826,8.194,8.194,0,0,1,.774,3.546,8.655,8.655,0,0,1-.738,3.564,8.9,8.9,0,0,1-2.034,2.88,9.5,9.5,0,0,1-3.078,1.926A10.466,10.466,0,0,1,132.708,36.36Zm.036-5.616a3.191,3.191,0,0,0,2.322-.936,3.277,3.277,0,0,0,.954-2.448,3.231,3.231,0,0,0-.972-2.466,3.286,3.286,0,0,0-2.34-.918,3.252,3.252,0,0,0-2.34.936,3.2,3.2,0,0,0-.972,2.412,3.258,3.258,0,0,0,.99,2.484A3.314,3.314,0,0,0,132.744,30.744ZM135.3,16.236a3.355,3.355,0,0,1-1.584-.378q-.72-.378-1.332-.774-.5-.36-.954-.648a1.685,1.685,0,0,0-.918-.288q-1.08,0-1.3,1.548a.8.8,0,0,1-.108.288q-.072.108-.324.108h-2.592a.35.35,0,0,1-.4-.4,10.2,10.2,0,0,1,.324-2.286,6.581,6.581,0,0,1,.81-1.908,4.174,4.174,0,0,1,1.3-1.3,3.416,3.416,0,0,1,1.854-.486,3.568,3.568,0,0,1,1.818.468q.81.468,1.458.9.5.324.882.558a1.4,1.4,0,0,0,.738.234q.972,0,1.08-1.548a.8.8,0,0,1,.108-.288q.072-.108.324-.108h2.736a.35.35,0,0,1,.4.4,10.458,10.458,0,0,1-.378,2.286,6.392,6.392,0,0,1-.864,1.872,4.346,4.346,0,0,1-1.332,1.278A3.308,3.308,0,0,1,135.3,16.236Zm27.36,10.44a3.227,3.227,0,0,1-.288,1.728,1.491,1.491,0,0,1-1.188.36h-9.792a3.6,3.6,0,0,0,1.638,1.764,5.982,5.982,0,0,0,2.862.612,14.834,14.834,0,0,0,1.908-.126,13.156,13.156,0,0,0,1.764-.342,12.5,12.5,0,0,0,1.368-.468,2.178,2.178,0,0,1,.72-.216q.36,0,.36.5v3.492a1.116,1.116,0,0,1-.09.432.8.8,0,0,1-.306.36,10.913,10.913,0,0,1-3.024,1.08,17.88,17.88,0,0,1-3.96.432,12.244,12.244,0,0,1-4.032-.648,9.738,9.738,0,0,1-3.24-1.836,8.746,8.746,0,0,1-2.16-2.826,8.284,8.284,0,0,1-.792-3.654,8.485,8.485,0,0,1,.792-3.708,8.725,8.725,0,0,1,2.124-2.826,9.459,9.459,0,0,1,3.1-1.8,10.836,10.836,0,0,1,3.672-.63,10.516,10.516,0,0,1,3.168.486,7.969,7.969,0,0,1,2.754,1.494,7.229,7.229,0,0,1,1.926,2.574A8.954,8.954,0,0,1,162.66,26.676Zm-8.6-3.816a2.608,2.608,0,0,0-1.782.648,3.624,3.624,0,0,0-1.062,1.764h5.472a3.5,3.5,0,0,0-.828-1.674A2.27,2.27,0,0,0,154.056,22.86Zm17.856,13.428a20.453,20.453,0,0,1-3.4-.288,12.315,12.315,0,0,1-2.862-.792.675.675,0,0,1-.432-.684v-4.14q0-.4.216-.4a.616.616,0,0,1,.288.108,11.619,11.619,0,0,0,2.916,1.044,13.578,13.578,0,0,0,2.916.36,2.476,2.476,0,0,0,1.134-.216.7.7,0,0,0-.108-1.314q-.522-.2-2-.594a17.7,17.7,0,0,1-2.322-.738,6.351,6.351,0,0,1-1.764-1.044,4.351,4.351,0,0,1-1.134-1.476,4.767,4.767,0,0,1-.4-2.034,4.611,4.611,0,0,1,.666-2.5,5.675,5.675,0,0,1,1.8-1.782,8.6,8.6,0,0,1,2.682-1.08,14.764,14.764,0,0,1,3.348-.36,21.094,21.094,0,0,1,2.718.18,14.986,14.986,0,0,1,2.538.54.554.554,0,0,1,.432.612v3.852q0,.288-.252.288a.618.618,0,0,1-.252-.036,13.576,13.576,0,0,0-2.2-.612,11.828,11.828,0,0,0-2.3-.252q-1.872,0-1.872.9a.661.661,0,0,0,.522.648q.522.18,1.962.576a21.442,21.442,0,0,1,2.2.72,6.326,6.326,0,0,1,1.728.99,4.094,4.094,0,0,1,1.116,1.44,4.767,4.767,0,0,1,.4,2.034,5.258,5.258,0,0,1-.576,2.448,5.525,5.525,0,0,1-1.638,1.908,8.134,8.134,0,0,1-2.592,1.242A12.316,12.316,0,0,1,171.912,36.288Z" transform="translate(581 156)" fill="#fff"/>
        <path id="Caminho_1370" data-name="Caminho 1370" d="M151.75,24.24V34.68h13.62q.78,0,.78.84v5.22q0,.78-.84.78H151.75V53.16h15.66q.78,0,.78.84v5.22q0,.78-.84.78H144.13q-.78,0-.78-.84V18.18q0-.78.84-.78h23.22q.78,0,.78.84v5.22q0,.78-.84.78Zm40.5,6.36a11.055,11.055,0,0,1,8.04,2.91q3,2.91,3,8.85V59.22q0,.78-.84.78h-6.78q-.78,0-.78-.84V43.02a5.59,5.59,0,0,0-1.5-4.35,6.6,6.6,0,0,0-8.4.33,6.55,6.55,0,0,0-1.62,4.74h-.06V59.22q0,.78-.84.78h-6.72q-.78,0-.78-.84V31.98q0-.78.84-.78h6.36q.78,0,.78.84V35.4Q185.83,30.6,192.25,30.6Zm44.58,13.44a13.426,13.426,0,0,1-.09,1.74,2.2,2.2,0,0,1-.33.99,1.06,1.06,0,0,1-.66.42,5.31,5.31,0,0,1-1.08.09H217.15a7.373,7.373,0,0,0,2.94,4.62,9.921,9.921,0,0,0,5.88,1.62,20.566,20.566,0,0,0,3-.24,25.328,25.328,0,0,0,3.12-.66,16.582,16.582,0,0,0,2.31-.93,3.3,3.3,0,0,1,1.23-.45q.48,0,.48.72V56.7a1.4,1.4,0,0,1-.66,1.26,16.376,16.376,0,0,1-4.8,1.83,26.172,26.172,0,0,1-6,.69,17.631,17.631,0,0,1-6.24-1.08,14.679,14.679,0,0,1-4.98-3.06,14.31,14.31,0,0,1-3.3-4.71,14.976,14.976,0,0,1-1.2-6.09,15.37,15.37,0,0,1,1.17-6.06,14.224,14.224,0,0,1,7.95-7.8,15.364,15.364,0,0,1,5.76-1.08,15.018,15.018,0,0,1,4.89.81,11.7,11.7,0,0,1,4.17,2.46,11.941,11.941,0,0,1,2.88,4.17A15.169,15.169,0,0,1,236.83,44.04Zm-13.08-7.02a6.434,6.434,0,0,0-4.05,1.32,7.121,7.121,0,0,0-2.43,3.72h12.54a5.806,5.806,0,0,0-1.92-3.57A5.924,5.924,0,0,0,223.75,37.02Zm36.96-6.42q.78,0,.78.84v7.14q0,.72-.84.72a12.114,12.114,0,0,0-3.84.66,7.8,7.8,0,0,0-4.2,3.36,12.036,12.036,0,0,0-1.62,6.6v9.3q0,.78-.84.78h-6.78q-.78,0-.78-.84V31.98q0-.78.84-.78h6.48q.78,0,.78.84v7.44Q253.15,31.08,260.71,30.6Zm34.44.6q.78,0,.78.84v21.6a21.426,21.426,0,0,1-1.32,7.86,14.833,14.833,0,0,1-9.15,8.91,20.351,20.351,0,0,1-6.81,1.11,32.565,32.565,0,0,1-5.97-.51,16.362,16.362,0,0,1-4.83-1.65,1.184,1.184,0,0,1-.66-1.2V62.04q0-.48.24-.48a1.026,1.026,0,0,1,.48.18,17.783,17.783,0,0,0,4.77,2.07,18.918,18.918,0,0,0,4.95.69,10.524,10.524,0,0,0,6.93-2.16q2.61-2.16,2.61-6.42V54.36a11.339,11.339,0,0,1-4.08,3.33,11.747,11.747,0,0,1-5.1,1.11,12.838,12.838,0,0,1-5.13-1.02,12.664,12.664,0,0,1-4.14-2.85,12.9,12.9,0,0,1-2.76-4.41,15.967,15.967,0,0,1-.99-5.76,15.612,15.612,0,0,1,1.02-5.73,13.557,13.557,0,0,1,2.79-4.47,12.449,12.449,0,0,1,4.14-2.88,13.021,13.021,0,0,1,10.38.12,10.379,10.379,0,0,1,4.23,3.66V31.98q0-.78.84-.78ZM280.09,52.26a8,8,0,0,0,2.85-.51,6.74,6.74,0,0,0,2.34-1.47,6.929,6.929,0,0,0,1.56-2.31,8.338,8.338,0,0,0,0-6.06,7.269,7.269,0,0,0-1.56-2.34,6.884,6.884,0,0,0-2.34-1.53,7.6,7.6,0,0,0-2.85-.54,7.756,7.756,0,0,0-2.82.51,7.4,7.4,0,0,0-2.34,1.44,6.681,6.681,0,0,0-1.62,2.31,7.912,7.912,0,0,0-.6,3.18,7.538,7.538,0,0,0,.6,3.09,7.315,7.315,0,0,0,1.59,2.31,6.392,6.392,0,0,0,2.34,1.44A8.443,8.443,0,0,0,280.09,52.26Zm27.84-26.94a4.946,4.946,0,0,1-3.75-1.41,4.8,4.8,0,0,1-1.35-3.45,4.8,4.8,0,0,1,1.35-3.45,4.946,4.946,0,0,1,3.75-1.41,4.868,4.868,0,1,1,0,9.72ZM304.51,60q-.78,0-.78-.84V31.98q0-.78.84-.78h6.78q.78,0,.78.84V59.22q0,.78-.84.78Zm44.94-28.8q.78,0,.78.84V59.22q0,.78-.84.78h-6.66q-.78,0-.78-.84v-3.9a8.357,8.357,0,0,1-3.99,4.05,12.725,12.725,0,0,1-5.49,1.23,13.7,13.7,0,0,1-5.34-1.08,14.075,14.075,0,0,1-4.56-3.06,14.772,14.772,0,0,1-3.15-4.74,16.591,16.591,0,0,1,0-12.24,14.67,14.67,0,0,1,3.12-4.71,14.061,14.061,0,0,1,9.93-4.11,13.5,13.5,0,0,1,5.52,1.14,7.982,7.982,0,0,1,3.96,3.9V31.98q0-.78.84-.78ZM334.51,53.1a8,8,0,0,0,2.94-.54,7.14,7.14,0,0,0,2.4-1.53,7.339,7.339,0,0,0,1.62-2.37,7.751,7.751,0,0,0,.6-3.12,8.108,8.108,0,0,0-.57-3.12,6.964,6.964,0,0,0-1.59-2.37,6.774,6.774,0,0,0-2.4-1.5,8.589,8.589,0,0,0-3-.51,8.233,8.233,0,0,0-2.97.54,7.32,7.32,0,0,0-2.43,1.5,6.931,6.931,0,0,0-1.62,2.37,7.811,7.811,0,0,0-.6,3.09,7.431,7.431,0,0,0,.63,3.12,7.746,7.746,0,0,0,1.65,2.37,7.14,7.14,0,0,0,2.4,1.53A8,8,0,0,0,334.51,53.1Zm62.1-9.06a13.426,13.426,0,0,1-.09,1.74,2.2,2.2,0,0,1-.33.99,1.06,1.06,0,0,1-.66.42,5.31,5.31,0,0,1-1.08.09H376.93a7.373,7.373,0,0,0,2.94,4.62,9.921,9.921,0,0,0,5.88,1.62,20.567,20.567,0,0,0,3-.24,25.327,25.327,0,0,0,3.12-.66,16.582,16.582,0,0,0,2.31-.93,3.3,3.3,0,0,1,1.23-.45q.48,0,.48.72V56.7a1.4,1.4,0,0,1-.66,1.26,16.376,16.376,0,0,1-4.8,1.83,26.172,26.172,0,0,1-6,.69,17.631,17.631,0,0,1-6.24-1.08,14.679,14.679,0,0,1-4.98-3.06,14.31,14.31,0,0,1-3.3-4.71,14.977,14.977,0,0,1-1.2-6.09,15.37,15.37,0,0,1,1.17-6.06,14.224,14.224,0,0,1,7.95-7.8,15.364,15.364,0,0,1,5.76-1.08,15.018,15.018,0,0,1,4.89.81,11.7,11.7,0,0,1,4.17,2.46,11.941,11.941,0,0,1,2.88,4.17A15.169,15.169,0,0,1,396.61,44.04Zm-13.08-7.02a6.434,6.434,0,0,0-4.05,1.32,7.121,7.121,0,0,0-2.43,3.72h12.54a5.806,5.806,0,0,0-1.92-3.57A5.924,5.924,0,0,0,383.53,37.02Zm35.82-11.7a4.946,4.946,0,0,1-3.75-1.41,4.8,4.8,0,0,1-1.35-3.45,4.8,4.8,0,0,1,1.35-3.45,4.946,4.946,0,0,1,3.75-1.41,4.868,4.868,0,1,1,0,9.72ZM415.93,60q-.78,0-.78-.84V31.98q0-.78.84-.78h6.78q.78,0,.78.84V59.22q0,.78-.84.78Zm32.82-29.4a11.055,11.055,0,0,1,8.04,2.91q3,2.91,3,8.85V59.22q0,.78-.84.78h-6.78q-.78,0-.78-.84V43.02a5.59,5.59,0,0,0-1.5-4.35,6.6,6.6,0,0,0-8.4.33,6.55,6.55,0,0,0-1.62,4.74h-.06V59.22q0,.78-.84.78h-6.72q-.78,0-.78-.84V31.98q0-.78.84-.78h6.36q.78,0,.78.84V35.4Q442.33,30.6,448.75,30.6Zm47.82-15.42q.78,0,.78.84v43.2q0,.78-.84.78h-6.6q-.78,0-.78-.84v-3.9a8.849,8.849,0,0,1-1.77,2.37,10.1,10.1,0,0,1-2.34,1.65,10.87,10.87,0,0,1-2.7.96,13.378,13.378,0,0,1-2.79.3,13.648,13.648,0,0,1-9.84-4.14,15.309,15.309,0,0,1-3.09-4.74,15.528,15.528,0,0,1-1.17-6.12,16.264,16.264,0,0,1,1.11-6.12,13.95,13.95,0,0,1,13.05-8.82,14.809,14.809,0,0,1,2.79.27,10.99,10.99,0,0,1,2.67.87,9.393,9.393,0,0,1,2.31,1.56,8.393,8.393,0,0,1,1.77,2.34V15.96q0-.78.84-.78ZM481.69,53.1a8,8,0,0,0,2.94-.54,7.14,7.14,0,0,0,2.4-1.53,7.339,7.339,0,0,0,1.62-2.37,8.412,8.412,0,0,0,0-6.24,7.339,7.339,0,0,0-1.62-2.37,6.774,6.774,0,0,0-2.4-1.5,8.413,8.413,0,0,0-2.94-.51,8.162,8.162,0,0,0-3,.54,7.39,7.39,0,0,0-2.4,1.5,6.931,6.931,0,0,0-1.62,2.37,8.334,8.334,0,0,0,0,6.21,7.115,7.115,0,0,0,1.65,2.37,7.476,7.476,0,0,0,2.43,1.53A8,8,0,0,0,481.69,53.1Zm50.4-21.9q.78,0,.78.84V59.22q0,.78-.84.78h-6q-.78,0-.78-.84l-.12-3.54a9.739,9.739,0,0,1-3.69,3.63,10.832,10.832,0,0,1-5.37,1.29,12.523,12.523,0,0,1-4.41-.75,9.321,9.321,0,0,1-3.45-2.22,10.2,10.2,0,0,1-2.25-3.66,14.77,14.77,0,0,1-.81-5.13V31.98q0-.78.84-.78h6.78q.78,0,.78.84V48.3q0,3.06,1.47,4.41a5.583,5.583,0,0,0,3.93,1.35,5.039,5.039,0,0,0,4.08-1.71A6.521,6.521,0,0,0,524.47,48V31.98q0-.78.84-.78Zm-16.5-4.26q-.78,0-.42-.78l5.7-12.18a.785.785,0,0,1,1.08-.48l5.76,1.86q.42.06.42.42a1.382,1.382,0,0,1-.18.54L520.63,26.4a1.156,1.156,0,0,1-1.02.54Zm34.08,33.6a28.114,28.114,0,0,1-5.22-.51,18.032,18.032,0,0,1-4.44-1.35.9.9,0,0,1-.54-.9V52.2q0-.6.3-.6a.921.921,0,0,1,.36.12,22.582,22.582,0,0,0,4.59,1.62,20.592,20.592,0,0,0,4.83.6,6.608,6.608,0,0,0,3.21-.63,1.951,1.951,0,0,0,1.11-1.77,1.7,1.7,0,0,0-.33-1.08,2.817,2.817,0,0,0-1.02-.75,12.6,12.6,0,0,0-1.8-.66q-1.11-.33-2.67-.75a26.14,26.14,0,0,1-3.54-1.26,11.585,11.585,0,0,1-2.82-1.74,7.2,7.2,0,0,1-1.86-2.4,8.347,8.347,0,0,1,.3-7.14,8.45,8.45,0,0,1,2.64-2.82,12.731,12.731,0,0,1,4.02-1.74,20.242,20.242,0,0,1,5.04-.6,26.966,26.966,0,0,1,4.44.36,20.507,20.507,0,0,1,3.9,1.02.786.786,0,0,1,.54.84V38.1q0,.54-.36.54a1.132,1.132,0,0,1-.36-.06,23.639,23.639,0,0,0-3.87-1.11,19.734,19.734,0,0,0-3.93-.45,6.86,6.86,0,0,0-3.24.6,1.811,1.811,0,0,0-1.08,1.62,1.714,1.714,0,0,0,1.29,1.68q1.29.48,3.81,1.32a35.738,35.738,0,0,1,3.66,1.2,11.043,11.043,0,0,1,2.91,1.65,6.99,6.99,0,0,1,1.92,2.4,7.8,7.8,0,0,1,.69,3.45,8.426,8.426,0,0,1-3.33,6.99Q555.49,60.54,549.67,60.54Zm35.34-7.08a3.282,3.282,0,0,1,.72-.12q1.02,0,1.02,1.44v3.84a1.025,1.025,0,0,1-.78,1.08,16.315,16.315,0,0,1-3.03.69,23.172,23.172,0,0,1-3.03.21q-4.98,0-7.38-2.52t-2.4-7.92V37.08h-4.14q-.78,0-.78-.84V31.98q0-.78.84-.78h4.08V22.74q0-.78.84-.78h6.72q.78,0,.78.84v8.4h7.26q.78,0,.78.84V36.3q0,.78-.84.78h-7.2v12q0,4.62,4.14,4.62a11.783,11.783,0,0,0,1.23-.06Q584.41,53.58,585.01,53.46Zm25.2-22.86q.78,0,.78.84v7.14q0,.72-.84.72a12.114,12.114,0,0,0-3.84.66,7.8,7.8,0,0,0-4.2,3.36,12.036,12.036,0,0,0-1.62,6.6v9.3q0,.78-.84.78h-6.78q-.78,0-.78-.84V31.98q0-.78.84-.78h6.48q.78,0,.78.84v7.44Q602.65,31.08,610.21,30.6Zm10.32-5.28a4.946,4.946,0,0,1-3.75-1.41,4.8,4.8,0,0,1-1.35-3.45,4.8,4.8,0,0,1,1.35-3.45,4.946,4.946,0,0,1,3.75-1.41,4.868,4.868,0,1,1,0,9.72ZM617.11,60q-.78,0-.78-.84V31.98q0-.78.84-.78h6.78q.78,0,.78.84V59.22q0,.78-.84.78Zm44.94-28.8q.78,0,.78.84V59.22q0,.78-.84.78h-6.66q-.78,0-.78-.84v-3.9a8.357,8.357,0,0,1-3.99,4.05,12.725,12.725,0,0,1-5.49,1.23,13.7,13.7,0,0,1-5.34-1.08,14.076,14.076,0,0,1-4.56-3.06,14.772,14.772,0,0,1-3.15-4.74,16.591,16.591,0,0,1,0-12.24,14.67,14.67,0,0,1,3.12-4.71,14.061,14.061,0,0,1,9.93-4.11,13.5,13.5,0,0,1,5.52,1.14,7.982,7.982,0,0,1,3.96,3.9V31.98q0-.78.84-.78ZM647.11,53.1a8,8,0,0,0,2.94-.54,7.14,7.14,0,0,0,2.4-1.53,7.34,7.34,0,0,0,1.62-2.37,7.752,7.752,0,0,0,.6-3.12,8.108,8.108,0,0,0-.57-3.12,6.963,6.963,0,0,0-1.59-2.37,6.774,6.774,0,0,0-2.4-1.5,8.589,8.589,0,0,0-3-.51,8.233,8.233,0,0,0-2.97.54,7.32,7.32,0,0,0-2.43,1.5,6.931,6.931,0,0,0-1.62,2.37,7.81,7.81,0,0,0-.6,3.09,7.432,7.432,0,0,0,.63,3.12,7.746,7.746,0,0,0,1.65,2.37,7.14,7.14,0,0,0,2.4,1.53A8,8,0,0,0,647.11,53.1Z" transform="translate(280 189)" fill="#fff"/>
        <g id="Grupo_217" data-name="Grupo 217" transform="translate(606.6 251.464)">
          <rect id="Retângulo_168" data-name="Retângulo 168" width="68.876" height="131.148" rx="34.438" transform="translate(0 0)" fill="#eded9a"/>
          <rect id="Retângulo_169" data-name="Retângulo 169" width="68.876" height="131.148" rx="34.438" transform="translate(0 0)" fill="#eded9a"/>
          <rect id="Retângulo_170" data-name="Retângulo 170" width="54.509" height="103.503" rx="27.254" transform="translate(7.129 13.908)" fill="#cecc80"/>
          <rect id="Retângulo_171" data-name="Retângulo 171" width="54.509" height="103.503" rx="27.254" transform="translate(7.129 13.908)" fill="#cecc80"/>
          <rect id="Retângulo_172" data-name="Retângulo 172" width="48.723" height="92.517" rx="24.362" transform="translate(10.022 19.4)" fill="#f7f5ad"/>
          <rect id="Retângulo_173" data-name="Retângulo 173" width="45.852" height="87.066" rx="22.926" transform="translate(11.458 22.126)" fill="#aee4f4"/>
          <path id="Caminho_325" data-name="Caminho 325" d="M-1531.49-279.256c-5.71-2.854-13.622,2.037-13.623,8.42l31.682.954v-40.034a22.747,22.747,0,0,0-.775-5.887,17.418,17.418,0,0,0-9.054,14.553,8.867,8.867,0,0,0-9.335-1.417,8.866,8.866,0,0,0-5.079,7.959,10.007,10.007,0,0,0-10.748-.947,10.007,10.007,0,0,0-5.06,9.529l30.147-1.346A9.758,9.758,0,0,0-1531.49-279.256Z" transform="translate(1570.742 354.969)" fill="#c9eef7"/>
          <rect id="Retângulo_174" data-name="Retângulo 174" width="69.82" height="131.148" rx="34.91" transform="translate(127.374 0)" fill="#eded9a"/>
          <rect id="Retângulo_175" data-name="Retângulo 175" width="69.82" height="131.148" rx="34.91" transform="translate(127.374 0)" fill="#eded9a"/>
          <rect id="Retângulo_176" data-name="Retângulo 176" width="54.509" height="103.503" rx="27.254" transform="translate(135.033 13.908)" fill="#cecc80"/>
          <rect id="Retângulo_177" data-name="Retângulo 177" width="54.509" height="103.503" rx="27.254" transform="translate(135.033 13.908)" fill="#cecc80"/>
          <rect id="Retângulo_178" data-name="Retângulo 178" width="48.723" height="92.517" rx="24.362" transform="translate(137.926 19.4)" fill="#f7f5ad"/>
          <rect id="Retângulo_179" data-name="Retângulo 179" width="45.852" height="87.066" rx="22.926" transform="translate(139.361 22.126)" fill="#aee4f4"/>
          <path id="Caminho_326" data-name="Caminho 326" d="M-1054.49-279.256c-5.71-2.854-13.622,2.037-13.623,8.42l31.682.954v-40.034a22.747,22.747,0,0,0-.775-5.887,17.418,17.418,0,0,0-9.054,14.553,8.867,8.867,0,0,0-9.335-1.417,8.867,8.867,0,0,0-5.079,7.959,10.007,10.007,0,0,0-10.748-.947,10.007,10.007,0,0,0-5.06,9.529l30.147-1.346A9.758,9.758,0,0,0-1054.49-279.256Z" transform="translate(1221.646 354.969)" fill="#c9eef7"/>
        </g>
        <g id="Grupo_233" data-name="Grupo 233" transform="translate(538.309 245)">
          <g id="Grupo_222" data-name="Grupo 222" transform="translate(0 37.452)">
            <g id="Grupo_218" data-name="Grupo 218" transform="translate(36.907 125.596)">
              <path id="Caminho_327" data-name="Caminho 327" d="M-1652.8,704.156l-12.082,11.554a17.1,17.1,0,0,0-6.272,13.121v34.364h-39.829V703.243Z" transform="translate(1710.987 -703.243)" fill="#52677a"/>
            </g>
            <g id="Grupo_219" data-name="Grupo 219" transform="translate(0 0.804)">
              <path id="Caminho_328" data-name="Caminho 328" d="M-1822.531,244.752l-16.811-6.9c-7.881.4-9.98,3.8-9.1,7.861l23.342,107.338c1.587,7.3,8.417,12.541,16.339,12.541h53.44c6.831,0,12.368-5.207,12.368-11.631v-13.6h-47.138Z" transform="translate(1848.627 -237.848)" fill="#697c90"/>
            </g>
            <g id="Grupo_220" data-name="Grupo 220" transform="translate(5.148)">
              <path id="Caminho_329" data-name="Caminho 329" d="M-1829.046,234.848h0a.366.366,0,0,0-.374.439l25.466,106.848a12.468,12.468,0,0,0,12.307,9.267h61.194a7.9,7.9,0,0,0,8.128-7.644v-1.292c0-7.778-6.705-14.084-14.976-14.084h-31.873a.38.38,0,0,1-.368-.262l-19.567-64.884C-1794.174,246.44-1810.482,234.848-1829.046,234.848Z" transform="translate(1829.429 -234.848)" fill="#efc6b7"/>
            </g>
            <g id="Grupo_221" data-name="Grupo 221" transform="translate(31.209 178.85)">
              <path id="Caminho_330" data-name="Caminho 330" d="M-1684.94,901.844h-40.6a6.7,6.7,0,0,0-6.7,6.7h54A6.7,6.7,0,0,0-1684.94,901.844Z" transform="translate(1732.238 -901.844)" fill="#52677a"/>
            </g>
          </g>
          <g id="Grupo_227" data-name="Grupo 227" transform="translate(124.15 37.452)">
            <g id="Grupo_223" data-name="Grupo 223" transform="translate(40.661 125.596)">
              <path id="Caminho_331" data-name="Caminho 331" d="M-1175.8,704.156l-12.083,11.554a17.1,17.1,0,0,0-6.272,13.121v34.364h-39.829V703.243Z" transform="translate(1233.987 -703.243)" fill="#52677a"/>
            </g>
            <g id="Grupo_224" data-name="Grupo 224">
              <path id="Caminho_332" data-name="Caminho 332" d="M-1359.531,241.752l-16.811-6.9c-7.881.4-9.98,3.8-9.1,7.861l23.342,107.338c1.587,7.3,8.416,12.541,16.339,12.541h53.44c6.831,0,12.368-5.207,12.368-11.631v-13.6h-47.138Z" transform="translate(1385.627 -234.848)" fill="#697c90"/>
            </g>
            <g id="Grupo_225" data-name="Grupo 225" transform="translate(8.902)">
              <path id="Caminho_333" data-name="Caminho 333" d="M-1352.046,234.848h0a.366.366,0,0,0-.374.439l25.466,106.848a12.468,12.468,0,0,0,12.307,9.267h61.194a7.9,7.9,0,0,0,8.128-7.644v-1.292c0-7.778-6.705-14.084-14.976-14.084h-31.872a.38.38,0,0,1-.368-.262l-19.567-64.884C-1317.174,246.44-1333.482,234.848-1352.046,234.848Z" transform="translate(1352.429 -234.848)" fill="#efc6b7"/>
            </g>
            <g id="Grupo_226" data-name="Grupo 226" transform="translate(34.963 178.85)">
              <path id="Caminho_334" data-name="Caminho 334" d="M-1207.94,901.844h-40.6a6.7,6.7,0,0,0-6.7,6.7h54A6.7,6.7,0,0,0-1207.94,901.844Z" transform="translate(1255.238 -901.844)" fill="#52677a"/>
            </g>
          </g>
          <g id="Grupo_229" data-name="Grupo 229" transform="translate(22.726 0)">
            <g id="Grupo_228" data-name="Grupo 228">
              <path id="Caminho_335" data-name="Caminho 335" d="M-1430.509,785.633l4.025,16.952,6.029-.034.221-16.918Z" transform="translate(1519.898 -600.493)" fill="#ffb27d"/>
              <path id="Caminho_336" data-name="Caminho 336" d="M-1379.378,788.237l11.452,16.23,4.464-5.731-6.893-12.73Z" transform="translate(1482.478 -600.765)" fill="#ffb27d"/>
              <path id="Caminho_337" data-name="Caminho 337" d="M-1418.6,845.32a16.347,16.347,0,0,1-.768,6.95s-.987,4.5,3.441,4.58,5.514-.334,5.013-3.091-1.455-7.525-1.455-7.525Z" transform="translate(1511.815 -644.175)" fill="#ffb27d"/>
              <path id="Caminho_338" data-name="Caminho 338" d="M-1420.428,870.927s-.82,4.245-.319,6.5c0,0,1.337,1,4.554,1a9.244,9.244,0,0,0,4.637-1s.094-4.653-.72-6.616C-1412.277,870.812-1415.415,875.522-1420.428,870.927Z" transform="translate(1512.872 -662.831)" fill="#c45446"/>
              <path id="Caminho_339" data-name="Caminho 339" d="M-1325.92,847.153s-8.164-9.061-10.67-13.672l-6.071,3.11,13.57,12.744,3.175-.418Z" transform="translate(1455.606 -635.51)" fill="#ffb27d"/>
              <path id="Caminho_340" data-name="Caminho 340" d="M-1324.935,860.953s-8.773,0-10.276-.168-2.714-2.339-4.344-5.6a5.482,5.482,0,0,0-3.7-2.471v7.547h-2.319l-2.193-8.021c-1.447-2.657-.115-5.065.9-7.163,1.183,0,4.366.807,10.4,7.6a7.906,7.906,0,0,0,6.344,2.961.543.543,0,0,0,.09.048C-1325.018,857.945-1324.935,860.953-1324.935,860.953Z" transform="translate(1459.806 -643.999)" fill="#c45446"/>
              <path id="Caminho_341" data-name="Caminho 341" d="M-1534.172,535.906c7.091,1.27,14.548,3.476,19.114,9.047,3.266,3.984,4.6,9.163,5.8,14.173,3.584,14.985,6.764,30.269,13.728,44.013l-15.316,3.64-15.394-45.521c-2.029-6-4.557-12.594-10.238-15.4-2.7-1.33-5.766-1.607-8.735-2.08-3.773-.6-14.734-5.084-8.805-10.219C-1550.46,530.482-1538.5,535.131-1534.172,535.906Z" transform="translate(1611.549 -415.249)" fill="#d3b537"/>
              <path id="Caminho_342" data-name="Caminho 342" d="M-1704.968,536.831c7.68,4.586,17.023,5.4,25.965,5.138s17.912-1.466,26.8-.458a266.257,266.257,0,0,0,8.6,43.807,42.653,42.653,0,0,0,17.03-2.426,277.862,277.862,0,0,0-7.077-46.361c-.906-3.765-1.969-7.663-4.538-10.559-2.751-3.1-6.89-4.633-10.981-5.3s-8.27-.6-12.385-1.107c-2.924-.361-5.947-1.08-8.162-3.024s-3.318-5.414-1.8-7.937c-.643,1.038-8.208,1.32-9.639,1.55l-10.477,1.685c-6.77,1.089-13.674,1.877-20.386,3.276C-1723.522,517.508-1710.414,533.579-1704.968,536.831Z" transform="translate(1729.278 -397.742)" fill="#f2d041"/>
              <path id="Caminho_343" data-name="Caminho 343" d="M-1727.459,112.583c-1.021-8.709-10.4-15.459-18.98-13.665s-14.469,11.736-11.914,20.125c.805,2.645,2.29,5.041,3.136,7.674s.939,5.774-.823,7.905c-1.057,1.279-2.622,2.008-3.932,3.027-4.742,3.687-5.253,11.652-1.021,15.915s12.2,3.808,15.922-.908c2.426-3.076,3.31-7.606,6.806-9.374,3.582-1.811,8.741.022,11.392-2.991.847-.963,1.227-2.252,1.987-3.284,3.505-4.764,8.3-6.154,1.259-10.141C-1729.1,123.771-1726.8,118.215-1727.459,112.583Z" transform="translate(1763.873 -97.702)" fill="#163560"/>
              <path id="Caminho_344" data-name="Caminho 344" d="M-1684.143,213.039c.05.022-4.835,2.559-8.509,1.554-3.456-.942-5.715-5.424-5.667-5.434,1.464-.29,1.886-2.3,1.854-10.946l.662.13,11.126,2.2s-.253,3.5-.26,6.8C-1684.945,210.117-1684.777,212.743-1684.143,213.039Z" transform="translate(1715.897 -170.585)" fill="#ffb27d"/>
              <path id="Caminho_345" data-name="Caminho 345" d="M-1712.008,112.746s4.226-6.812,12.077-2.74C-1699.931,110.006-1704,110.119-1712.008,112.746Z" transform="translate(1725.915 -105.08)" fill="#5fabb7"/>
              <path id="Caminho_346" data-name="Caminho 346" d="M-1677.807,200.9s-.253,3.5-.26,6.8c-6.226-.176-9.518-5.855-10.865-9Z" transform="translate(1709.027 -170.94)" fill="#ef9e67"/>
              <path id="Caminho_347" data-name="Caminho 347" d="M-1715.131,134.632s-4.218-4.409-5.856-8.575c-1.17-2.975-1.9-14.727,9.92-15.4a15.929,15.929,0,0,1,6.968,1.143c2.835,1.183,7.168,4.095,5.154,14.885l-.366,3.582Z" transform="translate(1732.936 -106.483)" fill="#163560"/>
              <path id="Caminho_348" data-name="Caminho 348" d="M-1689.92,148.694s-14.392,3.149-16.215-5.844-4.908-14.643,4.2-17.034,11.6.678,12.937,3.531S-1686.223,147.643-1689.92,148.694Z" transform="translate(1723.088 -116.972)" fill="#ffb27d"/>
              <path id="Caminho_349" data-name="Caminho 349" d="M-1705.08,119.046s-1.827,11.35-7.58,14.133-8.713,1.688-8.713,1.688a17.529,17.529,0,0,0,3.574-11.284S-1709.075,114.624-1705.08,119.046Z" transform="translate(1732.769 -111.748)" fill="#163560"/>
              <path id="Caminho_350" data-name="Caminho 350" d="M-1663.623,120.092s3.428,1.761,4.61,3.906,2.456,6.8,3.8,6.358c0,0,1.533-7.773-2.633-11.156C-1662.266,115.614-1663.623,120.092-1663.623,120.092Z" transform="translate(1690.504 -111.74)" fill="#163560"/>
              <path id="Caminho_351" data-name="Caminho 351" d="M-1659.016,236.408s11.994-1.9,16.019,2.1c4.934,4.908,14.2,33.048,13.829,36.26-.141,1.226-5.009.656-6.678-1.094C-1644.164,264.952-1656.092,242.936-1659.016,236.408Z" transform="translate(1687.133 -198.207)" fill="#bc3f3f"/>
              <path id="Caminho_352" data-name="Caminho 352" d="M-1699.873,311.413c-8.464,3.734-48.965,14.976-51,4.705-.5-2.505-.9-5.562-1.241-8.889-1.044-10.3-1.421-23.184-1.746-30.252-.149-3.24-3.689-17.284-4.013-25.2a17.838,17.838,0,0,1,.087-3.06c.828-6.146,8.574-9.037,12.66-9.845l12.329-2.439s15.13,12.219,17.625,16.323,5.525,19.05,8.094,26.109S-1695.756,309.6-1699.873,311.413Z" transform="translate(1759.502 -198.558)" fill="#bc3f3f"/>
              <path id="Caminho_353" data-name="Caminho 353" d="M-1729.838,322.347s-3.449,22.289-22.209,26.762c-1.044-10.3-1.421-23.184-1.746-30.251-.149-3.24-3.689-17.284-4.013-25.2.255.012.5.113.768.121C-1735.476,294.418-1728.656,317.625-1729.838,322.347Z" transform="translate(1759.433 -240.438)" fill="#a53d38"/>
              <path id="Caminho_354" data-name="Caminho 354" d="M-1643.389,360.99s-12.609,4.134-27.972-2.5a25.415,25.415,0,0,0-6.261.132s.446-4.15,2.477-5.28,10.763,1.313,13.375.955C-1656.063,353.516-1646.12,352.9-1643.389,360.99Z" transform="translate(1700.749 -283.9)" fill="#ef9e67"/>
              <path id="Caminho_355" data-name="Caminho 355" d="M-1599.58,301.655s1.183-10.247-2.827-16.422a2.137,2.137,0,0,1,2.432,1.123c1.016,1.6,8.1,16.826,4.726,17.946S-1599.58,301.655-1599.58,301.655Z" transform="translate(1645.703 -234.221)" fill="#a53d38"/>
              <path id="Caminho_356" data-name="Caminho 356" d="M-1680.719,353.046c-.181,0-5.955.755-6.978,1.476s-.12,3.249,1.8,3.489S-1680.719,353.046-1680.719,353.046Z" transform="translate(1708.435 -283.9)" fill="#ef9e67"/>
              <path id="Caminho_357" data-name="Caminho 357" d="M-1719.378,358a237.1,237.1,0,0,0,31.365-3.489s2.727.024,2.406,2.406-25.857,15.713-31.472,13.146Z" transform="translate(1731.309 -284.975)" fill="#ffb27d"/>
              <path id="Caminho_358" data-name="Caminho 358" d="M-1602.407,348.767s1.745-2.105,2.827-2.105,3.91,1.383,4.331,2.647-3.346.361-4.752,1.865S-1602.407,348.767-1602.407,348.767Z" transform="translate(1645.703 -279.228)" fill="#ffb27d"/>
              <path id="Caminho_359" data-name="Caminho 359" d="M-1740.4,236.566s-13.821.033-15.842,5c-3.689,9.063,8.471,39.133,11.68,42.181,1.38,1.311,7.771-.756,7.771-9.417C-1736.792,269.837-1737.114,243.6-1740.4,236.566Z" transform="translate(1758.793 -198.653)" fill="#bc3f3f"/>
              <ellipse id="Elipse_26" data-name="Elipse 26" cx="5.363" cy="7.106" rx="5.363" ry="7.106" transform="translate(7.742 13.092)" fill="#2470bc"/>
              <path id="Caminho_360" data-name="Caminho 360" d="M-1740.193,105.722c-.68-2.789-.39-5.97,1.453-8.171s5.457-2.965,7.678-1.146a10.781,10.781,0,0,0-7.785-.847,8.7,8.7,0,0,0-5.729,5.187c-1.393,3.8.315,7.968,2,11.652a9.114,9.114,0,0,0,1.8,2.912,3.1,3.1,0,0,0,3.155.832C-1734.326,114.839-1739.676,107.841-1740.193,105.722Z" transform="translate(1750.124 -95.176)" fill="#58a1dd"/>
            </g>
          </g>
          <g id="Grupo_230" data-name="Grupo 230" transform="translate(18.9 107.248)">
            <path id="Caminho_361" data-name="Caminho 361" d="M-1724.784,507.768h-53.357V495.144h52.174a6.9,6.9,0,0,1,6.9,6.9h0A5.72,5.72,0,0,1-1724.784,507.768Z" transform="translate(1778.141 -495.144)" fill="#697c90"/>
          </g>
          <g id="Grupo_231" data-name="Grupo 231" transform="translate(164.512 24.818)">
            <path id="Caminho_362" data-name="Caminho 362" d="M-1003.338,400.645c-.208-.9-.276-2.094.564-2.466,1.048-.463,1.919.974,2.029,2.114s.261,2.614,1.371,2.9c.98.25,1.855-.758,2.092-1.742a13.632,13.632,0,0,0,.064-3.4,4.091,4.091,0,0,1,1.028-3.145c.841-.766,2.466-.667,2.869.4a2.762,2.762,0,0,1-.06,1.609l-1.408,5.846,3.212-5.8c.268-.485.732-1.05,1.252-.86.493.18.52.858.449,1.377a43.522,43.522,0,0,1-1.835,7.861,41.759,41.759,0,0,0,4.7-6.441,7.588,7.588,0,0,1-.252,5.725,22.537,22.537,0,0,1-3.148,4.946,1.637,1.637,0,0,0,1.92-.424,11.278,11.278,0,0,1,1.493-1.5c.6-.38,1.56-.35,1.846.3.315.714-.407,1.432-1.044,1.882l-6.9,4.871c-1.292.913-2.776,1.871-4.332,1.588C-1001.32,415.563-1002.6,403.819-1003.338,400.645Z" transform="translate(1065.582 -338.986)" fill="#ef9e67"/>
            <path id="Caminho_363" data-name="Caminho 363" d="M-921.342,801.916a11.555,11.555,0,0,0,3.184,7.788,17.208,17.208,0,0,0,5.666,3.162l13.183,5.3c1.184.476,2.721.882,3.585-.057.931-1.012.222-2.639-.6-3.738-2.967-3.945-7.067-6.873-10.446-10.472s-6.137-8.368-5.377-13.246c.049-.316-7.948.962-8.8,2.343S-921.436,800.164-921.342,801.916Z" transform="translate(1005.595 -628.947)" fill="#03304f"/>
            <path id="Caminho_364" data-name="Caminho 364" d="M-847.206,773.523c1.109.32,2.432.851,2.571,2,.174,1.432-1.6,2.206-3.014,2.506l-15.818,3.361a16.576,16.576,0,0,1-5.582.536,5.617,5.617,0,0,1-4.493-2.982c-1.112-2.524.46-5.593-.522-8.171-.33-.867-.929-1.608-1.29-2.462a2.44,2.44,0,0,1,.216-2.615,3.022,3.022,0,0,1,2.093-.665C-864.159,764.638-855.74,771.061-847.206,773.523Z" transform="translate(972.017 -610.219)" fill="#03304f"/>
            <path id="Caminho_365" data-name="Caminho 365" d="M-1058.66,544.006c7.115,1.474,14.343,2.988,20.751,6.414,9.34,4.994,16.236,13.738,20.87,23.262s7.223,19.888,9.78,30.165c-4.853-2.445-11.34,4.321-15.622.975-1.316-1.028-1.88-2.723-2.376-4.318l-5.4-17.354c-2.911-9.352-6.634-19.688-15.432-23.992-5.847-2.86-12.991-2.46-18.538-5.864-2.4-1.474-7.586-6.233-6.6-9.584C-1070.069,539.8-1061.658,543.385-1058.66,544.006Z" transform="translate(1115.259 -446.939)" fill="#206da0"/>
            <path id="Caminho_366" data-name="Caminho 366" d="M-1213.718,525.964c4.391,7.4,13.8,10.285,22.406,10.263s17.068-2.3,25.667-2.46c3.828-.07,7.9.372,10.931,2.714,3.357,2.595,4.734,6.943,5.9,11.022q5.38,18.779,10.01,37.762a20.882,20.882,0,0,0,6.957.241,7.075,7.075,0,0,0,5.389-3.985c.689-1.76.376-3.734.04-5.594q-2.305-12.774-5.409-25.387c-1.437-5.839-3.023-11.7-5.823-17.024s-6.938-10.119-12.367-12.7c-6.552-3.118-14.156-2.724-21.291-4.04-7.675-1.416-14.811-4.822-22.139-7.5-4.431-1.622-17.591-6.736-21.888-3.019C-1219.22,509.613-1215.887,522.311-1213.718,525.964Z" transform="translate(1221.944 -419.872)" fill="#267dc4"/>
            <path id="Caminho_367" data-name="Caminho 367" d="M-1143.17,235.953c-.855,2.321-2.1,4.72-4.331,5.8-2.787,1.345-6.138.166-8.764-1.473-5.341-3.335-9.509-8.764-10.6-14.965s1.188-13.062,6.241-16.819c4.865-3.619,14.343-4.474,17.368,1.67C-1139.561,217.673-1140.368,228.348-1143.17,235.953Z" transform="translate(1185.362 -200.851)" fill="#ef9e67"/>
            <path id="Caminho_368" data-name="Caminho 368" d="M-1164.571,321.848c-4.381-1.372-7.539-5.105-10.443-8.661a7.042,7.042,0,0,1-2-3.926,6.992,6.992,0,0,1,.614-2.679l2.241-6a3.709,3.709,0,0,1,1.352-2.044,3.541,3.541,0,0,1,2.908.1c3.371,1.175,8.77,2.855,8.918,6.984C-1160.8,310.545-1164.071,316.714-1164.571,321.848Z" transform="translate(1192.59 -268.622)" fill="#ef9e67"/>
            <path id="Caminho_369" data-name="Caminho 369" d="M-1167.728,353.87c-4.009-.966-7.7,2.562-11.792,3.075-5.117.642-9.55-3.474-12.572-7.654s-5.784-9.015-10.524-11.045a30.6,30.6,0,0,0-13.032-13.989,12.568,12.568,0,0,0-4.244-1.464c-1.343,1-2.7,1.985-4.048,2.971l-.093.086c-1.711,2.784-3.274,5.683-4.813,8.5q-2.544,4.664-4.8,9.477c-.246.7-.476,1.4-.683,2.106-.007.1-.014.2-.021.3q-.132,1.814-.361,3.616c-.139,1.095-.266,2.195-.395,3.3,1.024,6.618-1.019,13.889,2.055,19.853,2.75,5.335,8.787,8,14.474,9.915,5,1.688,10.164,3.128,15.44,3.133s10.726-1.567,14.529-5.223a30.146,30.146,0,0,1-10.658-18.521c4.279,4.5,9,9.238,15.126,10.263a21.878,21.878,0,0,0,9.735-.967c4.139-1.222,8.377-3.311,10.38-7.134S-1163.532,354.881-1167.728,353.87Z" transform="translate(1235.102 -286.578)" fill="#f2d146"/>
            <path id="Caminho_370" data-name="Caminho 370" d="M-1172.106,217.356a6.712,6.712,0,0,0,2.657,3.874c1.507.861,3.4.611,5.063.119a20.253,20.253,0,0,0,9.116-5.683,4.866,4.866,0,0,1-4.084-5.658,4.866,4.866,0,0,1,6.1-3.384c.626.22,1.325.573,1.907.255.716-.391.649-1.451,1.117-2.12.86-1.229,2.735-.532,4.211-.266a5.975,5.975,0,0,0,6.718-5.006,4.057,4.057,0,0,1-2.934,1.452,8.781,8.781,0,0,0,1.483-6.518c-.515,1.554-2.8,1.734-4.161.83s-2.139-2.444-3.178-3.709a10.592,10.592,0,0,0-8.135-3.81C-1169.747,187.827-1175.708,206.736-1172.106,217.356Z" transform="translate(1189.753 -187.732)" fill="#163560"/>
          </g>
          <g id="Grupo_232" data-name="Grupo 232" transform="translate(146.804 107.248)">
            <path id="Caminho_371" data-name="Caminho 371" d="M-1247.784,507.768h-53.357V495.144h52.174a6.9,6.9,0,0,1,6.9,6.9h0A5.72,5.72,0,0,1-1247.784,507.768Z" transform="translate(1301.141 -495.144)" fill="#697c90"/>
          </g>
        </g>
        <g id="Grupo_79" data-name="Grupo 79" transform="translate(47 -55)">
          <rect id="Retângulo_134" data-name="Retângulo 134" width="174" height="36" rx="6" transform="translate(549 509)" fill="#fff"/>
          <path id="Caminho_1371" data-name="Caminho 1371" d="M15.136,21H12.108V9.242H8.231V6.723H19.013v2.52H15.136Zm9.1-7.939h.977a3.736,3.736,0,0,0,2.119-.479,1.708,1.708,0,0,0,.684-1.5,1.562,1.562,0,0,0-.7-1.445,4.237,4.237,0,0,0-2.163-.43h-.918Zm0,2.461V21H21.21V6.723h4.16a7.12,7.12,0,0,1,4.307,1.06A3.782,3.782,0,0,1,31.073,11a3.788,3.788,0,0,1-.693,2.241,4.588,4.588,0,0,1-1.963,1.538q3.223,4.814,4.2,6.221H29.257l-3.408-5.479ZM43.153,21l-1.035-3.4H36.913L35.878,21H32.616L37.655,6.664h3.7L46.415,21ZM41.4,15.063q-1.436-4.619-1.616-5.225t-.259-.957q-.322,1.25-1.846,6.182ZM60.878,21H57.03L50.819,10.2h-.088q.186,2.861.186,4.082V21H48.212V6.723H52.03l6.2,10.693H58.3q-.146-2.783-.146-3.936V6.723h2.725ZM72.9,17.035a3.691,3.691,0,0,1-1.392,3.047A6.045,6.045,0,0,1,67.636,21.2a9.094,9.094,0,0,1-4.043-.859V17.523a16.661,16.661,0,0,0,2.446.908,7.239,7.239,0,0,0,1.831.264,2.6,2.6,0,0,0,1.528-.381,1.3,1.3,0,0,0,.532-1.133,1.251,1.251,0,0,0-.234-.747,2.623,2.623,0,0,0-.688-.63,17.707,17.707,0,0,0-1.851-.967,8.771,8.771,0,0,1-1.963-1.182,4.436,4.436,0,0,1-1.045-1.318,3.762,3.762,0,0,1-.391-1.758A3.69,3.69,0,0,1,65.043,7.6a5.336,5.336,0,0,1,3.55-1.084,8.383,8.383,0,0,1,2.124.264,14.6,14.6,0,0,1,2.114.742l-.977,2.354a14.288,14.288,0,0,0-1.89-.654,6.082,6.082,0,0,0-1.47-.186,1.946,1.946,0,0,0-1.318.4,1.321,1.321,0,0,0-.459,1.045,1.293,1.293,0,0,0,.186.7,2.04,2.04,0,0,0,.591.576,18.267,18.267,0,0,0,1.919,1,7.635,7.635,0,0,1,2.744,1.919A3.745,3.745,0,0,1,72.9,17.035Zm5.615-3.594h1a3.317,3.317,0,0,0,2.09-.552,1.931,1.931,0,0,0,.693-1.606,1.98,1.98,0,0,0-.581-1.572A2.723,2.723,0,0,0,79.892,9.2H78.515Zm6.836-2.266A4.364,4.364,0,0,1,83.91,14.7a6.161,6.161,0,0,1-4.1,1.221h-1.3V21H75.487V6.723h4.561A6.066,6.066,0,0,1,84,7.841,4.077,4.077,0,0,1,85.351,11.176ZM101,13.842a7.747,7.747,0,0,1-1.758,5.449,7.619,7.619,0,0,1-10.078,0,7.778,7.778,0,0,1-1.758-5.469,7.672,7.672,0,0,1,1.763-5.444A6.592,6.592,0,0,1,94.228,6.5a6.5,6.5,0,0,1,5.034,1.895A7.767,7.767,0,0,1,101,13.842Zm-10.42,0a5.964,5.964,0,0,0,.908,3.6,3.178,3.178,0,0,0,2.715,1.211q3.623,0,3.623-4.814t-3.6-4.824A3.2,3.2,0,0,0,91.5,10.233,5.939,5.939,0,0,0,90.585,13.842Zm16.406-.781h.977a3.736,3.736,0,0,0,2.119-.479,1.708,1.708,0,0,0,.684-1.5,1.562,1.562,0,0,0-.7-1.445,4.237,4.237,0,0,0-2.163-.43h-.918Zm0,2.461V21h-3.027V6.723h4.16a7.12,7.12,0,0,1,4.307,1.06,3.782,3.782,0,0,1,1.4,3.218,3.788,3.788,0,0,1-.693,2.241,4.588,4.588,0,0,1-1.963,1.538q3.223,4.814,4.2,6.221h-3.359L108.6,15.521ZM122.675,21h-3.027V9.242h-3.877V6.723h10.781v2.52h-3.877Zm14.3,0h-8.223V6.723h8.223V9.2h-5.2v3.135h4.834v2.48h-4.834V18.5h5.2Zm11.406-3.965a3.691,3.691,0,0,1-1.392,3.047,6.045,6.045,0,0,1-3.872,1.113,9.094,9.094,0,0,1-4.043-.859V17.523a16.661,16.661,0,0,0,2.446.908,7.239,7.239,0,0,0,1.831.264,2.6,2.6,0,0,0,1.528-.381,1.3,1.3,0,0,0,.532-1.133,1.251,1.251,0,0,0-.234-.747,2.623,2.623,0,0,0-.688-.63,17.707,17.707,0,0,0-1.851-.967,8.772,8.772,0,0,1-1.963-1.182,4.436,4.436,0,0,1-1.045-1.318,3.762,3.762,0,0,1-.391-1.758A3.69,3.69,0,0,1,140.521,7.6a5.336,5.336,0,0,1,3.55-1.084,8.383,8.383,0,0,1,2.124.264,14.6,14.6,0,0,1,2.114.742l-.977,2.354a14.288,14.288,0,0,0-1.89-.654,6.082,6.082,0,0,0-1.47-.186,1.946,1.946,0,0,0-1.318.4,1.321,1.321,0,0,0-.459,1.045,1.293,1.293,0,0,0,.186.7,2.04,2.04,0,0,0,.591.576,18.269,18.269,0,0,0,1.919,1,7.635,7.635,0,0,1,2.744,1.919A3.745,3.745,0,0,1,148.378,17.035Z" transform="translate(558 514)" fill="#249683"/>
        </g>
      </g>
    </g>
  </g>
</svg>
