<svg xmlns="http://www.w3.org/2000/svg" xmlns:xlink="http://www.w3.org/1999/xlink" width="1000" height="437" viewBox="0 0 1000 437">
  <defs>
    <clipPath id="clip-uso_domestico_img_1">
      <rect width="1000" height="437"/>
    </clipPath>
  </defs>
  <g id="uso_domestico_img_1" data-name="uso domestico img – 1" clip-path="url(#clip-uso_domestico_img_1)">
    <g id="Grupo_1051" data-name="Grupo 1051" transform="translate(-181.867 -120)">
      <path id="Caminho_1372" data-name="Caminho 1372" d="M30.82,26H20.953V8.867H30.82v2.977H24.586v3.762h5.8v2.977h-5.8V23H30.82Zm6.867,0H34.113V7.766h3.574Zm9.176-10.8a2.267,2.267,0,0,0-1.781.721,3.336,3.336,0,0,0-.738,2.045h5.016a2.979,2.979,0,0,0-.691-2.045A2.341,2.341,0,0,0,46.863,15.2Zm.5,11.039a6.762,6.762,0,0,1-4.945-1.746,6.611,6.611,0,0,1-1.781-4.945,7.272,7.272,0,0,1,1.646-5.092,5.863,5.863,0,0,1,4.553-1.8,5.771,5.771,0,0,1,4.324,1.582,5.985,5.985,0,0,1,1.547,4.371V20.34H44.262a3.44,3.44,0,0,0,.9,2.379,3.175,3.175,0,0,0,2.367.855,9.827,9.827,0,0,0,2.238-.246,11.2,11.2,0,0,0,2.2-.785v2.766a8.393,8.393,0,0,1-2,.7A12.635,12.635,0,0,1,47.367,26.234Zm13.77-2.848a7.748,7.748,0,0,0,2.25-.41v2.66a8.022,8.022,0,0,1-3.281.6,4.016,4.016,0,0,1-3.123-1.084A4.718,4.718,0,0,1,56,21.9V15.582H54.293V14.07l1.969-1.2,1.031-2.766h2.285V12.9h3.668v2.684H59.578V21.9a1.4,1.4,0,0,0,.428,1.125A1.688,1.688,0,0,0,61.137,23.387ZM73.348,12.652a5.764,5.764,0,0,1,1.207.105l-.27,3.352a4.1,4.1,0,0,0-1.055-.117,3.79,3.79,0,0,0-2.666.879,3.177,3.177,0,0,0-.955,2.461V26H66.035V12.9h2.707l.527,2.2h.176a4.925,4.925,0,0,1,1.646-1.775A4.06,4.06,0,0,1,73.348,12.652Zm3.434-3.141q0-1.746,1.945-1.746t1.945,1.746a1.7,1.7,0,0,1-.486,1.295,2.044,2.044,0,0,1-1.459.463Q76.781,11.27,76.781,9.512ZM80.508,26H76.934V12.9h3.574Zm9.07.234q-6.117,0-6.117-6.715a7.163,7.163,0,0,1,1.664-5.1,6.242,6.242,0,0,1,4.77-1.764,9.093,9.093,0,0,1,4.078.891l-1.055,2.766q-.844-.34-1.57-.557a5.06,5.06,0,0,0-1.453-.217q-2.789,0-2.789,3.961,0,3.844,2.789,3.844a6.359,6.359,0,0,0,1.91-.275,6.9,6.9,0,0,0,1.758-.861v3.059a5.761,5.761,0,0,1-1.752.762A9.852,9.852,0,0,1,89.578,26.234ZM96.445,9.512q0-1.746,1.945-1.746t1.945,1.746a1.7,1.7,0,0,1-.486,1.295,2.044,2.044,0,0,1-1.459.463Q96.445,11.27,96.445,9.512ZM100.172,26H96.6V12.9h3.574Zm7.9.234a4.255,4.255,0,0,1-3.627-1.793,8.243,8.243,0,0,1-1.318-4.969,8.251,8.251,0,0,1,1.342-5.021,4.358,4.358,0,0,1,3.7-1.8,4.274,4.274,0,0,1,3.773,1.922h.117a14.612,14.612,0,0,1-.27-2.613v-4.2h3.586V26h-2.742l-.691-1.7h-.152A4.09,4.09,0,0,1,108.07,26.234Zm1.254-2.848a2.422,2.422,0,0,0,2.01-.8,4.636,4.636,0,0,0,.7-2.707V19.5a5.357,5.357,0,0,0-.65-3.023,2.416,2.416,0,0,0-2.115-.914,2.1,2.1,0,0,0-1.857,1.014,5.408,5.408,0,0,0-.662,2.947,5.125,5.125,0,0,0,.668,2.9A2.182,2.182,0,0,0,109.324,23.387ZM127.43,26l-.691-1.781h-.094a5.279,5.279,0,0,1-1.857,1.576,6,6,0,0,1-2.49.439,4.027,4.027,0,0,1-2.971-1.078,4.14,4.14,0,0,1-1.084-3.07A3.457,3.457,0,0,1,119.7,19.01a8.454,8.454,0,0,1,4.4-1.1l2.273-.07V17.27a1.782,1.782,0,0,0-2.039-1.992,9.292,9.292,0,0,0-3.691.949l-1.184-2.414a10.651,10.651,0,0,1,5.016-1.184,6.248,6.248,0,0,1,4.043,1.148,4.244,4.244,0,0,1,1.406,3.492V26Zm-1.055-6.07-1.383.047a4.428,4.428,0,0,0-2.32.563,1.767,1.767,0,0,0-.762,1.57q0,1.512,1.734,1.512a2.747,2.747,0,0,0,1.986-.715,2.511,2.511,0,0,0,.744-1.9Zm11.379,6.3a4.255,4.255,0,0,1-3.627-1.793,8.243,8.243,0,0,1-1.318-4.969,8.251,8.251,0,0,1,1.342-5.021,4.358,4.358,0,0,1,3.7-1.8,4.274,4.274,0,0,1,3.773,1.922h.117a14.612,14.612,0,0,1-.27-2.613v-4.2h3.586V26h-2.742l-.691-1.7h-.152A4.09,4.09,0,0,1,137.754,26.234Zm1.254-2.848a2.422,2.422,0,0,0,2.01-.8,4.636,4.636,0,0,0,.7-2.707V19.5a5.357,5.357,0,0,0-.65-3.023,2.416,2.416,0,0,0-2.115-.914,2.1,2.1,0,0,0-1.857,1.014,5.408,5.408,0,0,0-.662,2.947,5.125,5.125,0,0,0,.668,2.9A2.182,2.182,0,0,0,139.008,23.387ZM154.219,15.2a2.267,2.267,0,0,0-1.781.721,3.336,3.336,0,0,0-.738,2.045h5.016a2.979,2.979,0,0,0-.691-2.045A2.341,2.341,0,0,0,154.219,15.2Zm.5,11.039a6.762,6.762,0,0,1-4.945-1.746A6.611,6.611,0,0,1,148,19.543a7.272,7.272,0,0,1,1.646-5.092,5.863,5.863,0,0,1,4.553-1.8,5.771,5.771,0,0,1,4.324,1.582,5.985,5.985,0,0,1,1.547,4.371V20.34h-8.449a3.44,3.44,0,0,0,.9,2.379,3.175,3.175,0,0,0,2.367.855,9.827,9.827,0,0,0,2.238-.246,11.2,11.2,0,0,0,2.2-.785v2.766a8.393,8.393,0,0,1-2,.7A12.635,12.635,0,0,1,154.723,26.234ZM174.633,15.2a2.267,2.267,0,0,0-1.781.721,3.336,3.336,0,0,0-.738,2.045h5.016a2.979,2.979,0,0,0-.691-2.045A2.341,2.341,0,0,0,174.633,15.2Zm.5,11.039a6.762,6.762,0,0,1-4.945-1.746,6.611,6.611,0,0,1-1.781-4.945,7.272,7.272,0,0,1,1.646-5.092,5.863,5.863,0,0,1,4.553-1.8,5.771,5.771,0,0,1,4.324,1.582,5.985,5.985,0,0,1,1.547,4.371V20.34h-8.449a3.44,3.44,0,0,0,.9,2.379,3.175,3.175,0,0,0,2.367.855,9.827,9.827,0,0,0,2.238-.246,11.2,11.2,0,0,0,2.2-.785v2.766a8.393,8.393,0,0,1-2,.7A12.635,12.635,0,0,1,175.137,26.234Zm17.332-6.809a5.5,5.5,0,0,0,.639,2.941,2.284,2.284,0,0,0,2.08,1,2.248,2.248,0,0,0,2.057-.99,5.578,5.578,0,0,0,.627-2.947,5.412,5.412,0,0,0-.633-2.918A2.691,2.691,0,0,0,193.1,16.5,5.407,5.407,0,0,0,192.469,19.426Zm9.059,0a7.04,7.04,0,0,1-1.687,5,6.119,6.119,0,0,1-4.7,1.8,6.574,6.574,0,0,1-3.328-.826,5.5,5.5,0,0,1-2.215-2.373,7.974,7.974,0,0,1-.773-3.609,7,7,0,0,1,1.676-4.992,6.154,6.154,0,0,1,4.711-1.781,6.611,6.611,0,0,1,3.328.82,5.475,5.475,0,0,1,2.215,2.355A7.9,7.9,0,0,1,201.527,19.426ZM213.762,26l-.48-1.676h-.187a3.771,3.771,0,0,1-1.629,1.412,5.561,5.561,0,0,1-2.4.5A4.575,4.575,0,0,1,205.582,25a4.975,4.975,0,0,1-1.172-3.557V12.9h3.574v7.652a3.676,3.676,0,0,0,.5,2.127,1.833,1.833,0,0,0,1.605.709,2.414,2.414,0,0,0,2.168-1,6.214,6.214,0,0,0,.668-3.322V12.9H216.5V26Zm12.012-2.613a7.748,7.748,0,0,0,2.25-.41v2.66a8.022,8.022,0,0,1-3.281.6,4.016,4.016,0,0,1-3.123-1.084,4.718,4.718,0,0,1-.979-3.252V15.582H218.93V14.07l1.969-1.2,1.031-2.766h2.285V12.9h3.668v2.684h-3.668V21.9a1.4,1.4,0,0,0,.428,1.125A1.688,1.688,0,0,0,225.773,23.387Zm12.211-10.734a5.764,5.764,0,0,1,1.207.105l-.27,3.352a4.1,4.1,0,0,0-1.055-.117,3.79,3.79,0,0,0-2.666.879,3.177,3.177,0,0,0-.955,2.461V26h-3.574V12.9h2.707l.527,2.2h.176a4.925,4.925,0,0,1,1.646-1.775A4.06,4.06,0,0,1,237.984,12.652Zm6.434,6.773a5.5,5.5,0,0,0,.639,2.941,2.284,2.284,0,0,0,2.08,1,2.248,2.248,0,0,0,2.057-.99,5.578,5.578,0,0,0,.627-2.947,5.412,5.412,0,0,0-.633-2.918,2.691,2.691,0,0,0-4.137-.006A5.407,5.407,0,0,0,244.418,19.426Zm9.059,0a7.04,7.04,0,0,1-1.687,5,6.119,6.119,0,0,1-4.7,1.8,6.574,6.574,0,0,1-3.328-.826,5.5,5.5,0,0,1-2.215-2.373,7.974,7.974,0,0,1-.773-3.609,7,7,0,0,1,1.676-4.992,6.154,6.154,0,0,1,4.711-1.781,6.611,6.611,0,0,1,3.328.82,5.475,5.475,0,0,1,2.215,2.355A7.9,7.9,0,0,1,253.477,19.426Zm12.094,2.684a3.607,3.607,0,0,1-1.4,3.07,6.919,6.919,0,0,1-4.189,1.055,13.159,13.159,0,0,1-2.437-.193,9.22,9.22,0,0,1-1.887-.568V22.52a12.46,12.46,0,0,0,2.244.785,9.087,9.087,0,0,0,2.2.316q1.945,0,1.945-1.125a.939.939,0,0,0-.258-.686,3.738,3.738,0,0,0-.891-.6q-.633-.334-1.687-.779a10.6,10.6,0,0,1-2.221-1.172,3.3,3.3,0,0,1-1.031-1.236,4.081,4.081,0,0,1-.322-1.717,3.112,3.112,0,0,1,1.354-2.7,6.593,6.593,0,0,1,3.838-.955,10.894,10.894,0,0,1,4.605,1.031l-1.078,2.578q-.984-.422-1.84-.691a5.777,5.777,0,0,0-1.746-.27q-1.582,0-1.582.855a1.006,1.006,0,0,0,.51.832,13.863,13.863,0,0,0,2.232,1.043,10.371,10.371,0,0,1,2.25,1.16,3.431,3.431,0,0,1,1.055,1.242A3.817,3.817,0,0,1,265.57,22.109Zm14.344,4.125q-6.117,0-6.117-6.715a7.163,7.163,0,0,1,1.664-5.1,6.242,6.242,0,0,1,4.77-1.764,9.093,9.093,0,0,1,4.078.891l-1.055,2.766q-.844-.34-1.57-.557a5.06,5.06,0,0,0-1.453-.217q-2.789,0-2.789,3.961,0,3.844,2.789,3.844a6.359,6.359,0,0,0,1.91-.275A6.9,6.9,0,0,0,283.9,22.2v3.059a5.761,5.761,0,0,1-1.752.762A9.852,9.852,0,0,1,279.914,26.234Zm9.867-6.809a5.5,5.5,0,0,0,.639,2.941,2.284,2.284,0,0,0,2.08,1,2.248,2.248,0,0,0,2.057-.99,5.578,5.578,0,0,0,.627-2.947,5.412,5.412,0,0,0-.633-2.918,2.691,2.691,0,0,0-4.137-.006A5.407,5.407,0,0,0,289.781,19.426Zm9.059,0a7.04,7.04,0,0,1-1.687,5,6.119,6.119,0,0,1-4.7,1.8,6.574,6.574,0,0,1-3.328-.826,5.5,5.5,0,0,1-2.215-2.373,7.974,7.974,0,0,1-.773-3.609,7,7,0,0,1,1.676-4.992,6.154,6.154,0,0,1,4.711-1.781,6.611,6.611,0,0,1,3.328.82,5.475,5.475,0,0,1,2.215,2.355A7.9,7.9,0,0,1,298.84,19.426ZM313.523,26h-3.574V18.348a3.855,3.855,0,0,0-.475-2.127,1.669,1.669,0,0,0-1.494-.709,2.164,2.164,0,0,0-1.992,1.008,6.611,6.611,0,0,0-.621,3.316V26h-3.574V12.9h2.73l.48,1.676h.2a3.631,3.631,0,0,1,1.523-1.412,4.946,4.946,0,0,1,2.285-.51q2.941,0,3.984,1.922h.316a3.54,3.54,0,0,1,1.553-1.418,5.178,5.178,0,0,1,2.314-.5,4.569,4.569,0,0,1,3.369,1.143,5.017,5.017,0,0,1,1.143,3.662V26h-3.586V18.348a3.855,3.855,0,0,0-.475-2.127,1.669,1.669,0,0,0-1.494-.709,2.229,2.229,0,0,0-1.963.938,5.319,5.319,0,0,0-.65,2.977Zm19.125-13.348a4.238,4.238,0,0,1,3.633,1.811,8.308,8.308,0,0,1,1.313,4.963,8.162,8.162,0,0,1-1.354,5.027,4.726,4.726,0,0,1-7.307.105h-.246L328.09,26h-2.73V7.766h3.574v4.242q0,.809-.141,2.59h.141A4.135,4.135,0,0,1,332.648,12.652ZM331.5,15.512a2.257,2.257,0,0,0-1.934.814,4.676,4.676,0,0,0-.633,2.689V19.4a5.52,5.52,0,0,0,.627,3.023,2.238,2.238,0,0,0,1.986.914,1.993,1.993,0,0,0,1.752-1.014,5.487,5.487,0,0,0,.65-2.947,5.2,5.2,0,0,0-.656-2.9A2.058,2.058,0,0,0,331.5,15.512ZM349.828,26l-.48-1.676h-.187a3.771,3.771,0,0,1-1.629,1.412,5.561,5.561,0,0,1-2.4.5A4.575,4.575,0,0,1,341.648,25a4.975,4.975,0,0,1-1.172-3.557V12.9h3.574v7.652a3.676,3.676,0,0,0,.5,2.127,1.833,1.833,0,0,0,1.605.709,2.414,2.414,0,0,0,2.168-1A6.214,6.214,0,0,0,349,19.063V12.9h3.574V26Zm15.633-3.891a3.607,3.607,0,0,1-1.4,3.07,6.919,6.919,0,0,1-4.189,1.055,13.159,13.159,0,0,1-2.437-.193,9.22,9.22,0,0,1-1.887-.568V22.52a12.46,12.46,0,0,0,2.244.785,9.087,9.087,0,0,0,2.2.316q1.945,0,1.945-1.125a.939.939,0,0,0-.258-.686,3.738,3.738,0,0,0-.891-.6q-.633-.334-1.687-.779a10.6,10.6,0,0,1-2.221-1.172,3.3,3.3,0,0,1-1.031-1.236,4.081,4.081,0,0,1-.322-1.717,3.112,3.112,0,0,1,1.354-2.7,6.593,6.593,0,0,1,3.838-.955,10.894,10.894,0,0,1,4.605,1.031l-1.078,2.578q-.984-.422-1.84-.691a5.777,5.777,0,0,0-1.746-.27q-1.582,0-1.582.855a1.006,1.006,0,0,0,.51.832,13.863,13.863,0,0,0,2.232,1.043,10.371,10.371,0,0,1,2.25,1.16,3.431,3.431,0,0,1,1.055,1.242A3.817,3.817,0,0,1,365.461,22.109Zm8.309,1.277a7.748,7.748,0,0,0,2.25-.41v2.66a8.022,8.022,0,0,1-3.281.6,4.016,4.016,0,0,1-3.123-1.084,4.718,4.718,0,0,1-.979-3.252V15.582h-1.711V14.07l1.969-1.2,1.031-2.766h2.285V12.9h3.668v2.684h-3.668V21.9a1.4,1.4,0,0,0,.428,1.125A1.688,1.688,0,0,0,373.77,23.387ZM382.242,26h-3.574V12.9h3.574Zm-3.75-14.543v-.316a32.993,32.993,0,0,0,2.754-3.527h4.008v.246q-.609.609-2.08,1.811t-2.3,1.787ZM389.109,26l-4.992-13.1h3.738l2.531,7.465a13.32,13.32,0,0,1,.527,2.684h.07a11.67,11.67,0,0,1,.527-2.684l2.52-7.465h3.738L392.777,26ZM405.07,15.2a2.267,2.267,0,0,0-1.781.721,3.336,3.336,0,0,0-.738,2.045h5.016a2.979,2.979,0,0,0-.691-2.045A2.341,2.341,0,0,0,405.07,15.2Zm.5,11.039a6.762,6.762,0,0,1-4.945-1.746,6.611,6.611,0,0,1-1.781-4.945,7.272,7.272,0,0,1,1.646-5.092,5.863,5.863,0,0,1,4.553-1.8,5.771,5.771,0,0,1,4.324,1.582,5.985,5.985,0,0,1,1.547,4.371V20.34h-8.449a3.44,3.44,0,0,0,.9,2.379,3.175,3.175,0,0,0,2.367.855,9.827,9.827,0,0,0,2.238-.246,11.2,11.2,0,0,0,2.2-.785v2.766a8.393,8.393,0,0,1-2,.7A12.635,12.635,0,0,1,405.574,26.234Zm8.1-16.723q0-1.746,1.945-1.746t1.945,1.746a1.7,1.7,0,0,1-.486,1.295,2.044,2.044,0,0,1-1.459.463Q413.672,11.27,413.672,9.512ZM417.4,26h-3.574V12.9H417.4Zm12.891-3.891a3.607,3.607,0,0,1-1.4,3.07,6.919,6.919,0,0,1-4.189,1.055,13.159,13.159,0,0,1-2.437-.193,9.22,9.22,0,0,1-1.887-.568V22.52a12.46,12.46,0,0,0,2.244.785,9.087,9.087,0,0,0,2.2.316q1.945,0,1.945-1.125a.939.939,0,0,0-.258-.686,3.738,3.738,0,0,0-.891-.6q-.633-.334-1.687-.779a10.6,10.6,0,0,1-2.221-1.172,3.3,3.3,0,0,1-1.031-1.236,4.081,4.081,0,0,1-.322-1.717,3.112,3.112,0,0,1,1.354-2.7,6.593,6.593,0,0,1,3.838-.955,10.894,10.894,0,0,1,4.605,1.031l-1.078,2.578q-.984-.422-1.84-.691a5.777,5.777,0,0,0-1.746-.27q-1.582,0-1.582.855a1.006,1.006,0,0,0,.51.832,13.863,13.863,0,0,0,2.232,1.043,10.371,10.371,0,0,1,2.25,1.16,3.431,3.431,0,0,1,1.055,1.242A3.817,3.817,0,0,1,430.289,22.109Z" transform="translate(458 503)" fill="#fff"/>
      <g id="Grupo_970" data-name="Grupo 970">
        <g id="Grupo_916" data-name="Grupo 916">
          <g id="Grupo_72" data-name="Grupo 72" transform="translate(192.079 39)">
            <path id="Subtração_1" data-name="Subtração 1" d="M182,187a185.27,185.27,0,0,1-18.608-.938,182.79,182.79,0,0,1-18.071-2.753,181.334,181.334,0,0,1-34.163-10.585,182.124,182.124,0,0,1-30.915-16.749,183.23,183.23,0,0,1-26.935-22.182,183.036,183.036,0,0,1-22.224-26.885A181.561,181.561,0,0,1,14.3,76.052a180.492,180.492,0,0,1-10.6-34.1A181.815,181.815,0,0,1,.94,23.916,184.226,184.226,0,0,1,0,5.343C0,3.567.026,1.77.077,0a180.482,180.482,0,0,0,55,124.852A181.205,181.205,0,0,0,182,176.314,181.206,181.206,0,0,0,308.92,124.852,180.482,180.482,0,0,0,363.923,0c.052,1.781.077,3.579.077,5.343a184.235,184.235,0,0,1-.94,18.573A181.811,181.811,0,0,1,360.3,41.953a180.488,180.488,0,0,1-10.6,34.1,181.563,181.563,0,0,1-16.78,30.857,183.03,183.03,0,0,1-22.224,26.885,183.23,183.23,0,0,1-26.936,22.182,182.121,182.121,0,0,1-30.915,16.749,181.335,181.335,0,0,1-34.163,10.585c-5.941,1.213-12.021,2.139-18.071,2.753A185.27,185.27,0,0,1,182,187Z" transform="translate(308.921 245)" fill="#fff" opacity="0.5"/>
            <path id="Subtração_2" data-name="Subtração 2" d="M182,187a183.681,183.681,0,0,1-36.679-3.691,181.335,181.335,0,0,1-34.163-10.585,182.129,182.129,0,0,1-30.915-16.749,183.237,183.237,0,0,1-26.935-22.182,183.04,183.04,0,0,1-22.224-26.885A181.561,181.561,0,0,1,14.3,76.052a180.488,180.488,0,0,1-10.6-34.1A182.664,182.664,0,0,1,0,5.343C0,3.569.026,1.771.077,0,2.94,98.868,82.849,176.314,182,176.314S361.06,98.868,363.922,0c.052,1.8.077,3.593.077,5.343a182.663,182.663,0,0,1-3.7,36.61,180.494,180.494,0,0,1-10.6,34.1,181.57,181.57,0,0,1-16.78,30.857,183.038,183.038,0,0,1-22.224,26.885,183.239,183.239,0,0,1-26.936,22.182,182.126,182.126,0,0,1-30.915,16.749,181.336,181.336,0,0,1-34.163,10.585A183.681,183.681,0,0,1,182,187Z" transform="translate(308.921 255)" fill="#cbdfb3" style="mix-blend-mode: multiply;isolation: isolate"/>
          </g>
          <g id="Grupo_238" data-name="Grupo 238" transform="translate(616 -254.198)">
            <path id="Caminho_387" data-name="Caminho 387" d="M224.831,897.526s3.481,1.875,3.749,5.624a81.6,81.6,0,0,1,0,8.569s-.676,6.581-9.1,9.908c-10.176,4.017-19.28,6.962-42.577,7.5h.536c-23.3-.536-32.4-3.481-42.578-7.5-8.428-3.327-9.1-9.908-9.1-9.908a81.6,81.6,0,0,1,0-8.569c.267-3.749,3.749-5.624,3.749-5.624Z" transform="translate(-23.149 -214.359)" fill="#c6af95"/>
            <ellipse id="Elipse_34" data-name="Elipse 34" cx="1.205" cy="2.008" rx="1.205" ry="2.008" transform="translate(106.887 696.288)" fill="#7c6450"/>
            <circle id="Elipse_35" data-name="Elipse 35" cx="2.142" cy="2.142" r="2.142" transform="translate(152.41 705.125)" fill="#7c6450"/>
            <path id="Caminho_388" data-name="Caminho 388" d="M183.545,914.9l-4.553,8.569s-17.406-1.607-20.351-3.213l-3.749-11.783Z" transform="translate(-40.239 -220.752)" fill="#7c6450"/>
            <ellipse id="Elipse_36" data-name="Elipse 36" cx="1.205" cy="2.008" rx="1.205" ry="2.008" transform="translate(198.736 696.288)" fill="#7c6450"/>
            <path id="Caminho_389" data-name="Caminho 389" d="M275.292,914.9l4.552,8.569s17.406-1.607,20.352-3.213l3.749-11.783Z" transform="translate(-110.564 -220.752)" fill="#7c6450"/>
            <g id="Grupo_237" data-name="Grupo 237" transform="translate(87.612 557.31)">
              <g id="Grupo_236" data-name="Grupo 236" transform="translate(0)">
                <path id="Caminho_390" data-name="Caminho 390" d="M154.673,733.092a133.4,133.4,0,0,0,32.745-3.336c20.213-4.7,34.389-16.477,34.193-37.229l-.433-63.5c-.207-21.884-17.769-29.554-38.54-31.212l-27.162-2.894h.536l-27.162,2.894c-20.771,1.658-38.333,9.328-38.54,31.212l-.433,63.5c-.2,20.752,13.979,32.531,34.193,37.229a133.4,133.4,0,0,0,32.745,3.336Z" transform="translate(-89.875 -594.917)" fill="#dbcebb"/>
                <path id="Caminho_391" data-name="Caminho 391" d="M130.147,622.865c-2.708-.814-5.975-2.839-5.2-5.557.666-2.332,3.722-2.788,6.147-2.8l38.793-.149c-7.914-6.4-19.219-5.68-29.341-4.635-10.509,1.084-21.965,2.614-29.242,10.274-6.858,7.219-8.129,17.955-8.8,27.889q-1.381,20.418-1.37,40.9c0,9.13.323,18.674,4.733,26.668,4.576,8.3,13.189,13.892,22.372,16.229s18.9,1.689,28.176-.266c-6.048-1.8-12.312-3.722-17-7.945s-7.305-11.457-4.319-17.016c3.34-6.217,11.767-7.567,18.737-6.464s13.822,3.906,20.839,3.155,14.206-7.232,12.133-13.978c6.647.245,13.41.477,19.841-1.224s12.6-5.652,15.35-11.708c-10.92,4.318-22.194,8.7-33.935,8.513s-24.2-6.113-28.505-17.036c-2.623-6.65-1.906-14.246.492-20.98s6.36-12.782,10.286-18.757c-6.35-3.758-10.817-2.238-17.52-1.862C145.31,626.538,137.3,625.014,130.147,622.865Z" transform="translate(-96.451 -603.167)" fill="#c6baa8"/>
              </g>
            </g>
            <path id="Caminho_392" data-name="Caminho 392" d="M220.572,754.505a1.607,1.607,0,0,0-2.266-.168c-13.047,11.247-53.391,11.95-63.534,11.945a1.648,1.648,0,0,0-.254-.017c-.041,0-.4.007-1.038.012s-1-.011-1.038-.012a1.648,1.648,0,0,0-.254.017c-10.143,0-50.487-.7-63.534-11.945a1.607,1.607,0,0,0-2.1,2.434c13.742,11.846,53.352,12.733,64.9,12.733.824,0,1.5,0,2.023-.01s1.2.01,2.023.01c11.548,0,51.159-.887,64.9-12.733A1.607,1.607,0,0,0,220.572,754.505Z" transform="translate(0 -130.496)" fill="#f7f0f2"/>
            <path id="Caminho_393" data-name="Caminho 393" d="M220.572,763.519a1.607,1.607,0,0,0-2.266-.168C205.259,774.6,164.915,775.3,154.772,775.3a1.64,1.64,0,0,0-.254-.017c-.041,0-.4.007-1.038.012s-1-.011-1.038-.012a1.64,1.64,0,0,0-.254.017c-10.143.005-50.487-.7-63.534-11.945a1.607,1.607,0,0,0-2.1,2.434c13.742,11.846,53.352,12.733,64.9,12.733.824,0,1.5,0,2.023-.01s1.2.01,2.023.01c11.548,0,51.159-.887,64.9-12.733A1.607,1.607,0,0,0,220.572,763.519Z" transform="translate(0 -135.761)" fill="#9e856d"/>
            <path id="Caminho_394" data-name="Caminho 394" d="M220.572,758.368a1.607,1.607,0,0,0-2.266-.168c-13.047,11.247-53.391,11.951-63.534,11.946a1.582,1.582,0,0,0-.254-.017c-.041,0-.4.007-1.038.012s-1-.011-1.038-.012a1.582,1.582,0,0,0-.254.017c-10.143.005-50.487-.7-63.534-11.946a1.607,1.607,0,0,0-2.1,2.434c13.742,11.846,53.352,12.733,64.9,12.733.824,0,1.5,0,2.023-.01s1.2.01,2.023.01c11.548,0,51.159-.887,64.9-12.733A1.607,1.607,0,0,0,220.572,758.368Z" transform="translate(0 -132.752)" fill="#dbcebb"/>
            <ellipse id="Elipse_37" data-name="Elipse 37" cx="40.167" cy="5.356" rx="40.167" ry="5.356" transform="translate(113.581 530.532)" fill="#dbcebb"/>
            <ellipse id="Elipse_38" data-name="Elipse 38" cx="32.669" cy="2.678" rx="32.669" ry="2.678" transform="translate(121.079 533.21)" fill="#7c6450"/>
            <path id="Caminho_395" data-name="Caminho 395" d="M154.934,565.8l0,.306a2.237,2.237,0,0,0,1.529,2.144l2.4.8a1.72,1.72,0,0,0,2.258-1.778h0A16.71,16.71,0,0,1,154.934,565.8Z" transform="translate(-40.262 -20.599)" fill="#7c6450"/>
            <path id="Caminho_396" data-name="Caminho 396" d="M334.8,565.8l0,.306a2.237,2.237,0,0,1-1.529,2.144l-2.4.8a1.72,1.72,0,0,1-2.258-1.778h0A16.709,16.709,0,0,0,334.8,565.8Z" transform="translate(-141.704 -20.599)" fill="#7c6450"/>
            <path id="Caminho_397" data-name="Caminho 397" d="M232.651,543.409c0,2.958-17.983,5.356-40.167,5.356s-40.167-2.4-40.167-5.356l.268,8.837s2.946,2.142,10.443,2.142l1.071,21.958,10.443.536.268-8.034a145.493,145.493,0,0,0,35.481,0l.268,8.034L221,576.346l1.071-21.958c7.5,0,10.443-2.142,10.443-2.142l.268-8.837Z" transform="translate(-38.735 -7.522)" fill="#c6af95"/>
            <ellipse id="Elipse_39" data-name="Elipse 39" cx="8.435" cy="5.222" rx="8.435" ry="5.222" transform="translate(190.569 575.117)" fill="#eaded0"/>
            <ellipse id="Elipse_40" data-name="Elipse 40" cx="5.222" cy="3.233" rx="5.222" ry="3.233" transform="translate(196.995 593.059)" fill="#eaded0"/>
          </g>
          <g id="Grupo_85" data-name="Grupo 85" transform="translate(72)">
            <rect id="Retângulo_134" data-name="Retângulo 134" width="317" height="36" rx="6" transform="translate(453 454)" fill="#fff"/>
            <path id="Caminho_1375" data-name="Caminho 1375" d="M17.882,6.723v9.238a5.326,5.326,0,0,1-.708,2.773,4.608,4.608,0,0,1-2.046,1.826,7.317,7.317,0,0,1-3.164.635,6.058,6.058,0,0,1-4.277-1.411,5.006,5.006,0,0,1-1.523-3.862v-9.2H9.181v8.74a3.661,3.661,0,0,0,.664,2.422,2.761,2.761,0,0,0,2.2.771A2.7,2.7,0,0,0,14.2,17.88a3.68,3.68,0,0,0,.669-2.437V6.723ZM29.806,17.035a3.691,3.691,0,0,1-1.392,3.047A6.045,6.045,0,0,1,24.542,21.2a9.094,9.094,0,0,1-4.043-.859V17.523a16.661,16.661,0,0,0,2.446.908,7.239,7.239,0,0,0,1.831.264,2.6,2.6,0,0,0,1.528-.381,1.3,1.3,0,0,0,.532-1.133,1.251,1.251,0,0,0-.234-.747,2.623,2.623,0,0,0-.688-.63,17.707,17.707,0,0,0-1.851-.967A8.771,8.771,0,0,1,22.1,13.656a4.436,4.436,0,0,1-1.045-1.318,3.762,3.762,0,0,1-.391-1.758A3.69,3.69,0,0,1,21.949,7.6,5.336,5.336,0,0,1,25.5,6.518a8.383,8.383,0,0,1,2.124.264,14.6,14.6,0,0,1,2.114.742l-.977,2.354a14.288,14.288,0,0,0-1.89-.654,6.082,6.082,0,0,0-1.47-.186,1.946,1.946,0,0,0-1.318.4,1.321,1.321,0,0,0-.459,1.045,1.293,1.293,0,0,0,.186.7,2.04,2.04,0,0,0,.591.576,18.267,18.267,0,0,0,1.919,1,7.635,7.635,0,0,1,2.744,1.919A3.745,3.745,0,0,1,29.806,17.035Zm15.547-3.193a7.747,7.747,0,0,1-1.758,5.449,6.517,6.517,0,0,1-5.039,1.9,6.517,6.517,0,0,1-5.039-1.9,7.778,7.778,0,0,1-1.758-5.469,7.672,7.672,0,0,1,1.763-5.444A6.592,6.592,0,0,1,38.575,6.5a6.5,6.5,0,0,1,5.034,1.895A7.767,7.767,0,0,1,45.353,13.842Zm-10.42,0a5.964,5.964,0,0,0,.908,3.6,3.178,3.178,0,0,0,2.715,1.211q3.623,0,3.623-4.814t-3.6-4.824a3.2,3.2,0,0,0-2.725,1.216A5.939,5.939,0,0,0,34.933,13.842Zm30.42-.117a7.031,7.031,0,0,1-2.007,5.4A8.184,8.184,0,0,1,57.55,21H53.507V6.723h4.482a7.548,7.548,0,0,1,5.43,1.846A6.789,6.789,0,0,1,65.353,13.725Zm-3.145.078q0-4.6-4.062-4.6H56.534v9.3h1.3Q62.208,18.5,62.208,13.8Zm19.063.039a7.747,7.747,0,0,1-1.758,5.449,6.517,6.517,0,0,1-5.039,1.9,6.517,6.517,0,0,1-5.039-1.9,7.778,7.778,0,0,1-1.758-5.469,7.672,7.672,0,0,1,1.763-5.444A6.592,6.592,0,0,1,74.493,6.5a6.5,6.5,0,0,1,5.034,1.895A7.767,7.767,0,0,1,81.271,13.842Zm-10.42,0a5.964,5.964,0,0,0,.908,3.6,3.178,3.178,0,0,0,2.715,1.211q3.623,0,3.623-4.814t-3.6-4.824a3.2,3.2,0,0,0-2.725,1.216A5.939,5.939,0,0,0,70.851,13.842ZM90.274,21,86.837,9.8h-.088q.186,3.418.186,4.561V21H84.229V6.723h4.121l3.379,10.918h.059L95.372,6.723h4.121V21H96.671V14.242q0-.479.015-1.1t.132-3.32h-.088L93.048,21Zm21.035,0h-8.223V6.723h8.223V9.2h-5.2v3.135h4.834v2.48h-4.834V18.5h5.2ZM105.431,5.58V5.316a27.494,27.494,0,0,0,2.295-2.939h3.34v.205q-.508.508-1.733,1.509T107.413,5.58Zm17.285,11.455a3.691,3.691,0,0,1-1.392,3.047,6.045,6.045,0,0,1-3.872,1.113,9.094,9.094,0,0,1-4.043-.859V17.523a16.661,16.661,0,0,0,2.446.908,7.239,7.239,0,0,0,1.831.264,2.6,2.6,0,0,0,1.528-.381,1.3,1.3,0,0,0,.532-1.133,1.251,1.251,0,0,0-.234-.747,2.623,2.623,0,0,0-.688-.63,17.707,17.707,0,0,0-1.851-.967,8.771,8.771,0,0,1-1.963-1.182,4.436,4.436,0,0,1-1.045-1.318,3.762,3.762,0,0,1-.391-1.758A3.69,3.69,0,0,1,114.859,7.6a5.336,5.336,0,0,1,3.55-1.084,8.383,8.383,0,0,1,2.124.264,14.6,14.6,0,0,1,2.114.742l-.977,2.354a14.288,14.288,0,0,0-1.89-.654,6.082,6.082,0,0,0-1.47-.186,1.946,1.946,0,0,0-1.318.4,1.321,1.321,0,0,0-.459,1.045,1.293,1.293,0,0,0,.186.7,2.04,2.04,0,0,0,.591.576,18.267,18.267,0,0,0,1.919,1,7.635,7.635,0,0,1,2.744,1.919A3.745,3.745,0,0,1,122.716,17.035Zm8.1,3.965h-3.027V9.242h-3.877V6.723h10.781v2.52h-3.877Zm6.074,0V6.723h3.027V21ZM149.571,9.037a3.085,3.085,0,0,0-2.646,1.284,5.974,5.974,0,0,0-.937,3.579q0,4.775,3.584,4.775a11.329,11.329,0,0,0,3.643-.752v2.539a10.116,10.116,0,0,1-3.926.732,5.987,5.987,0,0,1-4.766-1.89,8,8,0,0,1-1.65-5.425,8.858,8.858,0,0,1,.811-3.9,5.858,5.858,0,0,1,2.329-2.568,6.89,6.89,0,0,1,3.56-.894,9.607,9.607,0,0,1,4.18,1.006l-.977,2.461a16.166,16.166,0,0,0-1.611-.664A4.807,4.807,0,0,0,149.571,9.037Zm19.639,4.8a7.747,7.747,0,0,1-1.758,5.449,7.619,7.619,0,0,1-10.078,0,7.778,7.778,0,0,1-1.758-5.469,7.672,7.672,0,0,1,1.763-5.444,6.592,6.592,0,0,1,5.054-1.88,6.5,6.5,0,0,1,5.034,1.895A7.767,7.767,0,0,1,169.21,13.842Zm-10.42,0a5.964,5.964,0,0,0,.908,3.6,3.178,3.178,0,0,0,2.715,1.211q3.623,0,3.623-4.814t-3.6-4.824a3.2,3.2,0,0,0-2.725,1.216A5.939,5.939,0,0,0,158.79,13.842Zm30.42-.117a7.031,7.031,0,0,1-2.007,5.4,8.184,8.184,0,0,1-5.8,1.875h-4.043V6.723h4.482a7.548,7.548,0,0,1,5.43,1.846A6.789,6.789,0,0,1,189.21,13.725Zm-3.145.078q0-4.6-4.062-4.6h-1.611v9.3h1.3Q186.065,18.5,186.065,13.8ZM200.392,21h-8.223V6.723h8.223V9.2h-5.2v3.135h4.834v2.48H195.2V18.5h5.2Zm16.4,0h-8.223V6.723h8.223V9.2h-5.2v3.135h4.834v2.48h-4.834V18.5h5.2Zm15.645,0h-3.848l-6.211-10.8h-.088q.186,2.861.186,4.082V21h-2.705V6.723h3.818l6.2,10.693h.068q-.146-2.783-.146-3.936V6.723h2.725Zm11.816,0h-8.223V6.723h8.223V9.2h-5.2v3.135h4.834v2.48h-4.834V18.5h5.2Zm6.006-7.939h.977a3.736,3.736,0,0,0,2.119-.479,1.708,1.708,0,0,0,.684-1.5,1.562,1.562,0,0,0-.7-1.445,4.237,4.237,0,0,0-2.163-.43h-.918Zm0,2.461V21h-3.027V6.723h4.16a7.12,7.12,0,0,1,4.307,1.06,3.782,3.782,0,0,1,1.4,3.218,3.788,3.788,0,0,1-.693,2.241,4.588,4.588,0,0,1-1.963,1.538q3.223,4.814,4.2,6.221h-3.359l-3.408-5.479Zm15.6-2.539h5.664v7.4a15.969,15.969,0,0,1-2.593.63,16.888,16.888,0,0,1-2.485.181,6.289,6.289,0,0,1-4.937-1.9,7.9,7.9,0,0,1-1.7-5.454,7.193,7.193,0,0,1,1.978-5.391,7.509,7.509,0,0,1,5.483-1.934A10.61,10.61,0,0,1,271.5,7.4l-1.006,2.422a7.184,7.184,0,0,0-3.252-.781,4.016,4.016,0,0,0-3.145,1.318,5.114,5.114,0,0,0-1.182,3.545,5.694,5.694,0,0,0,.952,3.55,3.294,3.294,0,0,0,2.769,1.226,9.793,9.793,0,0,0,1.924-.2V15.5h-2.705ZM274.913,21V6.723h3.027V21Zm15.361,0-1.035-3.4h-5.205L283,21h-3.262l5.039-14.336h3.7L293.536,21Zm-1.758-5.937q-1.436-4.619-1.616-5.225t-.259-.957q-.322,1.25-1.846,6.182Z" transform="translate(463 459)" fill="#2a9881"/>
          </g>
          <g id="Grupo_281" data-name="Grupo 281" transform="translate(-228.439 1000.5)">
            <g id="Grupo_279" data-name="Grupo 279" transform="translate(807.117 -708)">
              <path id="Caminho_398" data-name="Caminho 398" d="M1032.405-708l52.64,27.91-39.922,82.316-48.4-32.5Z" transform="translate(-996.723 708)" fill="#bcb982"/>
              <path id="Caminho_399" data-name="Caminho 399" d="M1032.688-702.867l49.271,26.568-37.367,78.359-45.3-30.94Z" transform="translate(-997.876 705.693)" fill="#f4ea92"/>
              <path id="Caminho_400" data-name="Caminho 400" d="M1044.309-640.308l30.383,18.018-9.186,16.958-29.323-16.6Z" transform="translate(-1014.456 677.58)" fill="#bcb982"/>
              <ellipse id="Elipse_41" data-name="Elipse 41" cx="2.473" cy="1.943" rx="2.473" ry="1.943" transform="translate(46.457 55.82)" fill="#898456"/>
              <ellipse id="Elipse_42" data-name="Elipse 42" cx="2.473" cy="1.943" rx="2.473" ry="1.943" transform="translate(37.625 57.056)" fill="#898456"/>
              <ellipse id="Elipse_43" data-name="Elipse 43" cx="2.473" cy="1.943" rx="2.473" ry="1.943" transform="translate(34.092 49.284)" fill="#898456"/>
              <path id="Caminho_401" data-name="Caminho 401" d="M1044.662-638.541l-7.572,17.118-.907-.514,8.126-18.371,30.383,18.018-.638,1.178Z" transform="translate(-1014.456 677.58)" fill="#9e9a6a"/>
              <ellipse id="Elipse_44" data-name="Elipse 44" cx="2.473" cy="1.943" rx="2.473" ry="1.943" transform="translate(45.751 55.113)" fill="#9e9a6a"/>
              <ellipse id="Elipse_45" data-name="Elipse 45" cx="2.473" cy="1.943" rx="2.473" ry="1.943" transform="translate(36.919 56.349)" fill="#9e9a6a"/>
              <ellipse id="Elipse_46" data-name="Elipse 46" cx="2.473" cy="1.943" rx="2.473" ry="1.943" transform="translate(33.386 48.577)" fill="#9e9a6a"/>
            </g>
            <path id="Caminho_402" data-name="Caminho 402" d="M1023.086-582.408a2.645,2.645,0,0,1,1.408-.109.946.946,0,0,1,.717,1.069c-.2.686-1.211.654-1.743,1.132a1.419,1.419,0,0,0,.486,2.166,3.053,3.053,0,0,0,2.522-.111,7.383,7.383,0,0,1,2.213-.764,1.56,1.56,0,0,1,1.737,1.21c.064.941-1.014,1.493-1.909,1.789a8.949,8.949,0,0,0,1.872,1.948,3.028,3.028,0,0,0,2.568.517c.661-.21,1.236-.728,1.929-.734a1.618,1.618,0,0,1,1.509,1.584,2.243,2.243,0,0,1-1.243,1.939,3.739,3.739,0,0,1-2.364.289,11.392,11.392,0,0,1-4.345-2.126l-8.494-5.789c-1.045-.712-2.688-1.447-1.113-2.566C1019.253-581.259,1023.086-582.262,1023.086-582.408Z" transform="translate(-199.251 -56.365)" fill="#59494d"/>
            <path id="Caminho_403" data-name="Caminho 403" d="M1017.821-569.138a2.394,2.394,0,0,1-.609-.4l-.005,0c-1.323-1.205-6.912-6.358-7.844-8.224-.683-1.366.247-3.611,1-5.036a2.4,2.4,0,0,1,2.477-1.256,16.133,16.133,0,0,1,4.3,1.347c3.462,1.573,12.808,8.751,14.811,10.3a2.423,2.423,0,0,1,.619.713l.638,1.117a2.42,2.42,0,0,1,.195,1.966l-.21.631a2.431,2.431,0,0,1-.474.829l-1.429,1.633a2.42,2.42,0,0,1-1.821.827h-1.547a2.415,2.415,0,0,1-1.019-.225Z" transform="translate(-195.179 -55.684)" fill="#7c6a6e"/>
            <ellipse id="Elipse_47" data-name="Elipse 47" cx="3.71" cy="4.063" rx="3.71" ry="4.063" transform="translate(820.542 -633.103)" fill="#7c6a6e"/>
            <path id="Caminho_404" data-name="Caminho 404" d="M752.862-610.722c15.564,4.263,31.771,5.561,47.61,8.654s31.822,8.265,43.936,18.928c1.892,1.666,3.837,4.062,3,6.44-1.2,3.394-6.149,2.753-9.5,1.45L801.99-589.2a177.835,177.835,0,0,1,29.031,13.692c2.87,1.685,5.986,3.889,6.384,7.194.524,4.356-4.362,7.776-8.743,7.541s-8.2-2.885-11.866-5.3-7.778-4.78-12.143-4.335a11.086,11.086,0,0,1,11.194,3.934c2.468,3.381,2.312,8.564-.663,11.508s-8.524,2.862-11.121-.421c1.977,3.017.262,7.343-2.721,9.372s-6.777,2.341-10.382,2.465c-19.641.678-40.2-2.642-56.114-14.171-8.537-6.184-15.347-14.431-23.357-21.284C697.7-590.8,680.659-598.2,663.266-603.359c-5.3-1.571-11.292-3.468-13.626-8.476-2.408-5.164.228-11.158,2.827-16.228,3.5-6.825,7.287-13.976,13.778-18.061a16.233,16.233,0,0,1,18.432.628c6.315,4.549,12.759,8.787,19.554,12.772C719.6-623.71,735.605-615.449,752.862-610.722Z" transform="translate(-33.204 -26.653)" fill="#efcc6c"/>
            <path id="Caminho_405" data-name="Caminho 405" d="M802.169-592.83c5.558,3.255,12.554,2.722,18.788,1.1s12.261-4.225,18.672-4.854c19.2-1.882,36.253,14.063,55.544,14.258,3.245.032,7.131-.1,8.96,2.584,2.389,3.5-1.169,8.13-4.951,10.044a24.558,24.558,0,0,1-19.434,1.079c-3.57-1.334-7.467-3.529-10.918-1.912-2.193,1.027-3.442,3.313-4.857,5.278a25.014,25.014,0,0,1-18.835,10.207,25.014,25.014,0,0,1-19.706-8.4" transform="translate(-102.175 -50.001)" fill="#f7da92"/>
            <path id="Caminho_406" data-name="Caminho 406" d="M975.658-567.427a21.07,21.07,0,0,1-12.771-2.108,11.107,11.107,0,0,1,13.26,1.943" transform="translate(-174.401 -61.607)" fill="#f2e3c2"/>
            <g id="Grupo_280" data-name="Grupo 280" transform="translate(574.806 -632.619)">
              <path id="Caminho_407" data-name="Caminho 407" d="M578.388-463.476a3.561,3.561,0,0,0,2.175-.739c16.364-12.546,37.17-20.855,67.46-26.942,8.342-1.676,16.91-3.117,25.2-4.511,16.024-2.695,32.594-5.481,48.549-10.126,24.99-7.275,51.834-25.1,75.518-40.823,9.767-6.485,18.992-12.611,27.738-17.825a3.579,3.579,0,0,0,1.241-4.907,3.58,3.58,0,0,0-4.907-1.241c-8.9,5.3-18.19,11.476-28.031,18.01-24.394,16.2-49.617,32.943-73.56,39.914-15.553,4.528-31.913,7.279-47.735,9.939-8.342,1.4-16.968,2.853-25.42,4.552-21.149,4.25-48.265,11.305-70.405,28.28a3.578,3.578,0,0,0-.662,5.018A3.573,3.573,0,0,0,578.388-463.476Z" transform="translate(-574.806 571.096)" fill="#bcafb1"/>
            </g>
            <path id="Caminho_408" data-name="Caminho 408" d="M896.97-474.961a8.776,8.776,0,0,1,2-10.584,6.762,6.762,0,0,0,5.46,7.13c-2.576-2.511-5.268-5.221-6.094-8.723s1.152-7.908,4.731-8.275c2.422-.248,4.618,1.345,6.434,2.968a18.374,18.374,0,0,1,4.112,4.813,7.883,7.883,0,0,1,.771,6.138l1.564.417c-.923,2.879-3.548,4.935-6.389,5.966a29.88,29.88,0,0,1-8.935,1.306C899.233-473.743,897.64-473.733,896.97-474.961Z" transform="translate(-144.342 -95.524)" fill="#f7da92"/>
            <path id="Caminho_409" data-name="Caminho 409" d="M929.288-492.163a9.951,9.951,0,0,1-7.1-8.243,8.4,8.4,0,0,1,5.937-8.781c3.733-.937,8.077,1.662,8.709,5.459a12.61,12.61,0,0,1,3.825,4.049,6.427,6.427,0,0,1,.242,5.666,7.249,7.249,0,0,1-3.874,3.22,9.03,9.03,0,0,1-4.73.693,5.684,5.684,0,0,1-3.984-2.475l1.283.466C929.579-492.213,929.307-492.06,929.288-492.163Z" transform="translate(-156.096 -89.258)" fill="#f7da92"/>
            <path id="Caminho_410" data-name="Caminho 410" d="M909.64-480.326a3.593,3.593,0,0,1-4.163,1,3.838,3.838,0,0,1-2.18-3.734c.2-2.479,3.342-4.242,5.5-3s2.087,5.014-.169,6.06" transform="translate(-147.616 -99.554)" fill="#f2e3c2"/>
            <path id="Caminho_411" data-name="Caminho 411" d="M939.052-500.5a5.362,5.362,0,0,1,1.141,6.625,5.362,5.362,0,0,1-6.356,2.19A10.6,10.6,0,0,1,938.675-500" transform="translate(-161.346 -93.249)" fill="#f2e3c2"/>
            <path id="Caminho_412" data-name="Caminho 412" d="M1022.806-571.867a3.869,3.869,0,0,1,3.436.28,5.286,5.286,0,0,1,2.2,2.734,3.76,3.76,0,0,1-.1,3.23,3.072,3.072,0,0,1-2.382,1.377,4.547,4.547,0,0,1-2.711-.737,3.3,3.3,0,0,0,2.066-1.418,2.565,2.565,0,0,0,.159-2.457,2.105,2.105,0,0,0-2.116-1.146c-.924.141-1.69,1.1-2.585,1.075C1021.208-570.156,1021.484-571.291,1022.806-571.867Z" transform="translate(-200.416 -61.051)" fill="#59494d"/>
          </g>
        </g>
        <path id="Caminho_1374" data-name="Caminho 1374" d="M32.124,15.768V20.3h7.2a.509.509,0,0,1,.576.576v4.176a.509.509,0,0,1-.576.576h-7.2v5.04h8.532a.509.509,0,0,1,.576.576v4.176a.509.509,0,0,1-.576.576H25.464a.509.509,0,0,1-.576-.576V11.016a.509.509,0,0,1,.576-.576H40.656a.509.509,0,0,1,.576.576v4.176a.509.509,0,0,1-.576.576ZM67.4,18.36A8.9,8.9,0,0,1,70,18.72a5.128,5.128,0,0,1,2.052,1.17,5.472,5.472,0,0,1,1.35,2.088,8.675,8.675,0,0,1,.486,3.078V35.424a.509.509,0,0,1-.576.576H67.3a.509.509,0,0,1-.576-.576l.036-10.116a2.136,2.136,0,0,0-.54-1.6,1.888,1.888,0,0,0-1.368-.522,1.908,1.908,0,0,0-1.458.594,2.3,2.3,0,0,0-.558,1.638V35.424a.509.509,0,0,1-.576.576H56.28a.509.509,0,0,1-.576-.576V25.308a2.136,2.136,0,0,0-.54-1.6,1.888,1.888,0,0,0-1.368-.522,1.851,1.851,0,0,0-1.44.594,2.345,2.345,0,0,0-.54,1.638V35.424A.509.509,0,0,1,51.24,36H45.228a.509.509,0,0,1-.576-.576V19.3a.509.509,0,0,1,.576-.576h5.4a.509.509,0,0,1,.576.576v2.088a5.219,5.219,0,0,1,2.214-2.3,6.576,6.576,0,0,1,3.078-.72,7.7,7.7,0,0,1,3.348.7,4.8,4.8,0,0,1,2.268,2.322A5.337,5.337,0,0,1,64.344,19.1,6.476,6.476,0,0,1,67.4,18.36Zm13.9-1.98a4.065,4.065,0,0,1-3.006-1.062,3.505,3.505,0,0,1-1.062-2.574,3.548,3.548,0,0,1,1.062-2.61,4.785,4.785,0,0,1,6.012,0,3.548,3.548,0,0,1,1.062,2.61,3.505,3.505,0,0,1-1.062,2.574A4.065,4.065,0,0,1,81.3,16.38ZM78.312,36a.509.509,0,0,1-.576-.576V19.3a.509.509,0,0,1,.576-.576h6.012a.509.509,0,0,1,.576.576V35.424a.509.509,0,0,1-.576.576Zm16.74.288A20.453,20.453,0,0,1,91.65,36a12.315,12.315,0,0,1-2.862-.792.675.675,0,0,1-.432-.684v-4.14q0-.4.216-.4a.615.615,0,0,1,.288.108,11.619,11.619,0,0,0,2.916,1.044,13.578,13.578,0,0,0,2.916.36,2.476,2.476,0,0,0,1.134-.216.7.7,0,0,0-.108-1.314q-.522-.2-2-.594a17.7,17.7,0,0,1-2.322-.738,6.351,6.351,0,0,1-1.764-1.044A4.351,4.351,0,0,1,88.5,26.118a4.767,4.767,0,0,1-.4-2.034,4.611,4.611,0,0,1,.666-2.5,5.675,5.675,0,0,1,1.8-1.782,8.6,8.6,0,0,1,2.682-1.08,14.764,14.764,0,0,1,3.348-.36,21.094,21.094,0,0,1,2.718.18,14.986,14.986,0,0,1,2.538.54.554.554,0,0,1,.432.612v3.852q0,.288-.252.288a.618.618,0,0,1-.252-.036,13.575,13.575,0,0,0-2.2-.612,11.828,11.828,0,0,0-2.3-.252q-1.872,0-1.872.9a.661.661,0,0,0,.522.648q.522.18,1.962.576a21.443,21.443,0,0,1,2.2.72,6.326,6.326,0,0,1,1.728.99,4.094,4.094,0,0,1,1.116,1.44,4.767,4.767,0,0,1,.4,2.034,5.258,5.258,0,0,1-.576,2.448,5.525,5.525,0,0,1-1.638,1.908,8.134,8.134,0,0,1-2.592,1.242A12.316,12.316,0,0,1,95.052,36.288Zm17.568,0a20.453,20.453,0,0,1-3.4-.288,12.315,12.315,0,0,1-2.862-.792.675.675,0,0,1-.432-.684v-4.14q0-.4.216-.4a.615.615,0,0,1,.288.108,11.619,11.619,0,0,0,2.916,1.044,13.578,13.578,0,0,0,2.916.36,2.476,2.476,0,0,0,1.134-.216.7.7,0,0,0-.108-1.314q-.522-.2-2-.594a17.7,17.7,0,0,1-2.322-.738,6.351,6.351,0,0,1-1.764-1.044,4.351,4.351,0,0,1-1.134-1.476,4.767,4.767,0,0,1-.4-2.034,4.611,4.611,0,0,1,.666-2.5,5.675,5.675,0,0,1,1.8-1.782,8.6,8.6,0,0,1,2.682-1.08,14.764,14.764,0,0,1,3.348-.36,21.094,21.094,0,0,1,2.718.18,14.986,14.986,0,0,1,2.538.54.554.554,0,0,1,.432.612v3.852q0,.288-.252.288a.618.618,0,0,1-.252-.036,13.575,13.575,0,0,0-2.2-.612,11.828,11.828,0,0,0-2.3-.252q-1.872,0-1.872.9a.661.661,0,0,0,.522.648q.522.18,1.962.576a21.443,21.443,0,0,1,2.2.72,6.326,6.326,0,0,1,1.728.99,4.094,4.094,0,0,1,1.116,1.44,4.767,4.767,0,0,1,.4,2.034,5.258,5.258,0,0,1-.576,2.448,5.525,5.525,0,0,1-1.638,1.908,8.134,8.134,0,0,1-2.592,1.242A12.316,12.316,0,0,1,112.62,36.288Zm20.088.072a10.128,10.128,0,0,1-3.78-.7,9.76,9.76,0,0,1-3.078-1.926,9.246,9.246,0,0,1-2.088-2.88,8.312,8.312,0,0,1-.774-3.564,8.194,8.194,0,0,1,.774-3.546,8.884,8.884,0,0,1,2.088-2.826,9.847,9.847,0,0,1,3.078-1.872,10.737,10.737,0,0,1,7.542,0,9.8,9.8,0,0,1,3.1,1.872,8.885,8.885,0,0,1,2.088,2.826,8.194,8.194,0,0,1,.774,3.546,8.655,8.655,0,0,1-.738,3.564,8.9,8.9,0,0,1-2.034,2.88,9.5,9.5,0,0,1-3.078,1.926A10.466,10.466,0,0,1,132.708,36.36Zm.036-5.616a3.191,3.191,0,0,0,2.322-.936,3.277,3.277,0,0,0,.954-2.448,3.231,3.231,0,0,0-.972-2.466,3.286,3.286,0,0,0-2.34-.918,3.252,3.252,0,0,0-2.34.936,3.2,3.2,0,0,0-.972,2.412,3.258,3.258,0,0,0,.99,2.484A3.314,3.314,0,0,0,132.744,30.744ZM135.3,16.236a3.355,3.355,0,0,1-1.584-.378q-.72-.378-1.332-.774-.5-.36-.954-.648a1.685,1.685,0,0,0-.918-.288q-1.08,0-1.3,1.548a.8.8,0,0,1-.108.288q-.072.108-.324.108h-2.592a.35.35,0,0,1-.4-.4,10.2,10.2,0,0,1,.324-2.286,6.581,6.581,0,0,1,.81-1.908,4.174,4.174,0,0,1,1.3-1.3,3.416,3.416,0,0,1,1.854-.486,3.568,3.568,0,0,1,1.818.468q.81.468,1.458.9.5.324.882.558a1.4,1.4,0,0,0,.738.234q.972,0,1.08-1.548a.8.8,0,0,1,.108-.288q.072-.108.324-.108h2.736a.35.35,0,0,1,.4.4,10.458,10.458,0,0,1-.378,2.286,6.392,6.392,0,0,1-.864,1.872,4.346,4.346,0,0,1-1.332,1.278A3.308,3.308,0,0,1,135.3,16.236Zm27.36,10.44a3.227,3.227,0,0,1-.288,1.728,1.491,1.491,0,0,1-1.188.36h-9.792a3.6,3.6,0,0,0,1.638,1.764,5.982,5.982,0,0,0,2.862.612,14.834,14.834,0,0,0,1.908-.126,13.156,13.156,0,0,0,1.764-.342,12.5,12.5,0,0,0,1.368-.468,2.178,2.178,0,0,1,.72-.216q.36,0,.36.5v3.492a1.116,1.116,0,0,1-.09.432.8.8,0,0,1-.306.36,10.913,10.913,0,0,1-3.024,1.08,17.88,17.88,0,0,1-3.96.432,12.244,12.244,0,0,1-4.032-.648,9.738,9.738,0,0,1-3.24-1.836,8.746,8.746,0,0,1-2.16-2.826,8.284,8.284,0,0,1-.792-3.654,8.485,8.485,0,0,1,.792-3.708,8.725,8.725,0,0,1,2.124-2.826,9.459,9.459,0,0,1,3.1-1.8,10.836,10.836,0,0,1,3.672-.63,10.516,10.516,0,0,1,3.168.486,7.969,7.969,0,0,1,2.754,1.494,7.229,7.229,0,0,1,1.926,2.574A8.954,8.954,0,0,1,162.66,26.676Zm-8.6-3.816a2.608,2.608,0,0,0-1.782.648,3.624,3.624,0,0,0-1.062,1.764h5.472a3.5,3.5,0,0,0-.828-1.674A2.27,2.27,0,0,0,154.056,22.86Zm17.856,13.428a20.453,20.453,0,0,1-3.4-.288,12.315,12.315,0,0,1-2.862-.792.675.675,0,0,1-.432-.684v-4.14q0-.4.216-.4a.616.616,0,0,1,.288.108,11.619,11.619,0,0,0,2.916,1.044,13.578,13.578,0,0,0,2.916.36,2.476,2.476,0,0,0,1.134-.216.7.7,0,0,0-.108-1.314q-.522-.2-2-.594a17.7,17.7,0,0,1-2.322-.738,6.351,6.351,0,0,1-1.764-1.044,4.351,4.351,0,0,1-1.134-1.476,4.767,4.767,0,0,1-.4-2.034,4.611,4.611,0,0,1,.666-2.5,5.675,5.675,0,0,1,1.8-1.782,8.6,8.6,0,0,1,2.682-1.08,14.764,14.764,0,0,1,3.348-.36,21.094,21.094,0,0,1,2.718.18,14.986,14.986,0,0,1,2.538.54.554.554,0,0,1,.432.612v3.852q0,.288-.252.288a.618.618,0,0,1-.252-.036,13.576,13.576,0,0,0-2.2-.612,11.828,11.828,0,0,0-2.3-.252q-1.872,0-1.872.9a.661.661,0,0,0,.522.648q.522.18,1.962.576a21.442,21.442,0,0,1,2.2.72,6.326,6.326,0,0,1,1.728.99,4.094,4.094,0,0,1,1.116,1.44,4.767,4.767,0,0,1,.4,2.034,5.258,5.258,0,0,1-.576,2.448,5.525,5.525,0,0,1-1.638,1.908,8.134,8.134,0,0,1-2.592,1.242A12.316,12.316,0,0,1,171.912,36.288Z" transform="translate(581 156)" fill="#fff"/>
        <path id="Caminho_1373" data-name="Caminho 1373" d="M151.75,24.24V34.68h13.62q.78,0,.78.84v5.22q0,.78-.84.78H151.75V53.16h15.66q.78,0,.78.84v5.22q0,.78-.84.78H144.13q-.78,0-.78-.84V18.18q0-.78.84-.78h23.22q.78,0,.78.84v5.22q0,.78-.84.78Zm40.5,6.36a11.055,11.055,0,0,1,8.04,2.91q3,2.91,3,8.85V59.22q0,.78-.84.78h-6.78q-.78,0-.78-.84V43.02a5.59,5.59,0,0,0-1.5-4.35,6.6,6.6,0,0,0-8.4.33,6.55,6.55,0,0,0-1.62,4.74h-.06V59.22q0,.78-.84.78h-6.72q-.78,0-.78-.84V31.98q0-.78.84-.78h6.36q.78,0,.78.84V35.4Q185.83,30.6,192.25,30.6Zm44.58,13.44a13.426,13.426,0,0,1-.09,1.74,2.2,2.2,0,0,1-.33.99,1.06,1.06,0,0,1-.66.42,5.31,5.31,0,0,1-1.08.09H217.15a7.373,7.373,0,0,0,2.94,4.62,9.921,9.921,0,0,0,5.88,1.62,20.566,20.566,0,0,0,3-.24,25.328,25.328,0,0,0,3.12-.66,16.582,16.582,0,0,0,2.31-.93,3.3,3.3,0,0,1,1.23-.45q.48,0,.48.72V56.7a1.4,1.4,0,0,1-.66,1.26,16.376,16.376,0,0,1-4.8,1.83,26.172,26.172,0,0,1-6,.69,17.631,17.631,0,0,1-6.24-1.08,14.679,14.679,0,0,1-4.98-3.06,14.31,14.31,0,0,1-3.3-4.71,14.976,14.976,0,0,1-1.2-6.09,15.37,15.37,0,0,1,1.17-6.06,14.224,14.224,0,0,1,7.95-7.8,15.364,15.364,0,0,1,5.76-1.08,15.018,15.018,0,0,1,4.89.81,11.7,11.7,0,0,1,4.17,2.46,11.941,11.941,0,0,1,2.88,4.17A15.169,15.169,0,0,1,236.83,44.04Zm-13.08-7.02a6.434,6.434,0,0,0-4.05,1.32,7.121,7.121,0,0,0-2.43,3.72h12.54a5.806,5.806,0,0,0-1.92-3.57A5.924,5.924,0,0,0,223.75,37.02Zm36.96-6.42q.78,0,.78.84v7.14q0,.72-.84.72a12.114,12.114,0,0,0-3.84.66,7.8,7.8,0,0,0-4.2,3.36,12.036,12.036,0,0,0-1.62,6.6v9.3q0,.78-.84.78h-6.78q-.78,0-.78-.84V31.98q0-.78.84-.78h6.48q.78,0,.78.84v7.44Q253.15,31.08,260.71,30.6Zm34.44.6q.78,0,.78.84v21.6a21.426,21.426,0,0,1-1.32,7.86,14.833,14.833,0,0,1-9.15,8.91,20.351,20.351,0,0,1-6.81,1.11,32.565,32.565,0,0,1-5.97-.51,16.362,16.362,0,0,1-4.83-1.65,1.184,1.184,0,0,1-.66-1.2V62.04q0-.48.24-.48a1.026,1.026,0,0,1,.48.18,17.783,17.783,0,0,0,4.77,2.07,18.918,18.918,0,0,0,4.95.69,10.524,10.524,0,0,0,6.93-2.16q2.61-2.16,2.61-6.42V54.36a11.339,11.339,0,0,1-4.08,3.33,11.747,11.747,0,0,1-5.1,1.11,12.838,12.838,0,0,1-5.13-1.02,12.664,12.664,0,0,1-4.14-2.85,12.9,12.9,0,0,1-2.76-4.41,15.967,15.967,0,0,1-.99-5.76,15.612,15.612,0,0,1,1.02-5.73,13.557,13.557,0,0,1,2.79-4.47,12.449,12.449,0,0,1,4.14-2.88,13.021,13.021,0,0,1,10.38.12,10.379,10.379,0,0,1,4.23,3.66V31.98q0-.78.84-.78ZM280.09,52.26a8,8,0,0,0,2.85-.51,6.74,6.74,0,0,0,2.34-1.47,6.929,6.929,0,0,0,1.56-2.31,8.338,8.338,0,0,0,0-6.06,7.269,7.269,0,0,0-1.56-2.34,6.884,6.884,0,0,0-2.34-1.53,7.6,7.6,0,0,0-2.85-.54,7.756,7.756,0,0,0-2.82.51,7.4,7.4,0,0,0-2.34,1.44,6.681,6.681,0,0,0-1.62,2.31,7.912,7.912,0,0,0-.6,3.18,7.538,7.538,0,0,0,.6,3.09,7.315,7.315,0,0,0,1.59,2.31,6.392,6.392,0,0,0,2.34,1.44A8.443,8.443,0,0,0,280.09,52.26Zm27.84-26.94a4.946,4.946,0,0,1-3.75-1.41,4.8,4.8,0,0,1-1.35-3.45,4.8,4.8,0,0,1,1.35-3.45,4.946,4.946,0,0,1,3.75-1.41,4.868,4.868,0,1,1,0,9.72ZM304.51,60q-.78,0-.78-.84V31.98q0-.78.84-.78h6.78q.78,0,.78.84V59.22q0,.78-.84.78Zm44.94-28.8q.78,0,.78.84V59.22q0,.78-.84.78h-6.66q-.78,0-.78-.84v-3.9a8.357,8.357,0,0,1-3.99,4.05,12.725,12.725,0,0,1-5.49,1.23,13.7,13.7,0,0,1-5.34-1.08,14.075,14.075,0,0,1-4.56-3.06,14.772,14.772,0,0,1-3.15-4.74,16.591,16.591,0,0,1,0-12.24,14.67,14.67,0,0,1,3.12-4.71,14.061,14.061,0,0,1,9.93-4.11,13.5,13.5,0,0,1,5.52,1.14,7.982,7.982,0,0,1,3.96,3.9V31.98q0-.78.84-.78ZM334.51,53.1a8,8,0,0,0,2.94-.54,7.14,7.14,0,0,0,2.4-1.53,7.339,7.339,0,0,0,1.62-2.37,7.751,7.751,0,0,0,.6-3.12,8.108,8.108,0,0,0-.57-3.12,6.964,6.964,0,0,0-1.59-2.37,6.774,6.774,0,0,0-2.4-1.5,8.589,8.589,0,0,0-3-.51,8.233,8.233,0,0,0-2.97.54,7.32,7.32,0,0,0-2.43,1.5,6.931,6.931,0,0,0-1.62,2.37,7.811,7.811,0,0,0-.6,3.09,7.431,7.431,0,0,0,.63,3.12,7.746,7.746,0,0,0,1.65,2.37,7.14,7.14,0,0,0,2.4,1.53A8,8,0,0,0,334.51,53.1Zm62.1-9.06a13.426,13.426,0,0,1-.09,1.74,2.2,2.2,0,0,1-.33.99,1.06,1.06,0,0,1-.66.42,5.31,5.31,0,0,1-1.08.09H376.93a7.373,7.373,0,0,0,2.94,4.62,9.921,9.921,0,0,0,5.88,1.62,20.567,20.567,0,0,0,3-.24,25.327,25.327,0,0,0,3.12-.66,16.582,16.582,0,0,0,2.31-.93,3.3,3.3,0,0,1,1.23-.45q.48,0,.48.72V56.7a1.4,1.4,0,0,1-.66,1.26,16.376,16.376,0,0,1-4.8,1.83,26.172,26.172,0,0,1-6,.69,17.631,17.631,0,0,1-6.24-1.08,14.679,14.679,0,0,1-4.98-3.06,14.31,14.31,0,0,1-3.3-4.71,14.977,14.977,0,0,1-1.2-6.09,15.37,15.37,0,0,1,1.17-6.06,14.224,14.224,0,0,1,7.95-7.8,15.364,15.364,0,0,1,5.76-1.08,15.018,15.018,0,0,1,4.89.81,11.7,11.7,0,0,1,4.17,2.46,11.941,11.941,0,0,1,2.88,4.17A15.169,15.169,0,0,1,396.61,44.04Zm-13.08-7.02a6.434,6.434,0,0,0-4.05,1.32,7.121,7.121,0,0,0-2.43,3.72h12.54a5.806,5.806,0,0,0-1.92-3.57A5.924,5.924,0,0,0,383.53,37.02Zm35.82-11.7a4.946,4.946,0,0,1-3.75-1.41,4.8,4.8,0,0,1-1.35-3.45,4.8,4.8,0,0,1,1.35-3.45,4.946,4.946,0,0,1,3.75-1.41,4.868,4.868,0,1,1,0,9.72ZM415.93,60q-.78,0-.78-.84V31.98q0-.78.84-.78h6.78q.78,0,.78.84V59.22q0,.78-.84.78Zm32.82-29.4a11.055,11.055,0,0,1,8.04,2.91q3,2.91,3,8.85V59.22q0,.78-.84.78h-6.78q-.78,0-.78-.84V43.02a5.59,5.59,0,0,0-1.5-4.35,6.6,6.6,0,0,0-8.4.33,6.55,6.55,0,0,0-1.62,4.74h-.06V59.22q0,.78-.84.78h-6.72q-.78,0-.78-.84V31.98q0-.78.84-.78h6.36q.78,0,.78.84V35.4Q442.33,30.6,448.75,30.6Zm47.82-15.42q.78,0,.78.84v43.2q0,.78-.84.78h-6.6q-.78,0-.78-.84v-3.9a8.849,8.849,0,0,1-1.77,2.37,10.1,10.1,0,0,1-2.34,1.65,10.87,10.87,0,0,1-2.7.96,13.378,13.378,0,0,1-2.79.3,13.648,13.648,0,0,1-9.84-4.14,15.309,15.309,0,0,1-3.09-4.74,15.528,15.528,0,0,1-1.17-6.12,16.264,16.264,0,0,1,1.11-6.12,13.95,13.95,0,0,1,13.05-8.82,14.809,14.809,0,0,1,2.79.27,10.99,10.99,0,0,1,2.67.87,9.393,9.393,0,0,1,2.31,1.56,8.393,8.393,0,0,1,1.77,2.34V15.96q0-.78.84-.78ZM481.69,53.1a8,8,0,0,0,2.94-.54,7.14,7.14,0,0,0,2.4-1.53,7.339,7.339,0,0,0,1.62-2.37,8.412,8.412,0,0,0,0-6.24,7.339,7.339,0,0,0-1.62-2.37,6.774,6.774,0,0,0-2.4-1.5,8.413,8.413,0,0,0-2.94-.51,8.162,8.162,0,0,0-3,.54,7.39,7.39,0,0,0-2.4,1.5,6.931,6.931,0,0,0-1.62,2.37,8.334,8.334,0,0,0,0,6.21,7.115,7.115,0,0,0,1.65,2.37,7.476,7.476,0,0,0,2.43,1.53A8,8,0,0,0,481.69,53.1Zm50.4-21.9q.78,0,.78.84V59.22q0,.78-.84.78h-6q-.78,0-.78-.84l-.12-3.54a9.739,9.739,0,0,1-3.69,3.63,10.832,10.832,0,0,1-5.37,1.29,12.523,12.523,0,0,1-4.41-.75,9.321,9.321,0,0,1-3.45-2.22,10.2,10.2,0,0,1-2.25-3.66,14.77,14.77,0,0,1-.81-5.13V31.98q0-.78.84-.78h6.78q.78,0,.78.84V48.3q0,3.06,1.47,4.41a5.583,5.583,0,0,0,3.93,1.35,5.039,5.039,0,0,0,4.08-1.71A6.521,6.521,0,0,0,524.47,48V31.98q0-.78.84-.78Zm-16.5-4.26q-.78,0-.42-.78l5.7-12.18a.785.785,0,0,1,1.08-.48l5.76,1.86q.42.06.42.42a1.382,1.382,0,0,1-.18.54L520.63,26.4a1.156,1.156,0,0,1-1.02.54Zm34.08,33.6a28.114,28.114,0,0,1-5.22-.51,18.032,18.032,0,0,1-4.44-1.35.9.9,0,0,1-.54-.9V52.2q0-.6.3-.6a.921.921,0,0,1,.36.12,22.582,22.582,0,0,0,4.59,1.62,20.592,20.592,0,0,0,4.83.6,6.608,6.608,0,0,0,3.21-.63,1.951,1.951,0,0,0,1.11-1.77,1.7,1.7,0,0,0-.33-1.08,2.817,2.817,0,0,0-1.02-.75,12.6,12.6,0,0,0-1.8-.66q-1.11-.33-2.67-.75a26.14,26.14,0,0,1-3.54-1.26,11.585,11.585,0,0,1-2.82-1.74,7.2,7.2,0,0,1-1.86-2.4,8.347,8.347,0,0,1,.3-7.14,8.45,8.45,0,0,1,2.64-2.82,12.731,12.731,0,0,1,4.02-1.74,20.242,20.242,0,0,1,5.04-.6,26.966,26.966,0,0,1,4.44.36,20.507,20.507,0,0,1,3.9,1.02.786.786,0,0,1,.54.84V38.1q0,.54-.36.54a1.132,1.132,0,0,1-.36-.06,23.639,23.639,0,0,0-3.87-1.11,19.734,19.734,0,0,0-3.93-.45,6.86,6.86,0,0,0-3.24.6,1.811,1.811,0,0,0-1.08,1.62,1.714,1.714,0,0,0,1.29,1.68q1.29.48,3.81,1.32a35.738,35.738,0,0,1,3.66,1.2,11.043,11.043,0,0,1,2.91,1.65,6.99,6.99,0,0,1,1.92,2.4,7.8,7.8,0,0,1,.69,3.45,8.426,8.426,0,0,1-3.33,6.99Q555.49,60.54,549.67,60.54Zm35.34-7.08a3.282,3.282,0,0,1,.72-.12q1.02,0,1.02,1.44v3.84a1.025,1.025,0,0,1-.78,1.08,16.315,16.315,0,0,1-3.03.69,23.172,23.172,0,0,1-3.03.21q-4.98,0-7.38-2.52t-2.4-7.92V37.08h-4.14q-.78,0-.78-.84V31.98q0-.78.84-.78h4.08V22.74q0-.78.84-.78h6.72q.78,0,.78.84v8.4h7.26q.78,0,.78.84V36.3q0,.78-.84.78h-7.2v12q0,4.62,4.14,4.62a11.783,11.783,0,0,0,1.23-.06Q584.41,53.58,585.01,53.46Zm25.2-22.86q.78,0,.78.84v7.14q0,.72-.84.72a12.114,12.114,0,0,0-3.84.66,7.8,7.8,0,0,0-4.2,3.36,12.036,12.036,0,0,0-1.62,6.6v9.3q0,.78-.84.78h-6.78q-.78,0-.78-.84V31.98q0-.78.84-.78h6.48q.78,0,.78.84v7.44Q602.65,31.08,610.21,30.6Zm10.32-5.28a4.946,4.946,0,0,1-3.75-1.41,4.8,4.8,0,0,1-1.35-3.45,4.8,4.8,0,0,1,1.35-3.45,4.946,4.946,0,0,1,3.75-1.41,4.868,4.868,0,1,1,0,9.72ZM617.11,60q-.78,0-.78-.84V31.98q0-.78.84-.78h6.78q.78,0,.78.84V59.22q0,.78-.84.78Zm44.94-28.8q.78,0,.78.84V59.22q0,.78-.84.78h-6.66q-.78,0-.78-.84v-3.9a8.357,8.357,0,0,1-3.99,4.05,12.725,12.725,0,0,1-5.49,1.23,13.7,13.7,0,0,1-5.34-1.08,14.076,14.076,0,0,1-4.56-3.06,14.772,14.772,0,0,1-3.15-4.74,16.591,16.591,0,0,1,0-12.24,14.67,14.67,0,0,1,3.12-4.71,14.061,14.061,0,0,1,9.93-4.11,13.5,13.5,0,0,1,5.52,1.14,7.982,7.982,0,0,1,3.96,3.9V31.98q0-.78.84-.78ZM647.11,53.1a8,8,0,0,0,2.94-.54,7.14,7.14,0,0,0,2.4-1.53,7.34,7.34,0,0,0,1.62-2.37,7.752,7.752,0,0,0,.6-3.12,8.108,8.108,0,0,0-.57-3.12,6.963,6.963,0,0,0-1.59-2.37,6.774,6.774,0,0,0-2.4-1.5,8.589,8.589,0,0,0-3-.51,8.233,8.233,0,0,0-2.97.54,7.32,7.32,0,0,0-2.43,1.5,6.931,6.931,0,0,0-1.62,2.37,7.81,7.81,0,0,0-.6,3.09,7.432,7.432,0,0,0,.63,3.12,7.746,7.746,0,0,0,1.65,2.37,7.14,7.14,0,0,0,2.4,1.53A8,8,0,0,0,647.11,53.1Z" transform="translate(280 189)" fill="#fff"/>
      </g>
    </g>
  </g>
</svg>
